<mxfile host="app.diagrams.net" modified="2023-03-01T14:15:51.132Z" agent="5.0 (Windows NT 10.0; Win64; x64) AppleWebKit/537.36 (KHTML, like Gecko) Chrome/110.0.0.0 Safari/537.36" etag="bV8YrSgZQDAcrWLAIud4" version="20.8.23" type="github">
  <diagram id="C5RBs43oDa-KdzZeNtuy" name="Page-1">
    <mxGraphModel dx="1687" dy="999" grid="1" gridSize="10" guides="1" tooltips="1" connect="1" arrows="1" fold="1" page="1" pageScale="1" pageWidth="827" pageHeight="1169" math="0" shadow="0">
      <root>
        <mxCell id="WIyWlLk6GJQsqaUBKTNV-0" />
        <mxCell id="WIyWlLk6GJQsqaUBKTNV-1" parent="WIyWlLk6GJQsqaUBKTNV-0" />
        <mxCell id="sEXLUB1EFrkDJPkAoZS1-0" value="" style="shape=image;verticalLabelPosition=bottom;labelBackgroundColor=default;verticalAlign=top;aspect=fixed;imageAspect=0;image=data:image/png,iVBORw0KGgoAAAANSUhEUgAAA1sAAAEvCAYAAACzENv7AAAgAElEQVR4nOzde3xT9f0/8Fe4OQFJ6nXe6InOKQObU5x4mZCkqKibNBVvky9tWthExSZcvdKkgPOy0abFAZuzPW11Oic0hf0cTm1OQZ1MLScMp8hoTlDHcGhOFFSgJb8/6jn2krZJetKTtO/n4+FDmqaffJJPzuX9ubw/ukgkEgEhhBBCCCGEEFUN07oChBBCCCGEEDIYUbBFCCGEEEIIIUlAwRYhhBBCCCGEJAEFW4QQQgghhBCSBBRsEUIIIYQQQkgSULBFCCGEEEIIIUlAwRYhhBBCCCGEJAEFW4QQQgghhBCSBBRsEUIIIYQQQkgSULBFCCGEEEIIIUlAwRYhhBBCCCGEJAEFW4QQQgghhBCSBBRsEUIIIYQQQkgSULBFCCGEEEIIIUlAwRYhhBBCCFEFz/PQ6XRD+j+e57VuBlWIogiPx6N1NdIeBVuEEEIIIUQ1ZrMZkUhkSP5nNpu1/vhVs2TJEtx3332QJEnrqqQ1CrYIIYQQQgghClEUsWHDBhw9ehRut1vr6qQ1CrYIIYQQQgghiuLiYuXf69evp9GtfqBgixBCCCGEEAKgfVRr8+bNys9tbW147LHHNKxReqNgixBCCCGEEAIAmD9/vvLvESNGoK2tjRJl9AMFW4QQQgghhBCIooht27ahsLAQzz33HH7yk59g2bJl0Ol04DhO6+qlJQq2CCGEEEIIIZAkCZ988gmqqqrw/e9/HwDw2GOPYf/+/TAYDBrXLj1RsEUIIYQQMsiJotjtsa77Q1kslm7PsVgs3Z7X23OsViuampq67TXldru7ldM1y120PbqiZcKLpd7R9r9KdxzHwWKxgGGYqO8v0fbr2DbZ2dnIyMgAz/MQBAEMwwAAPB4P8vLyUqr9eJ6P+r1ONSO0rgAhhBBCCEkOnufhdrshCAJEUew0OtF1TyiWZbv9fbTHenuOJEkIBoPdRkEYhun2evKNvMxgMPT5nFjrHUs5TqcTLMvCbrd3+10q4nkeTU1NAACTydTtM060/aK1jcFggCRJyuemdftFY7fbEQwGkZubC7fbHdN71YIuEolEtK4EIYQQQghRjyRJsNvtaGhoAABkZmaC5/moN79qkoO7riNbqUYURRiNRgDtN/Ycx6ny2VgsFrjd7qijNfGQU613DKjkUZxkt6FMHpVK1X223G43OI5DMBgEADgcjpRM5EHTCAkhhBBCBhm3242GhgZkZmaivr4eoigO2E16OmAYBj6fDyaTCU1NTWBZFoIgaF0tAFCm7zmdzk6PMwxDbdiB2+2GKIqorq6GXq9P2SmFNI2QEEIIIWSQ6TgqQYkNorNYLBAEAXa7HTU1NRAEQfOpaIIgwGKxIBwOa1qPdGK322Gz2bSuRo8o2CKEEEIIGWQMBkNKTqlKRRzHKeu3tCRJEmw2G8LhMAoKCijVehxSuUOBphESQgghhJAhTetAC4Cy/ig3N5cCrX4SBAFer1fragCgkS1CCCGEkLQnSZKSnEGLKVWiKMLr9UIQBDQ1NSnZ4VJ5eleqkUfXtAz8RFGEx+OBIAjYtWsXPvvsM/A8D5Zl4XQ602LNmCRJyM7OVtZxaT3qRSNbhBBCCCFpjuM4+P3+Ae/NF0URdrsdRqOxW7ZDeb1Yqmazi0bO4qhVOniLxaJZcOB0OmE0GiFJEpxOJ1599VXlcQBKwCVnSkxVBoMBBQUFCIfDKTFCSKnfCSGEEELSHMuy8Pv9CAQCAzb6ICdzsNvtnRJx6HQ6yLeXPM/D6XTCYDDA6/VqPsrQl457SyUSVKiV+n0gyaOiAOD1ejt9fzq2pRxYS5IEnudTui3l1P4mk0nzLJM0skUIIYQQksYkSYLf74fJZOp3oFVcXIzMzMw+nycHWh6PBx6Pp8cbb4vFotyYp8PmwQaDQckGmOp7hXVVUFDQ62bAgUAALpcL1dXVnR6Xg2E55XxPGIZRRi9TvS0ZhoHJZILf79c8JTwFW4QQQgghaUzuuVdjrY/FYolpVMbpdMLpdMZ0020wGMBxHARBSIlpXX2RP8eBGhGRRwX7+3oMw3RqO5/PB5/P1+k5oih2Cj54nofX641r+inHceB5vtdgNBUCVbfbjerqas1H4CjYIoQQQghJYxaLBYFAQJW1UU1NTb2OjgDtN9KiKMb1enIq+p7+Zu3atbj44ovjqmuyyAHLQK5NCofD/X49nud7DZSNRmO3kSs57X08AYncltG2Fli7di1OPvnklAi2bDYb7Ha75sEWZSMkhBBCCElzaq3TktdY9cbr9SaUZVC++e24efDatWvx4IMPIhwO47777kuozmpjWRY+n2/A1l3JgUl/23Dr1q2wWq2oqqrqNILl8/nAsixuuummbn8jZ5CMl8ViQWFhofJzx3YcNWpUn9+hoYSCLUIIIYSQIcbn83UbfZg+fTokSUJ1dTVWrFjR498KgpDwKBrLshBFEW+++SYefPBBHD58GK2trTjhhBNw//33J1Sm2uR1WwMt1mArWttZLBZkZWWhqqoKRUVFyvMAwGq19lhWOBxOKMhjGAZ6vR4rV67E6tWr8eWXX+L48eMAgBtvvDGpUzBZltV8tCoeFGwRQgghhAwxPM+jpqYGN954I5588kno9Xo4nU6YTKY+1341NTX1egMPtGex68l7772HgwcPdnrsyJEjyMjIiP0NxMnlcqVsCvp419rJ699MJhPq6uqQlZWlTAXsrayqqiolSOsYlPXWVn39fv369QiHw8rPw4YNwwcffJC0z1rerDiWYFiSJCXph5b7g1GwRQghhBCSxuRkBbEmtwCAzMxMlJSUKCNYGzduREZGBjZt2tTn35rN5l7Tm3dMF96VzWbDtddeiw8//BDr1q3D0aNHAQB6vT5pa6RSNciSRVv71BuDwQCXy4WioiLo9XpUV1cjIyMDTU1NnZ7XNfAqKipSAqyOQqFQjyNFvbWlTqfDJ598Ao7jsGTJEoTDYbS2tqK1tTVpa7biGXEUBAFWq1XzQJsSZBBCCCGEpDGe51FaWhrXDW5RURG8Xi+CwSCWL1+O0tJSNDY2xvS3cgrwRAiCgCuvvBIejwcHDhyAw+HAqFGjEA6HsXbt2oTKVJuc/CMVkjxEU1FRgdLSUoTDYZSVlSEvLw+BQKDb8zIyMvocLTSZTAm9T57nlS0C7HY7Dh48iKeeegqnnHIKdu/enbKfnRYo2CKEEEIIGWLKysqwefNmZGVlgWEYbN26Nea/tdlsCaVwl2/A5REXOaudHHStW7cu7jKTQRTFuIPXgVRcXIydO3ciKysLkiRh3759MBqNCZVlt9vjHlkD2kcLu6b9l4Ou6urqlP3stEDBFiGEEELIECOKIqZNmwaDwYCamhpMmzYNOTk5Mf2tnIkw3pt0eW+uruSga9u2bXGVN1TpdDql7RoaGjBt2rSEy7Lb7RBFMa7gWV4z1lPGQbvdnvJTNwcSrdkihBBCCNFYx/TfA7GYv7Kysl9/7/V6kZ2dDYZhYkoDL4+C9JYSPJ0yzKnJ6XRCEISYR4MqKipUe22DwaC0JYA+N6n2er1wOp3wer0p314Mw8DlcmmSWbIjGtkihBBCCNGY1WqF1WpNaHqe3W6Hz+fr80ZZTSzLorq6WhnF6Cm5hSiKsFgscQUTQ40gCN2SWwwkeV8xp9OpjHR1JYoi7HY77HY7OI7TPICJBcMwvSZyGSgUbBFCCCGEpDGGYWCxWAY8vbXdblcyIbIs22n9j9vths1mg9FohMViAc/zKT8SIpODj4EMXrVmsViUIItlWeU7Jf8sr7MTBCGhDa2HMppGSAghhBBCEsKyLHieV/Y/6riZrZxII12CLJlWmxprzWAwKCOr8iik1WqFx+MZkp+HWijYIoQQQggh/dJx9KOmpoYSJKS5jsFVugZaqbKpMU0jJIQQQghJYzzPp/S+UKR3PM/3uHEwSZy8qXEi6yDVRCNbhBBCCCEaM5vNAJBQD7y8qTGQvqMQqUROhW6xWOjzJP1GwRYhhBBCiMZoVCp1yJsaAxS8kv6jaYSEEEIIIYQQkgQUbBFCCCGEEKIRp9NJI2hJYDAYYDabNU2OAdA0QkIIIYSQtCbfqNMNe3rSelPjwUrelkBrFGwRQgghhKQxSuSgLoZh4HK56DMlqqBgixBCCCGEkG8xDJNW+4TpdLq0LH+opLunYIsQQgghRGPyKIrdbofdbk/666XrDTowdG7S4/Hia/u1rkJcbp5+ptZVGDAUbBFCCCGEaExes5PI1DVRFCGKIhiGiSsZQLrdoAOD8ybd4/FAkiStqzHo8DwPq9UKl8ul6UglZSMkhBBCCEljHMfBarWC4zitqzIoSJIEnuchiuKAvB7LsrQ+bBCjka0U4PP5AAB6vR4AEA6HodfrkZGRAVEUodfrMXnyZC2rSFTS3NystC/wXVsbjUYIgkBtPcjJxzrDMMpFnGEYhEIhhMNhMAwDo9GoZRWJSuRjHejc3izLQhAE5d8ZGRma1XEo6OmYA6CMBNExR7oSBCElRkTI4EAjW3EKBAIwm80wmUzw+Xwwm80wGAyoqqpKuEyO41BYWIhwOAyO45CTk4NgMAhBEOB0OpULNhl4JSUl0Ol0KC4uhs/nQ2ZmJsxms3IBj5ff70dOTg78fj+CwaDS1oFAAHa7HcFgUOV3QBIVCoU6Hd9VVVXQ6XTIz89HIBBIqEyPx4PCwkKIooj6+noUFhYiFAqB53k4nU6EQiGV3wWJlXysl5SUKG1dXFyccHnysb5jxw6EQiEUFhYqow5ut5umDUXR9Ryr5vW14zEniqJyfR2okQtCyNBFwVac5B6wgoICWK1WWCwW5ObmoqioKOEy7XY7JEmC1WqFwWAAAOTl5WHHjh3weDywWq2q1J3Ej2VZZGZmorKyElarFTqdDg6HI+E2KSwsVP4v31jn5eVBEAS4XC7k5eWpVnfSPxkZGWBZVjm+5Tavra1NuCfc6XSCYRhYrVZIkgSGYTB58mQIggCv10ujmhpiWRZZWVlYsWIFrFYr9Ho9KisrEy5PPtazs7ORkZGBYDAIk8kEoH0WQ0NDA42odNH1HKvW9bXjMafX62G1WrFjxw5UV1fT9TUGx9ua8Xu7EXdcMx1b/nGg0+8i+B9eWzsDN08/E2vqXsWbz+Th5uln4ubpZ8K1agO+Up55DHt9C5Xf3Tz9TMy7/RfY9s9PQKku2jsFBmIELda2LKsqwzq7ETdPPxO3Tr8MLzYGOzzvIzQ8cmWntnSvWot9B79Jev3jRZsapzG/36/swVBTU4OSkpJ+lccwDMLhMEKhkNLLFgqFIAgCVqxY0a+yW1pakJGRQVNVEiQvWHa5XACAYDCoysU5FArB6/UCaO/N5TgOW7du7Xe5zc3N8Hq9YBgGeXl58Pl8YFkW5513Xr/LHop4nofBYIDL5YIoipg2bZoq5TY3Nyujm/IoWTJvvDt+L4qKirBhwwbMmjUraa+Xjvx+PwAobS0HRmpwOBzIyspCOBxGeXk5Fi5c2O8ym5ubowbnLS0tyrmlsLAwrc4BgUAAwWAQTU1N8Pv9qlxfgfYpYYFAAE1NTdi3bx8CgQBEUUxq50a0Yy47Oztp7ZDMTY2HDZ+MeU9vAObOQuMLf8HlPy6CYVh7psGvP30Tb237Fyz2Tbh7zqUYBjPOOHsZat+4Cvc9PAujlVJG4nzrE3gcwF8/vgN3z7kQu33lqH30dxj/excyxw5Xvd7phOM4NDU1JT3giqctdUW34OxH5uLoFU/h5pxMpQwdzsXMh/4EHZbiZNvvcbnxP/gbtxx/+tMP4bjnaoxK6juIT6psakwjW3Fqbm4G0N5bZrFYVLn5lm+yHA4HSktLAbRf8CsqKvpVbigUUnrwgPaL8LRp02A2mzFt2jSashQDnueRn58Pi8WCUCiErKwsVQLX3NxcLFy4EHq9HtXV1XA6nf0qLxQKwWQyYeHChcraBJZlMWvWLAq0ExQKhbBz5044HA5YLBYIgqDKjYx8QXW5XAiHw/061uVjOjMzU5na3FFzczMMBgPcbjdMJhN4nkdmZibmzp3b7/cx2PA8j4KCAlgsFoiiqEpby9PhWJYFy7JKxrj+XjNaWlpwySWXdHs8Pz9fmSERiUTS7hzg8/mQlZUFm82m2vVVr9crx1l9fT2A9uurfK1NRH5+PkwmE0wmEzZu3Njpd83NzcjMzFSOOUEQYDAYcPPNN/cZaLlcroQ30rVYLHC73UlNsnDiRbdhvK4Ru96X7x2+QcvbO3DiRecnUNo4XDjtRhhHCfgoeFjNaqoiVUZEkkXNthwx+iJcZrkK+//hh9RK45TR0MhWnHieh9lshtVqVeaXq9kjLZclSVK/yy0vL8e+ffuUnz0eDxwOB2bNmoXi4mJUV1dj0aJF/XqNwUy+2fZ6vTAajeA4TpULWVZWFnQ6HaxWK1iWRTAYxE033dSvelosFphMJtTW1iqPS5KETZs2pc2NVqqRj2+5bcLhcL/bX75wsyyrlMswTMJt5PF4wLIstm7dipkzZ3Za99fc3IycnByUlZUp07BmzZqF3Nzcfr2HwWrr1q3gOA5GoxFOp1O1m9aamhoEg0G4XC6sWLECLS0t/S4z2h5M+fn58Pv9EARB+T6Fw2HU1tamzTmgqakJFotF1eurPHolT9mV/51ouRs2bADQPhLa0tICq9WqHMvyMbd8+XIsXrwYQPsxFwwGY1qfl+qJGIYPn4Tsqz7Fm3wzpky8Gjj0d+z4KAuTz/djVxz32J8F38PnX12Mw++9jMBRFjMyxySv0glKlRGRZFGnLb/Evn+LODLhFPi3vo4zp9wJw4jk7t2WrmhkKw4+nw81NTWQJAk+n085MUZLlrB69WrMmTOn02PNzc3dHpPp9Xqld1uv1/fa6zZz5kzlhA98N6rR8SLe0tKChoaGTn/n9/vR0NCAUCgEg8FAi7N7EQgE4HA4ALS3b1VVFRoaGnpMjDBz5kxl1BP4rk2ijR4aDAaUl5cDaN+YsbcL7OrVq7stDp8zZ06n17LZbJAkqVOgBbT3qpvN5j7eKYnG5/OhoqICkUgEPp8PxcXFCAaDPS6m7zpS3NzcHHXKodFoxPjx45VpZHq9vtcpZdG+Vx3L9fv9ylTXgoIC7Nu3D42NjQCAnJwcTJs2rdt6F5Zl6XvRRX5+PoD26WYlJSXYuXOnMiOgq2nTpnVrk8zMzKjPjUQi8Hg8ys8lJSW93uRnZmZ2Kru5ubnbdMaNGzd2S6RTVlaGuro61NfXdwqsLBZL2rR1x3NsX9dXoP2z6njN6+mYAzofZ30dc13Pr9GOOTnQysjI6NShmZOTA5PJpARassFzzI3GxOlzMOrtv6DlwNc4+P6HME69BN+Ls5R/+h7A/BuNWLm6BTc8cCfGD/EphNrof1tGEMLGyhmYfc2PsfWgFbfddlVKTSFMJTSyFQeWZeH3+9Hc3Ayj0Yimpibl310tXrwYc+bMwZw5c1BXV4fm5mY4nc5uAZAsEAgoF8mO/46mpqYGubm5MBqNmDx5MnJzc+FwODpNUbDb7SgvL8f06dOVx/Lz8zFv3jw0NTXBYDAM6l6b/jIajaioqFCCXoPBgKKioh4v/DU1NWBZFvX19TAajbBYLHA4HFHb0ev1Ko93/Hc0RUVFSg97UVER8vPzkZGRofTQhkIhbN26FatXr+72tzk5OcjOzo7vjRMA7T3fHY9vlmVRWlraY7AtT9/heR6BQAB5eXnKlKWueJ6P+Vh3u91KWfL3Sg7UAShrc4Dv1hxlZ2djw4YNCIfDKCgo6FZmQUFB2ox0DJSOx7rFYsHChQt7bGuPx9OtTXpq647Ht9Pp7PNzr6+vVxLmAO1rrqqrq5Xfh0IhlJaWoqysDDfffLPyeENDA6ZNm9Ztmlp2dnbaTIPKy8tTzrEsy/Z6fQXaPyu73a50IPZ2zMVzfS0tLYXVau12LpfZ7XZUVlZi8uTJ0Ov1ePrppwEAjY2NCIfDUTNYDqZjbuRYFpddXY0339yEcf/+HqYvPgW7o/dL9Oi79V1EJi9NGUj9bUsdxsNZuQVXTRyXvEr2k5x11G63R50RMFAo2IqDfLLsuKi2twW2dXV1mDNnDmbOnAm/3w+fz9fjCbfj432dlDMyMpQLvslk6patqbGxEQzDICcnp9PfzZ07FytWrEA4HMa+ffsQCoUGzQUgGaIlFulp/UBGRoZyo2QymeBwOHrMoBVvW/M8D4vFAo7jwDBMpwxp8s1FtJM0JUZJnHyD1/X47unzzMnJUdZ2Ae3t0tO5oePNY1/tM3nyZCVdNdC+rrPjcS3/fSgUQmVlJZYvX46MjAxltCtaEox0SJQw0KIdKz21jdwm8rYcDoejx7aO51iXyy4vL1e+Ry6Xq1PZ5eXlSodLR1u3bo2aSCKdzgFyPTueY3u7vk6ePLnTDWpvx1w87XDeeecp5/LMzMxu5/KMjAxkZmYiHA4rW7QA33V8aHXMud1ulJaWJn1fKB0yMHHqdNTP/y2mLOVgiCFi+vrgm/jLiyKu+eUtSatXutMiEIi/LY/g4121eFv8CWw/O2kgqthvkiQp05O1RB0LMdLpdDH919XChQuxefNmmEymqCfcWMvtWvbkyZNhMpmwefPmbunCCwsLkZubq0wnkvd5Wb58Oaqrq9HY2IisrKyUnx+ulf62ydatW6OmcE+03IyMDOTn52Pbtm3dEmnI04m63mR0nfpCYpfosZ6XlwdJkpCZmdmtPeJp+2jfq8zMTEiSFPV7Ja/Zy8/PV7KX+v1+ZGVldXtuS0tLj1OZh6L+tEk4HO6xTRItF4CSolzeDkTW0tKCiooKZGdnK1McGxsbldkS48eP71ZWOpwD+vNZycecJEmqH3MmkwnBYLBb+zocDphMJuzYsQP33nsv1qxZg5aWFvj9fmWz+o5aWlowc+ZMFT4p7Rxva8Yf5s7Cxi334PFVG6A714KpOTfgx1NOwfZn5uA31W+B52bit3Wv4s1nbsV9q57He74FyP82LXjBbXfjqzMn4n9Ny3DfqufBczOxtu5tHNf6jfWC53nodLpBd58Ua1t6qsqw3j4NtY3/xPOPXP5tincGDy3ehvEXD8emR25DbWMT1jtn4/X3vtD6baU8GtmKUSQSf4aV5uZm5OXl4d1330V5eTmefvrpblnAEikXaJ/7bzAY8O677yIvL6/T1KSCggLs3LlTea7f70coFMKqVauwcuVKAEB1dTXt6dSDRNukuLgYBoMBGzduVKaUdexFTbTcqqoq1NbW4rXXXlOmysg3FvLFvaqqqlPva0lJyaC7SAyURNpJDnhcLhcEQUB+fn6nNXSJtj3QPv1XTj8f7XtVXFys9L7n5+cr+wrV1tZ2Sw9ut9uVjXVJ4u2Sn5+P3NxcMAyD3Nzcbts29Ke9i4uLla0miouLUVdXp/zO6XSiqalJmeLY1NQEm80GANi0aVOn60tJSUnUaaSppj+fVW5uLlwuF0Kh0IAdc8FgEMXFxcjIyEBlZaUya0XuaGtsbOw0+ux0OtP+XDxs+GT8kgvglx0e+9nS+wEAmf9Xjxf/r+Ozr8aVnX7uqBwvWst7+iUZAHG1ZdEi3NVDOZc89CZyH0pWLQcfGtnqB5fL1eO8fjnQkm+M6+rqwPO8Mr+7N/X19Z0W6HZVVVUFnudRW1uLyZMnd5q+BAArVqyA0+lUFuSaTCZkZGRg2rRpKCkpQSgUAsdxaXEhThWhUKjX/V6qqqoQCoVQW1vbbUpZb5qbm7slwOiosbERFRUV4HkeOTk5yvQlORlDYWGhklClubkZLS0tyM/PRzAY7DaNlCSmqqoKJSUlPR7rQOeAR57muXz58h6fHwqFsHr1apSVlfW6BYO8/qO2thZFRUVwOByd1oQUFxdj8+bNqKmpgdlsxqZNm5CdnQ2HwwG9Xg+3242WlhY0NjYiPz8fZrOZphFG0dzcjLKyMuVn+XjvmtYb+K5NVqxYgaKiIhQUFPQ4Wtjc3NztvCF/n6K1e35+PnQ6HYqKilBUVKSMagPtU9FKS0vhdDqVpBlZWVlgGAb33nsvNm3ahA0bNih1FwQhrVL8y5+VfD4MBAIoKSnp8RiRA96ioiIlIUW09VLy5yGXEwqFUFZWhrKysqjHtLz+teMx1zGDp9lsRk1NjXJc+f1+zJ07F06nUzkXt7S0oLm5WUkRH+t+XhaLRZkyToYWQRBoHf0gRiNbCWpubsaKFStgsViiLuANh8Pd5pDX1dV1yiIYTSgUQmFhYY8LfWUdE20UFRVBr9d3WoMVCoXQ1NSEkpISfPHFFwiFQqiurlYW8hcUFCjrQEjfCgoK8MUXvQ+Vd1xLFa1NosnLy+tzrnbHXtXJkyfD4/Eo5WZkZCAQCCjrekwmE+x2OwVaKqmqqoIkSSgsLITdblfWQnVltVo7jSzW1tb22rFSXV2ttGlvWzCYzeZOa0Dk75WMZdlO3y+z2dzpeyGPYJtMJjidzqRu4pquAoEAGhoawPO80g4sy6K8vByzZs3qNkJiMpk6BTFz586Nmtk1EAjA4/Ggrq5Omd4pB8GCIERt966Z7CorK7t9j0KhEL744gsla2J2djYqKyths9ng8XhQUVGBgoIC5TXTRV5eHjiOU65L8lrVhoYGZYPjjrp+Vj0dcw6HA0ajUblmytMOg8Fg1HIZhulUbtdjbuHChZ2OK3m6/nnnndfvY04+vySyvoRhmEG9L9RgJ49a92dElnRnsVhS4jPVRVKhFmnIbDZDkiR4PJ5+b7rY0cyZM7Fz505UV1erWi5J3MaNG+HxeDBs2DBVe55KSkqUhZv92WCTJE9ZWRkqKytRUlICr9eLTZs2qVLu6tWrUVtbq9wc0X532jObzcoUPblDymaz9StA9fl8yMnJUS72BoMB+fn51OZR+Hw+6PV6XHLJJXj33XfR0NAAi8WCQCCA2trahM+98iyRwsJCJatgRkYGIpEIFi1a1ON2DlqQ144lO8lFx9d78bX9SX8dtd08/cy4b8hYN+wAACAASURBVKDlzzPWz7U/WewS2WDaYrH0K9hKx7ZMpB2BgdnAW200jTABZWVlSUnlKqe8pZ6p1BEKheDxeFQPhgKBAARBSKuTxVC0aNEi6PV6zJ07V9U0+jfddBOCwSDWrFlD6flThLzuqr6+HjqdDjabTdURYp/Ph3A4rIyQdpy2SNpHEzmOw/jx42E0GpUU7BUVFcpUykRMnjwZgiAoCUeKioqQl5enjAASEo28qbGW6cLJ4EHTCBMgn6RFUVR1BMrlcoFlWdXLJYkrLy+HwWBAdXU1RFGEz+dTpV0cDgcYhlF6awOBQK+bnRJtlJSUwOVyISMjA3a7Paa9kmJRXl6OHTt2wOfzqT46TvrHYDCAYRgl46Bax7w8FW3y5MlgWRYNDQ00utWBx+NBZWUlmpqalA6u/Px8ZRpgouRrqd/vV/a6LCkpgclk6nEz6qHk5ulnal0FohJqy9RFwVYCgsGgkgxBzgSlBrlnNRX2BCDt5HUPGzduhN/vB8uyqpQrT0dzOByQJIkCrRQmCAIKCwvBMIxqo9nhcBg7duyA0WiMmi6aDCx5s3I5sJITzuj1+oSP+VAopKRol8sdP348mpubIQhCp6QLQ10gEFDWQIfDYWV/K7/fr6TYTzTg5TgOoVAIoiiCYRhUVVWhoaEBDMMgGAz2uB/iUJCsVSQcx2HJkiU4ePBgUsofjPq7qXGy2vKiiy4CAHzwwQdJKT/ZUmVTY5pGmKD6+noUFBQoGxqqxefzwWazKfsnEe3JU/5sNpuq7R0IBJRe9N4y3RHtLFy4EAaDAeXl5SgvVy9lsdvthiAI8Pl8qKioUK1ckhie51FSUgKe52E0GuHxeMBxHHbs2JFwgC1JEsLhsFIu0H7d8Hg8yM3NpVGtDoxGIxobG1FfX4+SkhIUFRWBZVnYbDawLNuvmySO4yCKIsxmM9xutzJFVC5/sJDfWyqkmV+yZAk+//xzrF27VuuqpA273Z4SbdcRz/PYs2cP9u7dm7aZEuVNjbVem0kJMgghhBBCNCbf0DIME/fabbfbjdLS0gFLrtETjuPwi1/8Aq2trdDr9VEzdWoh1RNkpKKLLroIu3fvBgBceOGFKTO6Fc/ny/M8rFar5scFjWwRQgghhGhM3mcrnZNkLVmyBK2trQCAw4cPp+3oVqqMiGhFHtWSpfPoViqgYIsQQgghhPQLx3H47LPPlJ9bW1vx4IMPalgjkqj58+fj+PHjGDVqFID2tpw/f77GtUpfFGwRQgghhJB+WbJkCUaNGqXsZ2YymRAOh8FxnMY1S30Wi0XZZ01rPM8jGAzC4XDgwIEDANqTeQWDwbQb3WJZFj6fT/MU/hRsEUIIIYSkMbfbjUgkotm6FEEQsGDBAhw4cAAej0d5zOfzqZ5IjCSXwWDA/v374fF4YDAYALRvzbB/f3ptmgy0v5dUmJpLqd8HEUmSwHGcsiA1Wg+Ex+PplMqY47huvU5dF4TKC0V7ew6AbosVWZZVTro9PSdaPZ1OZ7eTcyz17vqcWOod7Tm91ZtlWRgMBhgMhm5/lyqifTZAen3O8da763NiqXes33232638HcMwYFlWtS0A1CBnWwOiH/OpeDwns70S+Z5Fe478+vIxnwpEUYQgCGBZFgzDqPp+Y2mnwXzO4HleecxisaRUu6eDns6L8jq0dGOxWJKWTj3V9XR9kwMXEj8KtgaZhQsX9vr7rpmBRFFEU1NTp8e6HkzyQtHengOg23OiieU5giB0e14s9e76nFjqHe05vdVb/r/ZbNY02JIkCV6vV/mvI47j0v5zjrfeXcVS71i/+w0NDWhoaFAeczgc3W74tOTxeOD3+3v8fSoez12p2V5q1bvjudRkMinBwEDfgIuiqAQw8pYg9fX1YBhmwI+rwXzOcLvdynNKS0sBtG/FQjeXhJD+omArTcm92R2nDMj7AfXW6971d9E20us63CrPee3tOQC6PSfaTUnX50Tj8Xi6XZxjqXfX58RS72jPiaXe0TIUyfu2JHMahyRJ8Hg88Hg8CIfDAKD0dMuifX7RpMPnHGu9u4ql3ol893me77Y3jyRJEAQh6TdlgiAo+z915HQ6e50ikYrHc1fJaq9Y6x3tOdXV1RAEATzPw+/3w+12a9LB4na7UVNTA6A96LPZbMr7VvP9xtJOg/mcIT9HHj30er0DPoItr9nROk01GXipNFtiMJE7qzQfYY2QtLJjx46IyWSKAIhQ86WOHTt2KG2SmZkZ8fl8SXmdgoIC5XUKCgoiO3bsSMrrkNi5XC6lPUKhkOrlh0KhiMPhUNq9urpa9dcgvQsEApH6+nrNXtvlckUCgYAmr0++43A4kvo9kI9xl8sV999WV1dHzGZzypwfUu3+xOVyJfS5JsJsNiftHkALqdaW8Xy+Pp8v4WNKTZQgI43I0bnf74fZbI6pR48MDJZlEQgEYDabEQwGYbVau03vU4PT6URBQQECgQA4jqPesBTAsiz0ej1qamrAsqyqi8ElSYLFYkFFRQX0ej2qq6s1z6o0FDEM021EM9qaov6Spwd3fW232635Au+hThRFVFRUIC8vLyXX68rTN4fqvlBqk2crUCZFogYKttKIKIoIh8MoLy8Hz/OaDYke+qgOhVecjJHDJ2COqxoP3Ps8Pk/iOtIIPkD5rWdh9PArsH5bOHkv1E8Mw4DneVRXVyMzMzMpN0csy4LjOE1uvCJte1BTfDF0Oh2m3PIrVC1x4tV9x5L4entRX2rGacN1OO3s2/G8//OkvVZ/2Gw2iKKI3NxcBINBVY9LeQqb2WyGKIoDGmgN+HHe4ft12S1r8e8v2pL3Yiqw2WyoqKhQrU3kwDovL0/z9MoD3fayY1/8Fff8MCslz/MMw6C+vh56vV7VdiepaahvakzURcFWGnG73dixY4fGvWof48XHVuHwtfX4ok3AfVO2YVvw6Le/+xQNC36DD1W+/9bhIjhfaMSqG/peh5QK7HY7RFFUZdQp1vVXydeGlpdX4Ff/uAW7pFY0lp0Ln/d/iCACoA0fv74CNdvUrWf4g43YNuY3CLb9F0//Yg9WOp7Bxyl6/20wGOD1euFyuVRNnmGz2eDz+cDz/AAnZujtOE9Ge7ch8NLv8M0tPhxvfQ+3HVuHV/2HVCxffV6vFyaTCTU1Nf2+8ZYDLTmw1nbEeuDP8XLZfy17GNV7xySjcFXYbDbwPI/MzEzU1NTQqAdJGTqdLmn/JbP8oYISZKSZVJk29tVnIRxuOwGTflqF13/a/tih4J/x1MYvUFaubd0GC7fbjdLSUvA8n5QpiYmI4At8Hj6GiePnoO7fc9ofa/sXXvjNnzF6sUPV1zJMXIqyie3/nnZzLsZU7MH+L1pxTkbqnraSsahdy0W90Y7zSNvuJLT3cJx3429wJ9rw33/+EW//ZxYezhqrYvnqY1kWPM+DYRhlCmmiHWF2u10JtLQe1ZIN7Dm+DR+/UY5tZ87DnDOq1C5cVfJU4WjJctJNsm92k1l+ZJClZbdYLGhqaurX+3r/k/Taz2zC2cm/n2UYBi6XS/OsojSylcJEUUyZC+93zsR1d+ajteHnuOF2N55rCuI42qd/PPjz5fh/+1fi0rFzUMfXoPCKk6HTfTcFrOO0MLlX47Jb6xDYtxHLZp2TNtOH4iVJEux2e1xreQRBQGlpKfR6fYpkpRqO8Vf9ErPPfh55V8xB6dPbcLANAD7F5pVzsLhhF+6dxuL2Bx/p1u7A13ifX4brzj1RaXf9CXOwJRDfNMHR0y4FMy51Ay21pMa0lejHeSzt3dNxfrDPaaFHITyTi3PZdRh1/VU4Y+zwgX/bcTIYDOB5HiaTKeGLuSRJkCQJJpMpRTpV1D/H99X2x774G1Y/PgGLC36QFj3ABoMh5QItu90On88X9yjr+58IafcfIbGS17xSsEV6ZLfbk5ZoIXHD8f2sh7D5va1YdPlOPH79FZi5wIvwmOvx8K/n4ExDCd4+VIc5lgJU//1zRCIf4Tc2P97xh9B6+EO89uyJeHLHIYT+WYpLDQuw5nfT0fT4AxAnPYtDrdtx7UeP4YWmT7V+k6ryer1xTzWSn9txQ12tjRw3Fa4NAv6y9gK0/CEXV05bim37xuFnDz2Ou8/8MdZsFfD8rx7q1u7Al9jta8LZS99Ca+t2PHzZubjvxUdxwftu3P/X6fB9/iVevO8TPP3Um/gq6it/iqZn38LtS27Aaal//62QJAlutzuu41cURRiNxhRYDxL9OD/Ydnqf7R39OL8N4Zf7au9RYP/vL5DER3D6riLc91v/twFeapNHOhI9TuWAzev1psgmumqf4/tq+8P4+++8uK7yVpw+fOhMK4omEokgEokk1MHGMAwsFgslUlGJvPWA9udiMhhQsJWieJ5HU1MTMjMzU64HDQBGjrsUty/eiNfffwiR536P19473OUZX+MD/rd4ZP4MzFv7zbd/Y8H88rPw6OXjcJrpOUwozoVxXBih/32JP6+wYOyIy7Bq+0d4p3kvBtPYlt1uh9lsht/vj2mOvyAIEEVR842TozsVl+f+Ctzrr+Pu8S+C8+7uckPcvd2B03H1vAU4/pwVI0ZchpfPXYCrTXp8+XkIH2534WLDSbA4Xsf7f30HH3dbC/I13tv0G7Rc8Vv8cuqpA/EGVSOKIkpLS+NqQ/kmK1VumNQ6zs8bp4uxvYEx5/4Ms/OyEAp9icE1Uah3qdLmsoFq++PH/o4X/vAsrjOeiOGjrsHa/e9gkeW6lEySEU0inSok9RkMBgpeiWoo2EpR8k1Xakwh+04EH2D19ZPwUI0fX6MNh8ISWrvdEbXh4zcexM/m7MW0B33Y4DoZAHBU2oRH7zwHL4TbcKztfdSUXo3Thp+EjNNOwk/vqcf/Wtt79Ta6rkIaDWDEJJ72ZFlW2YgvdbRP8br+7jrsDbeh9fBnkI52HXdojdruwMd4cVUFLnsigEgkgn/8eRmmjB+Nk07OwAWXLcbW4NeIRCL4eK8bPxzZsbw27Pf/FptC8+CYacTX+/6GV1I0I2E0LMuioKAAwWAwprYURRE1NTXQ6/WaB9mxHefR2zvacX7q8GExtPe3r90WhPDGQfx48vmD7jyQDtQ+x/fV9sNGXo0ndx9CJBJB29FXcPeZP0YZvwXzp+oH9H0nSu5USbVrNSGkvTOE53nNp+dTsJWC5P0yMjMzU3IIe8T352AyHsUVo0fh/Oy/4cflj2Jm1hiMPueHyB77BOwFf8Q33z8fF2Idim4vwRv//Qabf/dHfHA8C5dO43DhqPa5/COHT8DSuq8x6/5H8aP9C3DaCB0yzroSi6v/2WW0JIRN7lux+C8fpFWPZ0cWiwVmsxkAYlq7ZTAYUq9H7agR11/zOVZcdxq+p78N289YhQcLJmH4sLNwgeUAlt++BK99dXK3dt8VPhlZU8/GcotBWcdx5R1/xNirS/H49W/jJuOJGKkzYuqsP3TINvg13ucfQOHPluNB+4UYrtPh++dX4nPdCVp+AnGTg6ZYMhTKPeNOpzMlppP1dJzr+mjv6Md5C5gZ7l7a+zCaKqdCp9Nh7Kh52HnhY/jlDWdq+fYT4na7YTAYYrqwcxyXQtlGO1P3HN9X26c3lmVhMpng9/tV3WMvXjzPw+12p+A6bxILnucHXdKPVCAIAqxWq+ad17oItW5Kkufva72oT02HPqrD3F9GsO6lfJysAw4F16N04+V4fCE7JKJ+URRTL4AaAJG2PeBufwTnrP49rhk/CpG2f6Hy5z7Meu4enDMEhi5YloXf70coFOo1iOI4Dl6vFx6PJ62/J0P5OHc6naioqEB5eXmfo5Py9yIQCKR1e3c0VNue4zgUFhbC4XCouvVDPOTstS6XK+ZRNp1Ol5YJJyaczcYdmMQ7W0ieXWKxWOK+D7NYLAOelCEd2zKRdgTi+3x5nofVao3ruEiGwXz+S2s2m21QBVpAGw5JIXxPcuKUYe09nnf+7nTML7p4yHwJB8sNVbxaD3+GQ6e+g2szT2jPTnb7Blz40M+HRKAFtHec9BVoAe1r+7xeb5p/T4b2cS6vr+1rdEGSJPj9/qRtfq6Nodv28rV6yIwqRQ7jVc8vMOFsFhPOZvHzO/8fwt/eM7cd24XSq65E9rlzUdf4HxyPdH6+6dwCeN/+UtPqx0KeHjrY21Rurwlns5h49s9QWf+R8ruD71bBci6LG3I92PmfI92eb7liHfYdpfGaWKRDllUyKAzH9y8uRs3fi1GjdVVSlCRJyMjIQEFBgeZD3moaOe5y3LtuF+5dp3VNtDF4bqZjMbSPc/mmu69phPJ0s8HVoTZ0255hGJSXl/e7PeUbe4ZhUvu8oRuDq53rscH4K6x8aTLWr/8p9N8mkhw+chJcr2/DLQ2/wi+W/g4XNjyIKeeMwdUOD9ZgFQ795EHYLj1J2/oTxfCRk1CybQMy716ML659HMV55yq/O/WSIvj2XY+au+/Gb351ASorfgrDyEl42Pd7DL/xdeRvuhPjRw3tDKKxGuwdToSkDfkGLBXW6xBCEiOv3+mNfKyn9A01iYvT6ez3Nh1WqzUl1peo4wT8+NLPsWZlAz75cpAs0Esip9OZsp0vupE/wMlHXsTva9/DkTQbyKJNjUlUoijC7XZrutCWJI/X61XmG/eEgq2hRxRFOuYHCUEQ+lyHYLPZUF1dnZIJkEh6SnRT4+T5Hqxz70PBhDfx5B8EHNG6OilOEAQ0NTVpXY2oho2YgAWPO3Fs0zr89Z3US+jTG9rUmEQlzxOmPTsGJ4PB0OMJdbDPDR/K+uq15DgO2dnZ9B0YIhiGgd1up5EtoprU3NRYD/PcQozdWo2/vhPSujJxoU2NOxs1dhKKHr4UGx75MwI0Uhk3CrYISREMw8BsNqfYxZKoIZV7LQkh/SenXtd6P59UM/IkExxPzsQW52P4y3uHtK5OzGhT466G4cxL7sD9hZ+iZNmz2HdU6/qkFwq2CEkRdrsdPM9TTxohhKQZnudRWlo6pIOtw/95F0+6vTjQ1nka7dizrbh32Zl4d8sXGtWMxOcYWv7xHNbVfojOLTkSE35mx4zRQXz4dZot3tIYBVuEEEKISmJZ6C6KInieT8kNjUl6kr9TAxLsRQ7jVc98zLp7A4S/PITLz2lPAT/l0vvxeeZ47FxzF2bdXQXXTQu+TfM+Ej/62Twsmndun0UPVVptatx2bBdWTJ2Fxzf9C+sW3PhtOv9Lccusv+MHl0hYOXUWfvWnSuSb12Pf0QiGDT8bN99fjKlMeiQz53keOp1O0z22AEr9HpP+rKMwGAxxZSiS5wknOnTt8Xj6dRGX1xJovZhwsLJYLEk5oXq9Xni93oQvtAaDATabjUbVNCJPIY01OQrHcf26sWIYBjabTdkXiqgnlimjHMehtLQUPp8v5nNtf49xavPUZzabASSWpVL+Tg3I5q26Mbja+RTe73Hf7u6/0w0/A3muVcmtl4okSYIgCKmfhr+f2lP1vwlXD7+/Jsrvxpz1E6x87ifJrtqgQsFWL7xeL5YtW4Y9e/b0q5zrrrsOjz76aExBlzxPOBE5OTnw+XyYMWMGLr744oTKeP3112G1WlFeXg6ns8czacIkSYLX64UgCBAEAePHj1f9NZLpyJEjOHLkCFiWhc1m63eqXzU4nU5UVFSAZVlcddVVCZWxZ88eFBYWYufOnSgrK1O5hu0dFvJ/Z511FkaMSK9Tz759+8CyrNLu8WaM9Hg8vXaA2O32mAPdRYsWoby8vF/t/frrr6OmpgYOhwMejyehMnoiCIJyjJ9wwgk44YQTVC0/2frb1smgxjEut/nChQuTcowD3c/v6YhhGKXtB/ommxLkpA5BEGC1WgcmeCWDXnrd8QwgQRCQl5eH2bNn45lnnsGYMWMSKufAgQNYvHgx5s+fjy1btiTtwu3xeODz+fDss8/ijjvuSLicr776Cvfddx8WLlyo6sVGkiQ4nU7U1Hy33eWCBQtUKXug7dmzB6WlpSgtLcWtt96Ku+66S5WRQI7jwHFcXDfegiCgoqICDz/8MB544AGMHj064df/9a9/jWXLlmHmzJmqjWxyHIf169dj+/btAIDZs2cjIyNDlbIH0sUXX4yKigoAwGOPPYbbb78dTqcz5uNZraCc53mUl5fjiSeewNKlSxMu56uvvsKjjz6KVatWwW63q1I/nuexbt06vPDCCwCAGTNm4Nxz02/aUMe2LiwsREFBATwej2ZBl3yMP/HEE7jnnnsSPsa/+uor/Pa3v8WyZcuQn5+vakfRYDq/dwxK8/LyUFxcHNP5UJ4RkgodcISQ1ELBVg/k1OsejwennnpqwuVMnDgRq1evxvTp0yEIQtKm5wmCAJZl+xVoAcDo0aMxf/58PPnkk8oQuhp1mzVrFlpaWvDwww/j9ttvx8SJE/tdrpYOHjyIv/3tb/j1r38Nq9WqygiBKIpoamqK6zsi94Q6HI5+BVoAsHTpUixbtgw8z/f7eypJElasWIHy8nLMmDEDr732Gi6//PJ+11FLa9aswT/+8Q/U1dWhtLQU27dvj3nEWi1ye99zzz39Kmf06NFwOBxYtWoVeJ7v93voOPLy7LPP4tprr+3XeVNra9aswXvvvYfnn38eq1atwrZt27BhwwZNbqTla1F/Ai2gvc3vueceLFu2DF6vV9UOgHnz5mHv3r144okncMMNN6T9+V0URbz55pt44oknYp7pMdinm5Hk4jhO2WeVqMdgMKRElmdKkNEDnucxe/ZsVW4YLr/8cqXMvkiSlNBaDFEUE55e0pV8oVRjGgjP88jOzsa4ceOwa9curFy5Mu0vxABw6qmn4o477sAbb7yBhx9+GBUVFVi0aFGffycH3BzHqVIPeWpaqt3Y3nTTTSgvL8f69euxZcsW5OTkpHWgJZsyZQrWrFmD7du3Y//+/bj55ps1mS6lxmcpf2f6m6Rh0aJFyujqG2+8gTvuuCPlvo+JmDhxIlauXIldu3Zh3LhxMe+DJs8y6I3FYoHL5YrrBkCNNlf7GPR6vbBarTjppJOwa9cuLF26dFCc3xmGwR133IE333wTCxYswMKFC1N+Pav8naL11ulJXnNH1MWybEpkeaaRrV6oNd0pngvcYJonLIoi5s2bB5Zl8corrwyKG7CuRo8ejZUrV2LcuHFYtmwZxo8f32sPqCRJcY9epZsVK1bA5/Nh06ZNuPHGG7WuTlJMmTIFXq8XNpsNDzzwAJ577rlep5n11WvpdrvjTpiQCjwejyrTGlPZxIkT8corr+Caa67BvHnz8Oqrr/YaJMUyYmSxWNKqnaMRRRHLli3DjBkzsHHjxkHRmdLV6NGjsWbNGowfPx7Lli2DxWLR/KatJ4l+pyacTdMeo2EYJu2CV2rL1EUjWyRpKisrsXfvXtTX1w/KQKujpUuXYsGCBVi/fv2Q3meF53m4XC48/PDDgzbQkjEMg7KyMmzZsqXPKaSDsddSkiSsX78es2fPHrSBluzUU09FfX099u7di8rKSq2rkxIWLVqEPXv2YP369YMy0OronnvuwezZs7Fq1aoeR4LTMZ1/JBJJyn8+nw9nnHFG0sofiBTpDMPA7XanTbCVrM95xowZmDhxYtq2Y6qgYGsIiRwX8ZcX3sbXHR5r/fpD1K66BwV3uvGS8DnU+uqLoqj0eGs9V3agzJ8/H7t370547Zbb7UYkEknrEc3a2lqYTCY88MADWldlQOTk5GDBggV4/vnn0+omSw1utxu7d+8eMm3NMAyeeOIJlJeXD+kOFaB9BkZ9fT3Wr18/JM7vo0ePxgMPPIC9e/f2OAWc4zhYrdZ+TSt2u91wu91pn5Vw/vz5OHDggGrT5Yk2RFHEa6+9hvfffz/tv5Nao2BrCDne9ikanyrHkvkFWPb4Fhw89g12/PkRlG07Hbf+fAJefeL32H3ouCqvJS/qvuWWW1QpLx1MnDgRCxYswFtvvaV1VTQhSRKqq6sxe/bsQd/T3dGcOXOwe/fuIXcxeuutt7BgwYJBsUYnVoWFhQC+O79Fw3Fcnx0m6TgK0pF8Ez1r1iyNazJwJk6ciNmzZ+Oll15K2mvIWW4TOZcM6KbGveB5XtkuZ8mSJZrWJZ3EstZzoM2fPx+tra04fvw45s+fr3V1EpIqmxpTsJVikjlP+PiRw/jy0Ej88PLpOONgFcpfeA//2RfED34yHddZcnFLzqd45/1DqrzW1q1bMWPGjCHR69nRtddei+3bt/fYuylvWp2q8/77Q37P8sacQ8WUKVMA9C+hTLybGmtNEARs374d1157rdZVGVCnnnoqZsyYga1bt/b4nFimjKoxCqKlTz/9VLUEUulk6tSpeOWVV7SuRlTyd0rr0aT58+fj+PH2TttwOKx5fRKVaLKyRLEsm1JTFuVRLdmePXuGXIeimijYSjHJnCd8TPoUo3LsuNuejzvvmYnQ3v+iTfntCJw4ZhSOHlNnZGvs2LG44IILVCkrnZx33nkAes7wJm9aPRiDUPmidPrpp2tck4E3e/bsXi9EffVa2u12VVKwDxT5+y1/34eSCy64AGPHjtW6GpoSRRFGo1Hragy47OxsALT5cE94nsfu3buVn1tbW9N2dEtOVpauwWJ/yaNaI0a059FL59GtVEDB1hBywuk/whm7y7H4oeVYdt8z+PCdNXiEO4Qvd23D2y1+NL5yAKefeoIqr1VXV4dJkyapUtZQwXGcqmnhB5ocbA3GQLIvGRkZOOuss3r8far1WpLETZo0CXV1dVpXQ1N///vfMWHCBK2rMeDGjBnT4+8SSec/2Mg34zNmzAAAnHLKKfjss8/S9po2VImiiJdffhkmk0kZyZ0xY8aQnC6vFgq2hpDhoyZhoWcpLhqnx1WF5ah/7mnUNPwW147ZhHnX/h92nn0brvrBiaq93kknnaRaWUOBvKmx1nPuSWLkHkAyuNF5jURjsVjgdruHbLAlCAIuv/xyBAIBbNmyBQBw8OBBVFdXU7AVg1jWeg4UgrZNZAAAIABJREFUURTh8/mUfUEBYMuWLQgEAmm7zlRrdHeQYiRJgiAISdmNPhIJ452X/4yq3z+Dd1u+S9U85ZZabN0zByfrVH05EoUoisoIFo10EDL4eDyePm9I0m2NHkl98ndKq2CPZdmoQZXdbh+Ua5TVxnEcmpqaUiLg6uneJBn3pclmsVhSIsU8BVspJpmbGn/zqQ9ryr+EY20DfjCuvekjkY+w+U9tffwlUYsoisrieQq2hg5BECBJUo9tznEcOI6Dx+NJm3VbJLpY2o9uQEk0LpcLQGLXBvpOqctgMGgavJLBhYKtIWT4CWNw+oSpmHHNVJyuTCC9FBMu+goGGtUiJGmcTieampp67GGTp5DSFA1C0pMoihBFESzLJjximQqjGqQdy7K0PqmDVPpupuNSCwq2hpARYy7ElHNexAubfoBLzhgJ4LuRraWen9M0Qo3Z7fZBm6mQEEIGMznlv8/no1kL39LpUuumQh45JOnNbren3X0SBVsq+/oAj5d2XYhZ08/UuirdHPm8Gd5na7DZ81Snx6fcUoulPfwNGTjJmw/9Df758is44Yob8MNxw7997BDeaViLdX/aix/99E7cfcdknJha10WSoMhxEf/vxf9h+q2XQk530/r1h/jj6gq89tFpuO2uYlzPngxq7uToa8poMlCbk1SUCmtl0oXc2ZqqUmlkKx6CIMDpdGo+zZayEfbD0S+a8Zu7rsY5w3XQ6dr/G/f9Qrzz368SLjOZ84RPOOUizC5/C8ciEUS+/e/48Y/x0M/GYyRdhQeENpsaH0Pg7T/i8YfuRsH83+AfH32NLwNe3H9nE7JvnQX9B0/hub9/NoD1Icl0vO1TND5VjiXzC7Ds8S04eOwb7PjzIyjbdjpu/fkEvPrE77H7kDr76ZHunE4nrFZrr89xu93Q6XSqTVOiNifydypdb4qHOrvdTm2XBJIkpUSWZxrZSlgb9rzyNP761UzUblupjAp89Z9GbP8m8VKTOU942IgJuG1258d0ujNx7S2nQp3dtUhf5E2NB9ZRHP7iK4w9ezqyMz7E4w+8iBV3fYSPxlyKa2+4Ft+f+B88tOHfOH7lKQNcr6Gjr15Lt9ut2oX2+JHD+PLQSEy6fDpa36tC+QunYcq+IH7wk1/gOsuPcfK/H8Q77x/CRZeOU+X1iPaozUkqkCQJXq9XubF1u92w2WxpmfSH5/mkJStLdaIowuv1wuv1Ko9ZLBbYbDbYbLa0m8KXCijYSpgOJ47R4xLrdbBe+UNlekYkMgmTpe9pWrPOvsGHbzXh85On4FLjMex6Zy86jrtFjgfw4jPAw2vvoDVbGuN5HjzPq54WPoJD+N+BS3BnaREmfE/EZ1ufx/9av/v9iBNPxLCjraAJH8kzkCOZx6RPMSrHjrvtVhwRh2FZ7X/RpsxhGIETx4zC0WM0yjGYUJtrbyin85ckCU6nEzU1NTCbzcr1S5Ik2Gw2AO2BF2VLTH1utxsejwc2m01ZG2W1WuF0OuH1erFw4UI4HA54PB6tq5pWKNhKmA6nTboCh2qfx8s/vAb6TiNbt+PB2edrW71vHW/9F9bf9X94O+tJvPD4KCzPvR2b/3e003Om3FKrUe1IRzzPJyUtvA6nwnR5ACWOhzBh3D68+fHneOn+T3Dy9yeCb3oPE/ZvA864i+YUDxInnP4jnLH7ISx+qBGt/34bH34NbP/XIZw6eRvebjkRb75yAD+8n8ayBxNqc+2psSZEPu9rvb6kvr4egiAo16PeyBvfWiwWBAIBZdSjtLQUHo8HHo8HPM/DbrfD6/WC47ghGZD2Ra21ntXV1QCAwsLCHp8TCoUgSRKMRmOnxy0WS6e9XjuSR7U6jlbyPE9tGSMKthJ2HPu2v4RnnluPdc99l+FmBBgseeZ2DevV2bARJjxY70P4xPNxxinvw3LvZjz38LUY821w2Nb6Mqad8k8Mp1GtAZHMTat7NgZT563E4do/4cM2M7iSK3Fs336MOeMQfu/Ix1OfzcT6mgto8fwgMXzUJCz0LEXds9thKCzH41PHYd8+4KQjL+Gu6+bgtNvKUPSDE/suiCQkloXuao+CUJsPDk1NTQAS62xTc1PjUCgU03IGURRhsVjg8Xh6DQ4tFosSlDmdzqibHw91fW0PEqtAIIBgMKgEW4FAAACUwKqqqgoVFRWw2Wydgmmn0wlJkvoMoBiGSau2pE2N095wnDXhejy/43HcwH43D749G+HohEtVe57wkc+24okH1kNs++7L9tZtf1D+3fbNfzD2tsU0qjFAkrlpdW+GjTwHN8xdjBvkByaNxu6X6/Gzyu1YfiqdBpKtr15LeQqpOiltdTjpnKm4+76pyiM/uugTbK77IZ7/8F84qZ+lk97FMiKh/sgFtflQp+Z3KtYRFvk1Y3ldg8EAnufBsiw4jqMphUkSDodhNpuVn+X1c3KwVVRUhGAw2OlvBEEAx3EQRTHmDiCv1wuGYZSlD9GIokjru75F99j9kPGjnyJ72F9wV+4lGDf8LEyduQj1HxhhS6G077rhx/CpOA7WmTbMnJmFrz7Q4bLrZypDwtf95EKcec4pGKV1RUkSteE/AofZU3+oZM3U6UZiysxNCH1N6zgGQl8Z6uQppGpkTIpEJPieLsaPzz9Zae9hw87BI3/Zh2Pad/CRJKA2J/2Rn5+Pqqoq5eempiaYTKZe/4bneQiCEFenocFg6DUZEMdxuPjii2MuL5nkEZFUTo4RCoVgMpnQ2NioPCZ32MfD4/HA6XTGNdIut2W0tVs8z+Oiiy5K+VGvgRR3l/a0adOUjepMJhPMZjMqKyuV3xcUFKCoqKjPcmbOnIlwOKz8jSiKyhC6yWRCZWWlEp1HIhFs3bo1pvqFQiFlzqrNZsN5550X+5uL0+GPG3BvYS2YW36BdbedhK8//xeeW7oIw39Xhduy9Ul73XiMGHsufrrQgVm3TsKRA/V4Z/dPUFxoxchvf9/6zXjsumkH/tc2DecM77UokmTJ2tQ4gv3wVtTi7NvK8MYTp3w7XfAY3n/pb6q+DkkN33zqw5ryL+FY24AfjGs/xcubl5PBidpce263Oy03Nb733nthMBhQUVEBg8GAm266CU1NTX3eKHu9Xtjt9rinwtrtdjidTgiCoGQp5DgOS5YswWeffQaHw5HwexlqLBYLCgoK4Ha7YTQaYTAYEAwGYTQaUVVVBVEUlQ48n88HlmVx0003dSvH6/UmlAXbZrNh4cKFys88z2P+/PnYs2cPRowYAafTmfibG2TiDrY4jsP555+P5cuXY8WKFQDahwqXLFmCd999F5MnT46pnE2bNkGn02HOnDlKcGY2myFJkhK85efno7a2Fg0NDTHXj2VZlJSUwO/34/zzz8fevXuTFHC1Qdz+D1yxsgqLbjjr2xvYCGzT1mL5Sx/gluzLUmLYcNiICbjl1vZ/Dz9hDI7sfh+fHJoGZuxwABEc3h/ER18cQRv1fmouWeu4dBiFsfoLMf2Ga3Dled8tkr/kokk4ZqAxzcFm+AljcPqEqZhxzVScrpyELsWEi76CgRbmJZ0WmxpTm5NErVixAhkZGQiFQgDaO6z1ej0cDgdqa3tOnhXvqFZHLMtCFEUIgoAlS5YgHA6jtbUVo0aNSumRpGRKJD2+1+uF0WhU1mcJggCDwYCSkhLl/tzn8wGAMtoVCASUACwQCMBoNCIcDif0+gzDQK/X4/nnn4fb7cbevXvR2tqe6vjGG2+EIAhxlxkrlmVjCvRFUQTHcapneY5X3MHWjh07AEBJ5wkAO3fuRGZmZqdAa/Xq1Vi8eHGnv92wYQNmzZql/Pz/2TvvsCiuLg6/S1NEBcQOCnZRFMSGogJ2/aJi7B01sUcxliQ2FlvUWLDFqFHXFrtiiS0qi93EKNg7KGDsrAqCAjvfH7DrIkhZFlhw3ueZB3Z2dvbu/O7cuefec88xNzdX+5FGRkYSHBycbOp6/fr1yGQyLC0tAThx4gR16tRRvwa4dOkSAM7Ozly6dIlHjx6pw40uXbqUgICAbJvdMjKBF88UKClL4qSQkujXrzEw0c8pIhOLRnRpvIrmrkfw/MoZsw/3Obw7mBZTN2MtLtvJEezs7PDx8cnhm74odVoUZ8Wm/RRpZZ1sZstuyDSalxMNrvyEkVk1GtjsZPu+ytQtlTiHrZrlmODXS0zxkM1kZKG7TCZDJpPh5+enkxxEouYiqjqVmbVba9euZf369cn2LVq0iAEDBiTr46VGYGBguu5qKi+o1Lh58ybPnj1Ltu/Dhw/J+nef4ujomKWgMrkd5TEtMhtKPTXt/P396d+/f5qRCDXXUYWGhqr74Glpld77w4cPR6FQJDv21q1b2WY4BwUF4e/vn6F+VGhoaLZEec4sme5iX7lyBXNz82SGVWr+vcHBwcms6zVr1iCXy5MZW46OjmqBFi1ahLm5ufr1iRMnsLOzS2YoqRLCyuVyLC0tuXTpEp07d1Zb7s7Ozhw/fpzmzZszbdo0gEz7rmYcQ+yadiCmcy86nGiJSxVzop5d5sjR4sw/WEPrWa3sjZxShBZjfueP8mtZv/cfXhSsjPfyn/i6jb0YKSWHsLOzy/GRO4EXnNq9mxWymaz4GDiToiZ92TMkR4vyxZJeh1rlQqqLjvf7V5fw37ye/X6rk+1v0G0DE7J8dhFdoHKb1+ygZAVR8/yBqi+jjYeDqk5lpkOpCpTQqVMnxo0bR+3atXF2ds6Qh5KbmxtSqfSz3yeRSD7bl/H09KR169ZcvHhRvewDSNYHTA3VrLE2qAJAZJSgoCC8vb311kDbu3cv5ubm2NrasmzZMjp06IClpaW6z63i02eKh4dHqv3itPqdaWkpkUiIjIzk119/ZdKkSbx9+xalUkl8fLxWrokZIS+56arIdB9bLpfz+vXrFFbu6NGjk73esGEDHTt2VC+6XLJkCcHBwSnOFxQURGRkJHv37sXLy0tdUaRSaQqfYWdnZ8aMGYO7uzt79uzB29ubPXv2JDPImjdvjqOjI1euXGH+/PnZumargEVjZm1dw7b1f3Di31tYVW7D8n2dqWutv/lMJBILXL7+Hpckt11l/E127bhGl+4OeuH2+CWj8q/WtTuhBCuc283gwQpPKhRUqRzPdf9NRBUUVc8J0hu11KXmBayq02fReXb3qaNu4AUhjK2/XcdYnOHIl6SueQT7N94TNc9D5HQn0tbWlgEDBvD9999jbm6Oj48PkZGRac4uqdAMAZ5ZVC6II0aMYNq0aYwfP55du3bx+vVrfv31V0aMGJHq57IyGJXZjr9Coci08ZqT2NnZ4ejoyODBgzE3N8fb2ztV7TKipaOjI/7+/unOZn6KXC7H1tYWgBEjRjBixAi10XX79u00IxV+aWTa2Dp58mSy9Vq7du2ia9euqV7Q9evXq2+OtHw3Fy1axJgxY9SjLKnNaqkYNGgQkZGRVKpUiTVr1qQ6AqOaVRs/fjydO3fWqcGljIvg1OG7VHRrQrHYu1x5EId9027YJ0XcffvvcuZfHMBUPUlq/P5lAFNHJQ/9rklC7GOiSo+jbXcHMTxwLiOTyfD19dVRWHiBt+H/cPq2Oe7NbbF2KEf45Qs8Ub//gaCzN6lWV4xGmD+I5c75QF4Va0D9ClZUr3iff86dU78rKEP45wq0EUBMqJb/MDCyp0ef5PskkjK07lYc/R36y1+kFWVPXxk0aBBubm68fv2aNWvWqINkNG/ePN3Penp64u3tnekgCHK5HIVCoe4b2tnZsXPnTvXa/9mzZ3/W2BL5iOas4u7duxk4cKDWa6S8vLzw8/PLtLGVWgh/ldElk8ky7Or3JZApY0sVXlLz4gUGBqZwK1QREhKCra0tr1+/JiQkJIWFrRoZkcvlnDx5koULFwKJo8Cf+qJqsmHDBjp06IBcLk8W+fDSpUv4+/szffp0xo4dy4wZM5BKpWku8swsr4K38m3XlfTedJBuBkto0/U33mq8n5jUeIDOvi+rqEO/j/SgCA/YOu8qHmM7UKZA4oxGdNhxzrwXQ7/nFDmX1Dia039Mpc8cG/yvT+baL16MlN1IdkRRk77s+S4biyCSYyjjb/Db8L78U3sZ2+eaMLVTT/Y//5DsmAbddNcOinweXbiCZgxNAzuOaxfv807jXUEZws5NMOXX3uKaLZFUmTZtGidPnqR27dooFApOnjyZ4TVRKmNLFTY8o0il0lSP1zS6vkTc3d0zldTYx8eHK1euqPvCjx49ytAsVmp4eXmpvcky6jLp7++Pv7//Z/XSF9dLJycnAgICcj3fV6Z8iFTTsJqjHoGBgckSqKlQrafy8/NDLpfTuXNndTALFXZ2dly5ckU9GqR6SDk5OX220vTr14/Ro0ezb98+IDFioQp/f39mzJiRLOeAri+wVd0h7D+7F2/PSpSyrcv8v56gFASEpO3Nk3XUK619UmPVtLyu8hOoQr8P7dubLq1qUrnTMEYP7Evv3r3p3bs3A8cMxPx8MM/FCME5giqpcfbnnyhMi+ErOXFqNq5lSlLZeQiXX8Wp66kgxPH3vo5YmopuhPqAXC5HKpVq3dEwMHJk0p4AZPM6Uqq4Le7f7SdK+bFdUirDmfxVedGlLAdQPfPSQiqVIghClkZ9VQb2hFlHefbyDFM7udO4cWP15tqkD2deig37l4KqTmVmds3Ozo5mzZphYWHB3r17adasWYYjSkPizIZUKs3wjIqXlxcKhSJN4yy3O8V5BZV2r1+/JjAwkGbNmml9LgsLC/z9/fH29sbf3z/d4+VyOV5eXshksiwFLMkJVLEecrteZbin1axZM5YsWYK5uTlubm5cunQJNzc3rly5QnBwsHpWSsXAgQPZs2cPzs7OWFpasmfPHjp37pzqeTWNN3Nz82Rx+zVZsGABEomEwYMHA4kzXIIgqI2rsWPHUrRoUXWYx/Lly3/2XNoikRShWl17LIwlGBYqigkJGl45ApF3gnmi1L4Dq/IT1tXoTmLo98T1WB9Dv6sewGLo9/yMSRE7nGqWwhAjylStSCFDzZ52LG9jQ1g2eiQLNl8iRtQ/W3F3d08zmlPWkxobUtzOgUqlTJEYFKNqNUsMNL4uITYaxaPtjBoq5WDQK0S58z6aBnYJyw+cjRrH84SPBvaH6L8wPTiIPqLmIp9h0KBBBAYGJtsyg7u7O35+ftSpUyfNdamhoaF4enqqPZn0vYMO+p/U+Pvvv8+Sdp+iGuRXBQRJLRCJQqFAKpXi6empldvhl0yGrYK9e/eiUCg4ceIEixYtokKFCvj7+yMIAmvXrk1x0YODg5ONkDg7O6vXZKno1KkTixYtUr+uU6cOa9as+eys1rhx41K4BG7cuFFtrFlaWvL69Wv1eR8+fKj1tGraxBP5LIJH964RdCuE8PDwpC2M+yE3CTx3F30cT0wM/X6C5q5f8/1kX6ZOGEDLlvOo+k1bMfS7HuDu7p5NYeHjCPnnD+ZOHsGAYfP5OyyGtyH+/Dg0kDrdu2B+azVbzr3U8XeK5BbKhGecWL2I8cMGMHHuYV7ExXJ5xywWnipJ9172HJu3ittR4lq9vI+mgV2B/q6h+Iz4qHnQzo0oXKcwqreoeU6gGuTNztxC+oiXlxeXL19GJpNhZ2eHt7e3emZX1XlXJdzNK4bWl4rKIIbE/rSTkxNdu3YFEvsnlpaW6vxo+uImmFfIcBdbZbSkNsWckcWUqfHpuSwtLZOFhtcWXZwjLRLiLjG1aXOW34kGZrBYY92LiUEtJm2doKeR/cTQ7/pM9iXd+0D0m3cUtm5BHcs7zP1pJ9OHhxFmVp/W7VtTuuZjJu+6h7KxVTZ8t0hOo3wfzdsoYxxcWhB/fS2LtpegwaOHVHb9lrbu9Sh2bxIXb0ZRvX7R3C6qiI4QNc99dBHOXzX7rZsgSTmHk5OTOveRyiUaUAdIkEqlue7Gpe/k3FrPtLGzs1PnAAwKCmLOnDm0adOGH3/8McOJhPWJPJvUWAQMjZ2Zceo2355fybpHbRjvaat+z8i0MOZmRfQ24JdEUpjKzi3xsu1MLediPLz0IreL9EVhYWGBm5tbjj54BKJ4/rQuQ30HYV8wlJcnt/I8/uP7RqamGHyIF92M8glximeYNPdihJcH70MNmLjhCQnq0R8jTM1M+BAnznJkFxlZ6K7rpMai5iLaJDXWNZ6enmovJ4lEkqH1PyKJZDapcXajmdcW8mZuK8hDSY3Tyyqt7+g6QbBm6PdKdTvQvtB7wsLC1O+/DTnEBUH70O/Zm9T4Lad+96b38LUI5X04cfNH4h//wbyrnZns5SBa3jmAk5NTtiX6+xwSiuPoEsK0MZOxL/qIs+GvOPhjBMVK10QeeB37/05BqeF6OhubP0ivQ616COjCCC9Qsgalbk9m3OQTxN/7hzsxcOFGFMWdT/HPA1PO/vWUqj+KAcFzE10nNRY1F9EmqbHI59GXGRGR/IHYv8okiaHfh7DmSCgPz6+la6umySJA/a/PxmThd/WJ2BcnkR2qwh9BgQyrbwIUpEbbNrzZfISI+HQ/nutEhR9kYJNyGBvaM2LWBpYv8edVhuzSeIK2jOSnzfezu4h6ihlNv5nBoIbFsaraD9n+baxevQN///E8Xdef7zeXoH+nKno6G/ue64cn41TIkOLW3Vi+dzW/b8uYjgIP8es1lBNhH9I/OJtJL0KdLl1tDE0cGOs3gepFzWkycBF7tqxhw/69rJ5UnBlt+3HFugdNKptm+Xt0T/7QOjfIu5qrELUX0S9UMyI5PTgqkj/JsLElaIQ3zwtbdpHdod+zEyHhA0Ylq+Fob4u5qQRQ8jbkBrej84ID2TN2/TKTuNabeJMQxMi6tzlw+m36HwPACKdey/lZTxJNfw6pVIpEIskGX/1oLu1bw4nHDnh905ZyRYtS0aEapUrUZeof//LPER/qltbPTGsfFIHMHnqB0cee8jxsIUUC93I/gwMDEmzx3rKS5uX087dlFwkf7rJt2U6M6vagV1t7iphZU9PemvJO3/LnnRvIZrTFQg+H2USttSevaq4iP2ivi3D+IiIi+RPRcyyTqEK/A0QWKoqJIrXQ7/a5Vbw0KVjSlVYlhtPb6wDciuDGDze5uC+YFlM355lohLGvFLxLKEDNtrM41Da3S5M3EHhD0LFA3pRtnGzvq/s3iC1jT9lCetwLAyAOhSIKDOzov/BAbhdG74l7c5djB8Jo2VZzrjKK28HPqOBYUc8TmOd9rXNjoXve1lxF3tdeRERbvL291aHxRXSHnZ1dNkV5zhz63svSU7Iv9HtoaChSqTRbbjiJpCRfT13GCJc4/vznCBuWhNFz5gZ8BuSF9VrFaf3tQKJ29eSrXr7sPxeGgMqFpBoSiYQOk6YzpGphjCUV+GnzZfbN9KCAYW26d2+dtO8+z87/jI2hhIbdh9O3STlKWA/k+MPYHPsVcrk8m2avPo8EC5ya1QZBwY0L5zh37hznzp1k28oN3Hqp3/6jJhYN+fYHW+Z0aMeI6Zu4EhZLolvoN0gkEspWGonPZDckEgkNu2/kxrnZ2BhK+Np3HfN7VsO8QD+OPjjFqGqFKW7dmZEjmmNsaM/kzXf1KiBIaGgocrlcJ2t4TMyr0bhhYWIVDzh/LlHvs2f2sfK380Tp04/+BF1ofTzsJftmemBsaM+A7wbjVMiQJr038iIHc3FkJKmxl5cXAQEBOjPM8qrmKvKL9rmJqk6JIbnzJkFBQVnOlSWSEjs7O6RSqWhs5UUSQ79Xw6nTDBZ/14Ry5colbba0HHiWmvZltL6w2esnnMCT6wdY7vcnAO+Ul9m59QBXw2Oy4bt0jQFlHL5l/41LjHOPZGqLhnTz3surBFtGb97NtOYNcGvyLcv+3k338kWxsiyJQz0Pft5/hG3bV/NLz2IAlHQZxa++7hhSi+kH/2F+1wccOx2Ry78texF4yd9H/2K1T3dc1esL3flx8ePcLloGMMd9hIwrVxdh+2IdjezasPBgOLV7LUW+/GtqtW/HxFk7kI2uh0UpS8rY16PH6P1s8hnIiPnTaVQQjIwbMm39ZIpSgObDdnDrz6+Q7z1PZA52Qr29vdNs7GUyGR4eHjrJ0fP+1VWO7d/Gd53d1GtJXZv04cxLfe91Zl1rCUX43w9zGVpZglW14cgfH8LuzFGuPNav9Tx2dna4u7vrLIxy3tVcxZejfVqoliNoMxinqlNiiHXd4OTkJBqvIjpDNLa0QBX6PWjvVMYsPU1YWJh6e/j8AtO6VdLLYANx0WeZPmALDX/azq0HYTx8cJopnSNZMPsQijwSFdi4iD1dR/hx6tYiYnf9TuDNaAwMKtK8iw1/HfqbW+cvkdCwCEcPneHWQwuaNSqZ6nnKOtTGtqgZliX0Z32dnZ1dtoSFl2CFc7vpXH8awr9nLxHx+j1P7/zL9g3tsDTNC02AAaVrtOXHJQc5tak6G+bt43GCKY7urXnjf5TLDy5z/UV5Xvkf5cLVCKq1qktqqhoXrE6t6lYUsSiW4w1fTo5aFrCqTp9Fp3gcEsz5iw+IViq4fvEE3l+Vw1gfG6Zk6EZrCZY4OFemiJkFlgX1/kdnmUTNzxOnsX5YqQxn8lfl84DmKvK29qr8UqGhoTn2nSLZhyr0uWi8iuiCvNDT0kOMsCxZlnKVKxJ5Rs5To5LY2NhgY2ND6WKmemloAcRHvSC6cl+GDWhBtQo2lK/gQPsBI2jw5hbP9NubLMldsD2zNgcTg5KoN280XDVNsXeux53dK1j4Z3EmTe3L+0tb2XTSiNJFDXOx1JnDy8sLuVyeDSNpBank8IYJTerSpMkIDl97h6npY/4KjKOknl+fd+Hb6NRkDIevRwKxvIn8OAtbpEod6hY6xuIfD+Lyw0TaV73KuqXnKF7+y07camBkQ9mYlTSo4kiX7usJjytAwuPT3FEWR5/j0Ylaa4+BkT09+tRCEXqFC/+G8E54za1LsbTq50aR3C5cBsgP2svlcnx9fUVjS0REj1AoFMjCJFZEAAAgAElEQVTl8ly/L0VjS2uUPL8fzP13BskuYnxMCNfvZTRKXvYjCDE8j0hcU/biQ2lqFIvgbmiYep3ZnaAzPDCvQgn9X7SFWc2O1JRsoFEhYyo7bqLJnJm0czADwKJ6XRobXaVgtfpULVcRm/ALFG3kSlnDeIK3zGDs1kss7t+XqdMnM8JHzn7fEfTq3oVOUw+zuH9f1p7VTb6b9MidpMZP2Lf8FJ2X/sWupQ0AKGLjhlvZk5y+EZVj5dAOE1x7NeP+qq5IJBYM2WzJnOX9sDEEQ2M76rc148azStSvWYGKDlFce+ZAA3szBB6yasI0jrzZRIvyBSjVaBJ3HvgyoG93urecxukd/Rky47TWayv1mbyb4iHrWvd1H8t06QSW3TnLT3370r1LH5bd2Uh/99ncySFvsvRcRiE7ZkHecur3odTRMLDjH//BvPXX0GvJ1eQP7XMTVZ0SAyzkTeRyebZG0v5SCQoKwsPDA5lMlqvlyANdbH3FgNIOLlQwvMXTB/9yLiRxryqpcc3K2o0nqvyEddUZj4nYR58affnrrcYj9/dpGkeY07THPN7EKrHU46h0Emz5dsowADx7L0jxvolFazY//Lj2SvN/p16/I/T6Xf16xrQl2VjStMmNpMaQQNwHKxyd7TF9Zcp/gDIunKuXIqn0VQ4XJZMUsunMxJEAXRi5+NN3SzJg8T8MSHql+T/Y4r3lNt5bcqacWUWXSY01UzwEmZ4hr6R40KXWvrOyt6xpkRGXUdUsiK7clDQN7MAZp1EZ2LL2R4jo64Ctnj/p84v2uYmqTgEZDgYgkWSvH052nj+7DZO8lNQ4u3UE1HUrO/gSjEw9b4L1GSXhl+Ts3fMbm/Z8XMxqhB3jNw1I43Npo/IT1hUmxa2p23sVSye3wuxz96OkECXzxNodEW2QUIbWfS0Z2m0QNiX+Q2E+hYMTj/G83ET+qFE4t4v3RZCega3LB3p+SPEgkjnyqoEtkvscXX0wt4uQaVp/2z7bv0MVrAwybrzmJnlRR8gZLfUBsYetNYaUtW/H1suvkyVT1rekxoYFHBk1tQtVy9kkrSsrjZmJZmawcHauPUmMvi40+4LIvqTGhlR0+56V87/GrmwFTKI+4NBlNutX9sfaRBQ+v5GY4mE54/9XnXL2lkS/K8OQeRvzSIoHEW1INLA30dtrOkeuB7LoBy9atVuEw5C2ooGdQ+ginL9cLteL9SUiIiK6RWyGs4BljY6ktMmVvIuORQC9CJQhkRTB2jrxf0F4zNafBjJ07lE0V5U16LaB/vpSYBGdoYx7wZNIM8qWNAUKUrFeN3zqdUt6V+Dd8/9QxJXBIu+EKxP5LIl6frBI1NPAuDTuPSbg3kP1fixPwp9jYlMC/Q6JIpJxNDVPNLCL797INsm7JAN7FC0alsp0s67K9aarsPRfCnZ2dll2CfXw8ADAx8cnR3MxiuQ+YlLj7CE31smnxhc5s+Xn56eT5KHxMddZNLwlNoYSJJLErXDpAZx59EbrhKmpJTXW1Q0YE3GKbWfqc/BWqDpU/aOwc/SqVQTDTDyRZTIZXl5e4uibFgQFBeHu7p6hxZoKhQJPT0+ttY99KmfZujOEqZNua273+XPlci49icvQuUJDQ3F3dxcfBNlI1vRO4M6x1ew5ez8VrcN59PA0y37+i9cZbJhEvbUnIwvdNWdBnJyctFy8nVzzx0/jqezai8mzfmH21O9oU+8NazOhuQqFQqFOBCqScby8vHJ1Eb67uzs+Pj55wuVNJCViUuPsQbVOPrfzpWXB2HrLvpkeaiOjYfeNvMoj7uFBQUHY2toilUqzYHQlcP+YjMvFBrF+/y8M+m4Np8/KWTaxK/9rVUWnSY3t7Ozw9PTExsYmS415gZI1cKleGpsK5dSh6svZVMOlsR0mmTiPKkR5hQoV6N27d7pGV2LY9mrquqLajCUV+Gnzfa1/z+eIDpfzQ49aGBva8/2yi+hTymaFQkFgYGCGDFULCwucnJzw8PDAxcVFi45vAhdntaO8Oum25laFb2Y8yvCZVKO2mSnLu/BttC5qnEJ38wL9OBGm2/BggjKCvT/3ooShhMbdf+XBG/2KMyiTydLsvEqlUiwtLbGwsMiC3mEMcq+SitblsLVrxV/PM35NNPVu0qRJumURtc4cmkmNPT09GThwoJbtu+401yybp6cnvr6+lC1bNt0yidon4uXlxcCBAyldunSuGF3u7u5IpVLR2NIRdnZ2ovEqojOyYGwVoeOUv7j8x2AadNvAoW39KJZHvJGkUilv3rzB19cXGxsbrY2u+A8muLZuQ/N2nXFUvsO6blO6dC7Fvj9voMscwRYWFnh7exMREcHAgQMpXLiwVmU2NKlMi6ZX6dO+K927d6d79+5069qdKauvEpNJQ1nVcdyyZUuGjC6Tkt9w43U8T8/NpmpFH26/F4h8+Atmb6O0ngVMnRgu7luBounvnN/UjBM7z/JSf57Hmcbb2xszMzMuXLig7oRn9EFubF6Z1gM7ULNSM77z/Z0j8jOcPXs2aZMzZ0zZTJVFpblmWdLuhBtSZ8Ix3glv2DvDnS6+p4gXYpHLavLmdcZm1DLK61sHWHK0EYH3tlLs3CGCHsXq9PxZRSaTZSiaU9euXTE1Nc3ENVZhQIkqTRjcsT61G/dnwdp9nFJrfZYzpzfjapU5B0KV3mfOnMmA0SVqrS2qe1zVvmfc6NK95pplAvjvv/8YOHBgOvVQ1F6FtbU1T58+zVWjS0Q3qGZ3RWNLRBd8kWu27OzsGDBgAOvXryc6OhpfX1/mz5/P+PHj8fb2zqCvuiF2Desxs5M7ZzrNZ1D9IEZ8M46yr+UkuLXUeZmlUimrVq3iv//+U5fZ19eXAQMGZNjdI/bFCRbMe8ZX332NbZHEh7AgPOH0qdQfyKGhoZ99wNrZ2VG8eHFevHgBJBpdW7ZsoVevXsyePTvZsRIsaD60D9WKGvJcY7+ZTSNa19GlWQoCz7h86h7FvipO3V4rCeql09NnK1KpNJmWoaGhhIaG0rVrV9avXw8kGjoXLlxgypQpzJw5M83zGRepy/jFOxky+QbyQ3+y/bffqejemU7tPahRzoxqJYsTa5WyCUhL9zZt2nDkyBF1WTw8PGjYsCFz5sxJ+f3mznwzsCymaHa4ClC1aVuMBF2uHIonNPgfokq4UdquBwfCeqT/ET2lcOHCTJw4UW2YpXeNP2KAdT0vVvv34NGV0xw6vJ8V8sK07dKZtq2cKWFaC6vCzyicyoBYWnq3aNGC48ePA3D27Fk8PDxwdXWla9euyY77ErXWpYul5j2uMrrSv8ezR3MV9vb23Lx5E4C///5bXQ9XrVqV7LgvUfugoKAU+2QyGRERH1OOqIyuH3/8kTlz5uS6G1NaCMTw7yFfJu2+golBDbwGexC8eQUX3impVH8CP3/rwr3Die8nvvbAIqleRYVsZ/gcGe8tPZFOHUwNs4+ax7+7zOJZvgS8qMywCb60srrJyjXLOHjblLadu1HJtBBN3V3U5xKUj9i21IeLpUYwo0d9TPPIAL4+IChfcHLPImYdvkzV+gPpUbUQhWo3Q7gwK9O6ataH2i18P9FCyfMbMkYt3olByb7M8elN6bcXRV3TQ0gHQPj8YXHC5T8GCw26bRCefbggjKxqJpSpOFRYtLCvUMKgujDab7uwbGxzwcigujB26T/COyFWuHZokuBoaiAAQqNuy4X7r+MFZUK44D+7p1DcAPX3Nei2QXgYFiBM7O6gcewH4fHVVUIbm4JCg27DBJ9lZ4X4dMqd2c3MzEzw8fERXF1dhVGjRqVzdeKFJ9dPCMf+jhBi390W1s8YIQwYukC49N/7VMtja2sruLm5pbk5Ojp+9lgrK6vPltva2jrd8r6PPC5813ut8DRBc69CuHzuhhCro+unuW3evDlFGZ6emy1Uregj3H7/8bW1AUKnKauFX/o0FCauPyasH9tCANT1JiTpmAbdhgl9XG2E4mW9hGOhMcKHN0HC9B4OglVZT2GM96/C7fdvhL0z3NXf38VXLoRf3yL0d7URAMGl21zh0qNnwt4Z7oKpgYvwy4blwv9sWgjdutURChrUFSb5zRLa2BQUXLrNF3Ztnig4mhqo62hUiroYmfw85foKxx+9F65du6aTa5fRrVSpUmncn8lRKqOE2+fWC/1dHYWvh/ws7JHfFd4pdae7qu6mJFGXLr6nku7XN59cO0/h56Vjk7ULd1+cEUZWNROsynoKI4Z7CEYG1YVJm+4ICYJCCFjeTyhhUF3oP2qisPWMQl2HAMG6oo9w9cVVYdno5gIgWJXtKqw5+VCIS2qfylYcL6xf9626zK1HzRWm9nAQipftIazZJxO8XG2E4mV7CDuDXwmCECvcOrVQaGNTMEVdVNXXHzfdEwRBEEaNGpUjen/+Gqck7l2YcEQ2VqhXuZUwfs4m4Z/7CuETubNcnmvXrmVZa9W9ZGRQXeg/apDgaGoguPbaIDyLT0jR3j/+ROvb7yOFM3+MExxNDQQjg+rCiJl/CU9jzmer1ps3b87Re7xatWp6pblqS9m+53/ts9K+Ozo6CpGRkWnqpzrWx8cnQ3prEhISIgQEBAghISEZ/gwgHF19UDi6+qBwZOU6YbRrRaFBpwXCoVUHhK0/DRKqmbYUZs3dJxxdfVA4/Juf0KPWAGHl4v3qz6i23ZO8hFIGxYVWvZcLh9X79wqrh7YXrAxqCKN/2CEcWbVFmNy6ptDM8xdh36q9wlrvXkLdBhOE7as+nmfv9DFC8wZNBPvinoKfX8rvUW0ZvR808fHx0eq6aoObm5sQEBCQqc9cvnw5059RAQibx3YVbKsk6rN/3nThq2qthVlz92mt65HVu4TZX9cWTA1chEm+e1LUE6vSfYXVKw5mWVdttMzM9Q0ICND6ntIlOpvZMjRqwLT1k9nndoyiDbdw7s9fcB+8C79D27nVeg6tRx5g2JB61Gw7i6B3s/igOMogx42Evv6Gcjwk4OB7VgZH0dxgE+3aXGfpypYESLsQUXMZUfHFmdd6ELtPt6DqpUO0XPmA4bWf8kConiuRtZRxYez2m8eufz/g3HYA3/QpQwFjCf2nLKd/Fs9dsGBBbG1tU51dK1++PC9fvky2z8zMjJkzZ+Lv75/uuQ0KlMGu4AqWLDekRtKMRuLMVmlmNbSnwCejDQMGDEhzNG7EiBHqkU8VqhF4VVSl9CjpMopffY/y85VXtFwgx6lcQejfgv4Lldw//AP9196kyMjEY+ZcqcX0gz60mtqDY6cjqFXpIOdL/EzoozrcuKikikkRqkyRsej61zz9ajuzesXi28obm+EniD9pxNL+nfhxXg12LpzLoI1ehDyqyvrQY1go/2ZM8Nc8fO3K1qt7GenozelmG5A/bsFIRynyay0x3Dbpk7rYmbE/aJwnZARWhnD9+sdrl9XoN6o1W4cPH2bu3LnJ3jMzM2P8+PHExsameC8lcfx35wLH/zrE1jXrOXRZSeNi4Tx58S7Vo9PSXSaTqUfgVZQqVYo5c+YQGhpKcHBwBn5ZEf6XyrX7cdRCdbvw6N03TFs/mYNdgmk+bAffd5xD/7Xnedm9Grt/s+Tgi38xv3ubYnXNsTKcwIFN9xm6x42D27pybUVftjz34ln8QcK2j6Zzz/nUvrYo6XyXiK+0gARhAQdmdmTCofcsOniUStM6snJjNJsO/oP71A5s8b9O+/LvmN7nT7pvC2OrxS7atdlA7yvTU9bXHCAz11gZ95Jr5+QcPbKLNSu2EaasRdXwxyhiUvenTUvvOXPmqGcyVVhbW9O3b98M1DvIiNahr7/hfz/MZehGL0yqDUf+uAejHDdy5XF7ov2Tt/dlytVXa31oWz8Mbq6k/4SXLLgZTQPJXnq6jmNDncM5onVAQECqv9jb25vg4ODPvg8f76NFixbp5B7XpeYAT548wcvLi/fv3yfb37BhQ6ZMmUKHDh3SLE8i+Vd7lW6apNY2ApiamjJx4sRMeM1oh8pVWdtIhhKDEjRs4MzJq1F8wABLuwa4VjrHvYi31C9myftnIcTXaoBtodR6XUY4Nm/Is4t/87BheSoUMkRQ/se/D2KpZJX8yPh30cQKxtjU7MfPNTXf+cDDO49p2K4rT3ft5Nnr+GSzZDmNQqEgKChIJ1EmM0JWUgaoEIghOjaBAsXqMXp8vaS92usqoTxtmj/n9OV7uJSpSUEJxD69RkhccQp8cmxe0TW30LkboalNU5rUK0mRS8UoVNCMWtWtKPKuGEYkNtqCMoITO3ezYck89j9xZxBgXLQu3062p0+DovR4X5Uh05diV/QDp5+9ZPMSdzb7JJ67i9sT+vSYiNHdAFatC8W6RTEcypVPM7St8JmoUFKpNNkaCtWDTdUgft7FIpbz6ycyZPZ1XFqUZ9sML/57v4t5Q2ulezG9vLyyFOHJxsYm2esxY8YglUqxsLDIkLEVH/2AC2cj+PD2AHeS9gnKSCKNUjcRVYu4U0MulycztFRGlrb+zdYOjamV9ECLDr/Arr1bWDhhKQW++ujzXtahNrZFzbhWIjGPmWXNbvzQ/gY7f1vPc8MmVKpXjmIa93Ds42ucv2jN0MVlMTQwpUPfNiwdeZHwue2QYImzRz2sDCFBCRJsad7SkSJmdyhW0BIH58pJ/0sQeEdkirp4n4RWJsnOo4mXl5fOfL379u2r/v/TeppWfVLGPeHU/u1sWb+eP/ZdoljtTgzwWojPluY4V7Pi9f0bRMYoMS2UfOnm53RXKBRs375d/VplAKg6bZmt25rXLrV2AcC4YHV1G2IAGBhV49uV/+PeIRmH7pvQqYw9VuU077xnXD51FwfX2hQ3LIB5uy40+VHKlZtvKW8AxgVr0qRheQySkh/UauNBNfPC3CtRmLJWqvpVGJQQHxXJ88hABruWYDBgauDClZtvKU7y+qqiX79+bNiwIdXfGhQUhEKhSLdOKBQKbGxsiI6OzuQ1Foh+eondW/5gg2wbJ4KVNO7Qne9XBdC6uQu2xT5wO/gZcRRLEQznc3qHhoYmM7Ssra2ZOXOmOkBOxoytRDKitYSP951lQQkSzHDplry9r1lOc51holvZ28p1qGZTkCKGHnT/ej77L96nT+vs1Ro+n+hU1aFOS2vV88XJyQl3d3d69uypfi/j97juNVehaWiZmprSvXt3pFKpVp3O/Ki9SjdNUuszqNz8M3rdPtdfyRkMMC9TBdNNlwn5yhl7U4BX/Hv9Hp4OdYmKjKN6tbKfXehvblsHmye7OH+/NRVqmfPi1hliqzai/I3EvolEUgRH15YcXzaTyZG96N2iJY0qlVCfT1A+4dqjUjRtakdpJ0MO3H5Ms7IVci1kdlBQEB4eHnkmDH+xCu60LrYQ6bwn9Pq6Ey3q2WNhAFnT1ZQaNZ3Yt/kMD9yrY18oir/PPqFew6oEJ8XXymu65hY5/HtfsX/2MFacLc8vx3bS3y7RTPqgCGTuBGO2KxKIS7jJ8sktKW5oimVJK7qM8edFfGLC4J3T3ChTzYX2X/Vm6MBKbBiwlrtaBDtSKBTMmzcPSHyw+fj4EB4erjZc0kLgKf/Ii/LHxfMc3Lkf+emFvD0g54lqAFF4T0ys7iMy+Pv7q/3B27dvT0hICH5+fpkaKStQzIEhfjJ2bN/O9qRtx87tzPy2VqZ9aFWNT8OGDQkICOD8+fM6MS7i3pxlcq8pvKjgzeETM9OMkmhcpDLN2nVkwMg+GAfOZO+F5AFDCpZ1wKXebXbvvkgMr7l+8RqV29fDJpN5pSQUSqUuNtH5rKpMJksRFl61DsDU1DRT9RQg9mkgs7zGsftqYbx8f2fVkom0dSlH/Ku7nD/pz/zJy7j1Mj7D5fPz8yMmJoZSpUqxbt069eh31olMtV1IDQnm1GrUms69h9Ch8nmmr7tI8rutJHWaViFgyz5uvYnj2a3L3FHWo7Z9kUyXyqiwJSUsG7PgzxCUgsC7hHMMaqzdyHRqnbPU8PPzIzo6WotrnMDdEyvoP3YNT81a8Mvalfz8Uw8crI15fPsixw78hu+8M0Rloi+nusetra1Zt24d4eHhOtA741qDASU/ae/vfdD8AUbYOdan0MW9HL3wgrg397h8SYJLvUqZvjd1qXVm8fPz4+nTp5l+FmWH5pDYyVy/fj2lSpXCx8eHx48fI5PJdDC6n7+119RrwIABhISE6Oi65RzG5rbYl7pN8IM3xD69ye0Plrz97wmvhTfcuPmaEuafH1I2MLCjRaua/P1PEJHKN9x+WJiGlYtpHoFF2Tb4TF1O76pv2bJwHNN3/I0iadl27NObvLSxp4SBCXZVa/My6DrPdbukO19jaFqRbt/MZU6/2jw6OZcx82Vce5XYQc6KrmZlXenk/JDT158SHxPC40JOVCmsebyoa0bIwszWW/bN7EinqXJgDe4x+7G+eYA7D2KoVuDjjNGAvjcocHAPd6LjmTSnCT9UKctJn+EMSRiIeYmzrF13DpfJVXB2HK/+nJFBdSZu2MePE2ZzY9x3FDfyxKJMI4bNnY9L+GaOht1k1cr/+G7xRsplJmZ5En5+fhgbG2s9tW9gbEfFcomzK2ZlalG7+FXeJQCG8ObeDn77uxET+1TKfMHSKbObm1uWouNIDGxp0Ub1KpawG1d5EmeOXZ2qZMYZSjWCFxAQkKmyPDv/M86uk4hQQv0i99lzbw0OEcsY4SPnFRNY3/IQA13KYGf7lMkdBvDYx4GoP4/hN+MM63zlPGcEva6VZseOvzA16IvxfXceP3/GxTUyCn21lE0OsH+mF2O3XsJoa0vgCGOWzuCHIX0p5BOOS7e5/LqgIQFzu7Pszlms+/nR5OY4bs37gWV3zoKrJYOTylqyb1/+dLjN7jv3sO73B3uPzebGj8nrYsOHkzTOI6WqFnVRk9DQUAIDA5NdUz8/P3x8fLR2QTFvPJqf+9XFVAIvIkJ5kbRfEBS8ep3xQQGFQoG/vz/r1q3LZIdbs51oSuNrGzi4zZMzc3/QuHY/YVMpebvw24qZGO9YwJ0H79RtyOnoeAZUDsH+8X88vneAIyGu/HaoJi/P/8JXfdcQoVxDe2Dv79MZfXs0NcynYVW2K/O2LsCp8L94D5jFnQfRTJrTkqWtTzHCR06EsilGSbOVJgaq+iXH1GACW1ruZdpmT8b0smdceCz2jb/Bu7cl0zXqqy475NpfYxUF6DVuJv9zLoaEtzwK+Zi6/MPbZ8QoS2X4TKoACpkri3Zar113mCcGC1l252yy+26XexGG9oVnzz+29yaX5tM8Set2wMFtPVm8+i4jWpZiaJJXRP/mj5juqN9aq4iKisriPa47zVXk5H2en7T39/fP9EyWviExKI2jUzHWXL9O1TKPaezZhSvrj3P1fjFCldVoUMgQZcIdfp/xEzsjYrAqnRggIdFTUEKxCo2oeWgPZy4qiCjoRCPTlNEoDU3L4eo+hLq17Zk3/zBBro64l5UQeuciu/5YzK4/Eo8zNXDh5pNWlCr7qcNa/kQmk6nzrGqLBDMq12yPt31d/tzwM4eC3ajhUQEDrXT1TDprUWrVrcOBvWeQR0dRxrE3Bd9fT/Hd+qqrviQ1zoKxVYSOUwIQpmT2cy151mtl0v+zAIgKP8jDYj/xUtmLYhKIerQTv4PvKGzjztxtV5m7TfPzjekELP9V+5Lb2dnx8OFDrf2nE2JlVCswKflOWeJrI+wYv+mY1mX7nJ+wl5eXlh0wJREXt7L20H0Kl2vDMK8GmAIQR/iNg8yavZrnlX/OVOh+VZK4zFLS5SfCE35KvrPcp/ss8N50Be9NSS+nJf6ZMe23z5946Rr1vxVT1MmqrD/dE01P+jqfHFM1g/W4boq6KM90/Q8KCsLb2zvDesrlcq3rqbF5DUbPbEnTelapvKvEo/pposwzPg6cWgSu9Em9nUixr9fKFO0Cs6ez+bPnXaHxf8p6NXLxcUYu1txTnmW3o1imft0kZV1MlbEcDhubbM+QkfMy8Dnt0O4aAxhQsmoPpP9zpWrR1DRtR/XKDzM8g21hYaFF0vIsaE1HeqdxL31s7+ul0K1xr/kE9ZqfbF9uau3n55duWg7VgEr58uUJCgrS8h7XreYqtOvsidrn9iyWqk5lzcPEBLuqziQc3s3Oty0Z07QmJo7+7NnzF43ajUmsS4ZVGSLdxRCNT0Ul/TU0rYRrPYFpux8yccL/kPCxDRGEZ/y5dgWRtfrTrb4tsbHv1F4JCTH3uRBSh40rJ1PKAASi+PfQQg5rrBXK78hkMgIDA7U2th5dXMbv9x0Y3rEZJYnmXbzmTHDmdRWISRqcTVznVdfAhwMh/ZG6FYCHH8+s77pq21/VNXoQ+l1J1Js3vLo0ESuD3hgZVOcbn5/5wdshzbVYWSGrrjAGhdxZstEHq1ScMGOeXiAi5e4M8zk/Ye3LrOT53QBO3avNzG7GnNj6B6+VAIVxavEjW/90ZOz4t+mdJBnZucg3v6NKapzRB2JWrrVxkVo0rfe5dw0oW7dZhs8lap410hu1VK0hzexs8UfS09MSlxaWGT6bqLf2ZGShu7u7uw7crnWruUjWyO2Rc93UKShQshL2BbbxurI9JQ2KYljTnpUnFFS0Tt0VWxX6/bnyT+KFmQyo1Ywmz0ypaRHC7zMmsTMiBpNffBAmjKBAmQZUkZxg/Kg9hMY70GPwUBqWCmXNjCnsjrDgvX0dhjYsQ1zkZfYe/psL784TEZE81HxOkfeSGlvjWjOBrcsHceS2kgYtBzHcxVa9VigzumqGfjfbF8mkWcNp5NoESQEnjB8m6v1UCT/6ws8+LTDJgq5fCnpgbBlQukbPFLMP+oqEojToPRzHFk5JM0TJiY9pxO2I4jlerrSxoufQftSr9J7zd46xfOJxmk35CXdTQ0xNy1LC+E76pxAREdGarI5aioiI6DeqvIhOTk55erDCwLAqQ6Qf1w2XqDGIP1Z8/vjCFbqzcWV3jT1lGNMt8cUP1ZAAACAASURBVL9PZ8CoXBEAl/qDNfemOM7EsikzFjfVqvy6QpXUOK9Qvl5nygNtHFowNpX3M6OrBFPqtZvD0XYaO4sNxhaAT/UGu/aJB+YFXXOLLy0giA6wxOUzhhaAkWkFalbO/GL8nMDAuBSNOnanXSM3vu7uRtmiRggJH/igzM0ISCIqpFIpgiDkUAOv5PG/J7nzRvfBXET0kUjOHw8iJreLISKST5HJZHh4eGTBFfhjYnt9cHsSERHRHXowsyWS/bxgsEbwB0C9xgygQbfUw1WL5BcE3oYHsOSXjQT/F520L4Fnd4oybb/LZ9Z7iORdYrl5fA1LNpzmZVKeJVWKh+3NnTK9hkckc+hiobtuiOT88Yef9cIQ0T8009HkHfc1EV2QkbWeIpkns+vkswvR2NIxcW+vcv522c8EJUif7PETNmWo72qaVS6U4h1BCOP4MbGznVM4OTkREBCQo/79Ak/YNmsq18160cmzWNJayHjun8xIAmKRvEbsi+P4fLMfhx/70LRI4r2dmLxcvM9zgoy4jGZ9jd6niAb2l46qTuWVvFAiydFFUmORlGR2nXx2IboRZgFlXBi7F4+jb4/udO+euHX9ehiHbms/OqHyE9ZdxTCgZNVufO89kN69e6fY+vQZwpC+NfT2YZwQ9zejqhVGIpGoN2NDe0bOOsbLBPigOEof20I07L6RVxn2hownaMs3SCQSuk4/TU460llYWODu7p6jxpYEQ0wK1GbAiG/po9a+H2MmDcehlHGOlSPjvGXfTI9kmkskEhp1n0dQWCzwjPVj6mNeoB8nwjKeaO9d+DZaFzXGppKUO1rk58sKXl5e+Pj4fPZ9lQupLu57AyNjitXrzrBv+2nc58P5YZwbRfXuPs9/WucGKgO7TOP2eHp6Jm6d21HFQp8NbFF7Ef1FLpcjkUhEw1VEJ4gzW1qTwN3D85l50IiR/T3VxkpWoxHqnrwdscrQuAFLb1+ncq9vKfrddgY1tiAq/CCje05iXZ2ajG/fmkXbptJlYWbOaoRTr0XsvX+fDXqUXE8ulyOXy3UUVSoxj1r463hAoFjNAuzetI8irWySZrbiuHnwKHZDptFcm2R12UoROk75i8uVhjHzrhfbpjXBQBnGxvED+WFeDfYs/Yq+85dz8fCy9E+lQSGbHmw6+oCmfd5nU7k/T3a7LyjjnnH14n3eASChUvFTbN9XmbpJxrQghLF/WwIT/HplOMVDzpD/tM4NNA3skuoh1BhcG7zSQwNbRf7SXtVm53ZUwszS+tv2uV0EER0g6qjfiMaW1kgwNjajZS8vBvWpqg5Tr/zgTuiTvBuJSCT3kMvlap/9rBpbAi/Y/4sXI2U3NPYuZpXG5EpRk77sGZLioyJ5kPevzjC1U0/2P9cYyv9NluyYBt02MCGHyyWSfeRdAzt/oqvQ6zmJIGRPcCw/Pz8mTpzIhw/i1GJGCQoKQqFQaFWHsktHABcXF968ecONGzfSP1jks4huhJlCIPrZTc6dO8e5cxd4bFqBF/u3cOTsuaR95wjYv46tp/7L7YKmSsKHO/z+4xhWHQsj78UffMhgV0skEglFyv2PiDrTGNG+zCfHKHlyYysDmpT7xB3lNWe3jMepkCFmhm4sPBiK5oTWu/BttClakZ8238/2X6FaOJ/d0aYkWOHcbgYPYhIQBOGTTcm7lxH8tbMDlqb63QTs8mmKkUSCgWF5Jmyrwazp7fh05WHc2+ssH9MCiURCceturD31COGT/VVdJ3A+LFb9GYFQ/HpVy6T7qf5SwKo6fRadJy6F1gKCEMvz/67yw1flMNbjTndGtNa8lzXdifVJ6/RcRiFx9sPNzS1LIcITDWx3GjduTOPGrZn4m4zvOrslvW6Mq2sPTvwXr/X5c5L8on1uoqpT+jCztnDhQuLi4vj111/TP1gEAG9vbzw89CvvlEKh4OLFi9y8eVOLJPf6gbu7ew5Gef48+t3T0juUhJ5aQpukh1lT9yGs2y2lnWtj9QOubdffyVyK4ORkp59w3Ju7HDsQhoGRZo8ritvBD9D/8Sdb1pyJRBBiuXVqIRL/oXy/LDiZ0ahU3mTFd3OxGX6C+IQH9DDZxA/zjhF+YyuTl5uz5UkUpzZVZ5fsFJFJHwy7tpkp8xSsCL/Lz30qZfuvCA0NxdfXNwdC+5ri0v1rKhQ0ABJ4HLSOLnXrM3nzHZQoiXx0hN3Bxahspd+T2118TxEvCESFBeDVJIABnZcTrrHITiCWsxunseW5F8/iYzk6vxi+Pefzb2QUZzdO55zVNKLjHzCiwin2nkx08I2LDWb5+GWU++k8F7b3y5FR/6CgoDQ1l8lkuLu7ax022sDInh596mAECIKCgNXDcKo2iGP3YxCEGK74b+VV+eoU1rL8OUF6WgMobmzl+wkvWXAzmlchUkJ/G8e6Iw/0SmsvL690228vLy/kcnmWFsXnBwNbRX7RPqu4ublpbTCp6lRuRlyDxD5MeHg4AJMmTUrnaP3FwsJCb4zX3EIqlZKQkHgjjh8/PpdLk7cRja1MYUhZ+3Zsvfw6lYebQMKHSO5d/5V6pVOOyekDJubVaNywMLGKB5xPmok7e2YfK387T1SeGfUrQLUm3zBiaFUun7yiNpoAYv67xvmL1tR1LIuhgS0d+rbh7sEzBPz9NyZ16mBb1BTnXis5s70fVkkPXmX8S27u2YH8WmTu/JwcQOAZh34/Q50BXjStWRwJhpR16kz999v463p0+ifQA8xs3Bk3tjfRf//DnceaQwNPuXzqLg6Na1PcsAAO7brQxOgiwTfvcfnUY5zqVaWQYQW8N51XG9MCMTwOP84e/ys5lncqvVHL0NBQAgMDdRL69/3LM/wRYMmg4W2pUMIYicSCZl5tuTpvBxF5IK3a57WOJzT4H95WrkM1m4IUKe9B969NOPtPIP+c1B+tc4r8YGB/ypeuvWrdbm4bTFlh2LBhare2t2/f5tnZLScnpzyvRVZQKBSsWPEx6/GuXbvy7OyWPpBhY+vTiEH6vmUXljU60t6pKAAf3lxi7sAmePTewNMEiI95wI7V16nsWCLbvj8rvH91lWP7tyV3NWnShzMv80APTI2SJzf+ZNfhe1iUsqSghtSmZRxwqXeb3bsvEsNrrl+8RpX2rng0aMDrPZs4dCWlQWXrNIT5qxsim7CCm7mc4NfLy4uAgIBsatytaNlrKG2dEkO/K+OeEXL/Ge9i8ob2cW+vs2PLMWIsLSlaWDPCWinqNK1CwJZ93HoTx7Nbl7mjrIejfWXqNC3JbtkeHnyiq0lBF35aMAuTo3PYcvZFzv6QHKKARQO8RnenUlEjQCD6v4c8fPqW93lgUOXzWhth51ifQhf3cvTCC+Le3OPyJQmN67tRv9mXqzXkfQNbRV7WXiqVIpFIvuiExHK5nNu3b6tfK5XKPD279SUjlUrVa+4MDBJNBXF2S3v024dIr0kgJHAHD8p60quWA0UNwKRoHXp/fZBZW6+zbJQj+ua1oHI72Z00GgogCBHs33hPb11NEuL+ZoxDc5bfiYatiYmZDShDx1HT+GViSwjfRt/W0zj9Np5hDnIWL53BpCF9KeQTjku3uaxY0BKbcu+ZM+kM3eoUY0ipNvQcNoAOFY7RaaocI0Kx8u1DwavT8frGjkPbcs/dxM7OLltcFiSUxKNbUfq1+Qqn5g0oVeQdV/7axz2zYeyuqY/j3m/ZN7MjnabKgTUYJS1/qdxoJEt3jMfZMpwlvfqx7M4d9rhX5PDfvoy+PYYa5tOwKtuVeVsXUNeyMPH9ptHuZF8qmY+kXueBdHQuiXzuAu5ExTP0h5/wsH7AWI+x2N1bo4cRGbWngFV93IsPpm27/bg1tsMo6h6Hdp+m3sitlNO7Fj9zWp+46c3i1XcZ0bIUQ99XZcj0pQxsU5Gi7/RH66wsdM8KiQZ2Z4oaQN4wsPOf9l86w4YNA6B+/fq8e/eO+Ph4bt++jUwm+2JniDKKl5eX3gRYUc1qmZiYUKdOHYyMjLh48aJ6disvuVbmmaTG2RnlJO9jQIUGPfi2U7kkwyqWiJBQXkfFIoBWxlZ2+gknup2k3J8QE80HJXrpVGpo3IBlt6P4fPDfHhx90yPZnvWne7I+2Z6CuI/YwPMRGzT29ULot+bjy2kzdVHcdMmepNXpYUhFt3FsXFWVjRsPcv26kiodZjN7cEcqFtJD0SlCxykBCFM+f4T3ltt4b/n42mHxcUYuTn6McRFHpm69ytStH/dNnTJH44jZ/KKT8uoXEklJvp66muK7N7Lt4CVeU4rBc3fQp5Mz+tfVzLzWVXvNJ6jX/E9Ooz9ae3t7ExgYmOazU9dJjfOWga0i/2mfm+R2UuOgoCBcXFw4fPhwskBQcrlcNLYygD5dH39/f3766Se8vb3x8/MD4MCBA/j5+am3vIK+JDXW22ZY/zHEtnErwrt2o+v+JjjamvH83in27y/M3OPVtbZbVH7C2cNbTm+YirfvBv598NGlrpbHYv4cDFb62O/OZ6iSVucsMZzZuBHTdoPwWdwtaZ+CPbP8eDdiHE6W+pz4NH+Q3qilVCrVWb1Qxt9k7dIIenw/AfekcYj42DPMlh5l/Kw2qUR5E8nr5C0DWyQ/4uTkhEyWmG5Cc21PXgyJD4kukR4eHrlmvOYmqRl+FhYWX9x10CWisZUFClq5MXfrMrat/4MT/97GtFQ7Vh3vT4s65rldtFSJfXGS37eY4bN2HRdWn6LO0C4UCTuEPMqDsmJNyHV0m9Q4EWX8W54+ecydq0GYVQ+jZGxSDh6eEXL/FJE3h+DUWMwLl93kzKilQOzbFzx7eZ+g8yG4hFXHIml6/X3kA67svU+4Txuqir3vfIdoYOc+ugjnLyIikj8Ru9hZIPLGDvY+bsKgiQsZBIDA41NL+O2vnoxsVSqXS5cSIeEDFvVa0tatMaUfXiKkSE1adDPkSPujhA+qha1YG3IVXSY1VvHi4jLqu04iQgn8siLZe2UqDWGLr6lOvkdEH4ji6OLuSWtgYPmO0RrvmdPc6zf0PNK/SKYRDWx9QRdrQlTtfm6vLxHJeXJrradIziA+erUinshnT3l07xpBj6wJr65KkaskJOQmgaF3GdaqFPrmnFWwpDPVX/SjoVsrli+qwIZRo/jH+Q3H3zZhdPofF9EBCoWCoKCgbAuG8SnF643in4dfc3jJYsy6TaBxGeOkdwwpYlUSc1N9q6Ui2lOY1mO287DvBeZNDGHYgs7qjjeSQpQsWwwTPQ2Ek5/I2YXuooGdnwgMDAR0N9gmknfIyFpPkczj5OREQEBArgf1EFfpaEFC3CWmNq2GU6cZLP6uCeXKlUvabGk58Cw17ctofWGzM6mxRGLLoHnL+O4rK169d2LCuBKsWn6Vb+f0pLz4QM4RgoKC8PDwUPu2ZzcGRkUoY1OV3tPm4VmvAjY2NklbCZ6c3MKZsPc5Ug6RtJHL5Uil0izmMZFQsEgJytu15effv6VmORu13tZlY/hz1UFeKtM/i0jWyEhSY6lUiiAIOuhUJxnYIfsZ2W0JVx+FERaWtIU/4NDanuJa3C8EVZ0S19WIiHzEwsICd3d30djKixgaOzPj1G2C9k5lzNLTHx9uYWE8fH6Bad0q6V3Y90TecmHbYqZNGsnQvv6U+d8sTvt78SJUQR5KxSKiBW8e+TOwWVWNXHTGNOy5naev43O7aF8E7u7uaeb/U7mQ6iZpZAzB/j9Sv1Ixtd4GBjb4bLvHO9HYymeIBraISHbg7u4uGq8iOkOcz9AKIyxLWmPe/gdmxhWksIYrVszTE2zaV4G+HSvoncEV++IkskNV+CMokMAZp4GC1GjbBln7I0T0dRDXbOUyqlFuXbuQCDxh77I/qfvdcr7qsIe7Jb+mZZVn7FgXjUs1cel8fkMMhPMlEkOwvxhpNjfRdTh/EZHMkNZgni5QrSfXNV+K26T46M0CyrhQVn8/hgWrjicGIAAMsOHbpQfog3Z5trITIeEDRiWr4WhvS5DpGUDJ25Ab3I7+Miq7vpN9IXITSEhwoG2HFpR78oI5ey1o4NqQlwHenLrekx5ORbLhO0VyCzEQzpeHaGCLaEN2d9Cz8/z5rZPu5OSU5XPcjAjSQUlyDnvrrP/m9AgNDUUmk+V6CgKxGdaaBO4fk3G52CDW72/LH4eLMahXJa74+2PTqope+mcWLOlKqxLD6e11AG5FcOOHm1zcF0yLqZuxFmtCjpAbSY0llKJR6xf0rNWe0eumYXFmKqOeVuT/7J13WJPXF8e/IYAKSoKKiihD3APiQnERtSpOQKu2yrK2ihO0av25gLo3WlxtFZxdCrhHFYJ7AyriQgKuighBGQok9/cHJDKSEEJCErif5/Fped839z3vHefec++55z498gpTRlSZGJQqggbC0SxcLrfcje6hoaEIDQ1FUFCQSgZZ1MCmiOtURSMZ6toAHaiaQXpVo0sHBesSfD5f5VGelYGq4EpQkGeI3oOHYEA/AeJPnYZF175oxbiGxScfYnibbkoZXGI/YXVQePDltsKDLxk5yM4xx5R18+A+uiOtCFWEZg41NkCn0f7YU+8GjFpx0HjldGzcdBhdJ8/DEDu6qlUVlDegFkewU8XAuzAQzi5YR2ejbac2CJifih1/8eFHA+FoDXw+H9HR0RAIBCpJjxrY1QN/f38Ayg0KxXWKujCqhtjYWPj5+dEw/BSVQLtepWHCukc3rHDh4orLBnzXPRbTv/8RTTN5EDp9pWnhZKJn0ATc8V8OviTkFY7vj0Z/TyfQYbdm4fP54PP5KgwLT/Dx5QVsWBGCJNISbt5TMKqJEZhNRmLVzpEqSJ+iKOXNWqqmzD/h4fmd2Lj7JurZDsbkmeNhalAH3VwWYLdLJZOmaDXUwK4e0GAM2oNAIKDGK0VlaKO3m85g3GwUgvZvhdfQTnActwDftM5DgbkHZk+w08qMJUSAqN2z0a1UlLKVJ1KQX73cn3WS0NBQlYaFF4keY4uPD/Zee4usNxcw12UuTj36qJK0KdpH5pNDmPrNOsS/y8WjqJWYPG0/XuXRhl29+YSH54Mw+dsJWLD2Biy6dYCpQb1CA/vQdnhzm2nd3uHqiurC+VMolOoGnfNSAlH+C4QFrcORO3no4uyF7yeao5YBA55LtsFT08LJ4VNqFH7Z/BG+24+ipUlh0RPyAsf/ooHfqyOfXschod5i3LjtjcYGeXh43B87zj/HiLb2YAAQfsqFsFYdetBttaAASXdi0HvDeaz0bg9G/guEzgvEjScTMbqjMQARPuXmo1adWnTwrWZU4QqqKGIDO5/TA+yUlZgcn4fwv36ABW3UFIpOocheT0rFoYca6yyfcH3vAkxZFY3Mglf4a7k3lu95AFWdVhQbGwsul6uWQ2+ZtYzRqF1fDBnUF46OjnB0dESvXqOxwH84TGnfXCWo89BqaTRs1xoNDRgAasG6c2fopWehMHDmJ9w8sAWXX+ZViRwU+fD5fPB4vEru4TFG69ZNwQSgZ2COLj0bQvAhHwBAyFPsDAxHBu3H1U5QUBB4PJ7cZ1SzCvLFwL5yPhyneJHwsbyJG09yiu6L8Cn3M2iR1wyq9FBjko3zQT+gnQUH7Sw4+HbqSWQWVTRh/gME9umFzs0nY3/ka4hIyeftm3sh4hb1sNAWxOXVzoKDDhYjsDX8heRe2p094DbnYJhLEO69/lzmea7jDqRoufcEPdRYRyF4i1s8Exy6fR2nDh8H7/ImfDzBw3/ixSHyGbmflF8pEvsJq+Zw05LoG7eBQ7Pr+PvYRVy7dg3Xrl3D1athWBd4kg7CqikJG7jQL3IZNW7+Dbb69yn6uw6cZ8RrWrwaQ3mHGotdSGNjKxMZLA2Te5tKDq3uPGGt5G89vbb443l+JdKmaCfUwKZoAIYxvvLbiSPbx4AzYiV27hwOVpF6Yxp0hP/lSzgYbI2d83fh9qvPhc/7BuGX+UMRGBYM1+7av0NcvCJS3YNjMA06YtmlI/hpVHtMDd6B2W7NJfcadv0OUSmnMa5pNDasOg+BsPD5JVG/YmInH+yL9oElXUVXCOpGqAR6BtZo0bzwMFhj806wa3gfOUIATODDs3+w86YjFky01ayQUvicfhcRB/fieNBvJa47jN2H+RqSifIF1R9qrAcLt0AcGGItxXWsAIkX41T0Hop2YILZq3ejh2XtMncI+Q+XLzGl/Iai2xQa2JNLXFsr+dth7D6tdm2vTqg6nL/uUwvduqfil+VHsWbDGFjU1bQ8FUO8IkIBGAYtUT/3MH7dZw1f7w7UcFACmmdKIPwUija1FpW8GFr4tz6sMe/AeQ1IVT61GrTFxM3XETaxs6TgC6MRPoMBnZzQOKo+dM+A1RbfzRqAvt0aSLlLkN6jKz41oCqgeqCHRq1dMWN4b7Q2kWZUZaFbx1TUpe28mkENbG1BFeH8xavf/v7+1SAyYW30n/wT6l7ZgODfbRHg11bTAlGURE+/HWau7Yq/Ju/A6Y4rMFKH5hIEAgFiY2NVGOVZOehISwn0jLjYut8fDaQ4Yea+vYFXVS+SQujpt8P4iSWvMRjmGDy2IWppRqQaB5vNhpOTU5U0eoN6ndC3m6y7DNS37aB2GShVhR6adu0n535dtLHXsallHUWRje48Hg88Hg/e3t6V0AXUwKZ8QVynVD1pVzlYcJo8CTc8f8PpPgtBNZBsytvnqWkM63bEd0u6Y8Hyf9Bxj4OmxVGY2NhY9O/fX+MTGNTYqiAMmMBhwjTYD+SgjpT7BbmOePyqodLpqz5yyic8uR6N9PoO6G6Tjwe3E5FT7C4RJeHwAWDJ9gmoTztltcPhcLReqVKqHvHgSNObeClVA4/HQ2BgYCU3blMDm/IFcZ0CVOmKXnkM6tnDN3gU5o1bg9rtGeD21rREisHn8xEaGqplxqsm0YN51wlYOGkdli04iLp5LTQtkE5Bja0KY4qeA01l3tWvY4MOLZVPXdV+wqKCh9g5zR237ILx91pDLHX5BsfflYxA5zB2n8reR6FQylKegU07dAqFoutkv76DkF9fYOzSESWu17Xoj1kLbsFn5hNwp2hIuArC5/O10nitGvLx/OZhnH3UFVM9igczMUC7Ed4YcmEuQnJtNCadLkKjEVZz9PTtsSg8CqHrRqFxQytwZx1HloiAkPc4vnYMLPSAhKPHkK1pQSkICAio0rDwFAqFQlEN3t7eiIqKqhnBMUg2zgf5YMz0I4g9sRg9mxWGgHfovhDpVpa498s0jJm+B/6jZxaFeTdA+xHfY+73zctNmlK1CPMf4Oe+Y7D22EPsmDmyKJx/d4wdcw0tuwqwvO8YrPprKzyddiIlj0CPaYGvF85GX2u6VlMRaG5Ve5hoaN0RhY6NXTB3qfh6fYxYcABRPRwwf4c5jDUmH4VCoVAouo2mN+BXKQxjfOX3GxL8ZD1Q9h6D2Rhu/ivULZnO4ufnh9jY2CrfZlAYqv8q/GXcHyTlnnHT3lj+h274g1pbW8Pf31/jq5N0ZUvL4PP5CAgIqKIGVxstenHRvjbdrFVVVPWhxhTdQDWHGlO0AR6PJzc4BlDDVkEoVYK4TlX3c6GqK7GxsYiOjta0GNUOa2trBAQEaNzYoitbWobq/YSFeBi+HS/sfsAQWynhgYV5yBOp59TLjx/pKfEUClD+rGVoaCgCAwMRFRWl8U6Bon5q1CoIRWGioqIAKBcoh9Yp1aL6YGWUmgw1tqo9BHmf4uDcUlrsxELUESDDw8MDDx48UHm61Rlra+sqCwuvDthsNgAgLS0NDRsqH5FTV0lJSZF5j85aVh+uXbuG4cOHa1oMjWJra4tXr7T1kBPNoIpw/nSiRXughxpTVAk1tmoEdTA18Df0a2lU5o66Dr7MysqCSCRSebraztu3bwF8MTwqgre3t067gIhdop4/f17jjK3g4GD4+vpqWowqQ1y/3759iw4datZ5bRkZGTA2rtm7XB0cHOROLlRX4uLiAECq+6dqwvlTKBRVoi2HGtM9W9UeJiwdfLBs3neYMGFCmX8TJ06B37SeKj/40s7ODgcPHkRaWppqE9ZyoqKi0KpVqxq5F0P8zTExMRqWpGq5efMmAOkDsOoKh8NBq1atJG5PNYW0tDQcPHgQ7dq1k/mMn59fuTPiPB4PAQEB4PP5qhaxSmjUqBGCg4ORk5NT/sPViGvXrqFHjx5KTaapG3Gdouc46iaK7PWkVBzxocahoaEalYOubGkZqvcTZqC+rbyZZ/UcfOnq6orAwECcO3cOEyZMUHn62khaWhpWrFgBLy8vmc9wudxqq1DZbDamTp2KnTt3wsPDA0ZGZVdSqyP79+8HUFjnlUXsQqqNgzhZ9OrVCytWrICvr2+NWck8d+4cAPllrYjLqK6vgri6umLLli2IiIioMfqdz+dr9Qq2socat7OoOZNEFUFbVkQqAi1L7YWubGkZYj9hXWncsuBwOHBzc8PEiRN1dva2omzZsgUAanSkwW+++QaxsbESA6S6Ex8fLxmAyTOUypu19Pb2Bo/H06nVMXE9F9f76g6fz8fEiRPh5uamU+WkDrhcLsaNG4f169fXmNWtjRs3AihcuawuEELU8m/btm2wt7dXW/pVMWGpLSsiiqKufB4yZAg6dOigs+WoLVBji6I2li1bhjZt2mDJkiXVvkM+dOiQZJZfWUM5NDQUXC5XZ5S7NLhcLiZNmgQfHx9ERkZqWhy1wufz4e7ujhYtWtRIA9va2hq+vr5YsWIFDh06pGlx1EpOTg6WLFmCNm3aYNmyZZoWRyuYNm0aYmNjMWXKlGqv33ft2oXg4GD4+/vL1O+qCOcvDrKh6xOUixYtQlxcHHVp1HH4fD4uXLiAhIQEWpaVhBpbFLXB4XCwcOFCHDx4EFOmTNH5DkQWu3btksx4BwUFKZ0On89HdHS0zufTpk2b4OzsjIEDB+L48eOaFkct8Pl8uLm5ITY2FkeOHNEp9z9VEhQUJFnB3rVrl6bFrN2rEwAAIABJREFUUQt8Ph9TpkzBwYMHsXDhwhq/qiWGy+UiJCREot+rq8G1fv16+Pj4YNKkSXInVaytrcHlciulC/r3769TqynS2L59u+TYl+q0CqhuQkNDtW7SzsfHBwUFBRCJRPDx8dG0OErBZrO1IsozNbbkkJGRoZJ0KtIJCQQCpWa22Gw2nj59WlHRpBIfHw9ANRv+vb29ERISgtu3b8PGxgaHDh2qNkEzIiMj4ezsLOmI9+zZU+5vYmNj1bJ6pU0DHTabjT/++AP9+/fHqFGjMGvWLEkQCV2Hz+dj/fr1sLGxwcePHxETE6Ozg29V1Zk9e/ZIVjOdnZ2rzYpmWloaDh06BBsbG9y+fRshISEKRQtVZKM7l8uVu0oiDW1q42LE+v3gwYPo1asXDh06pJVyKoNYvy9YsABz5szBpk2bNC2SXMR1StPhyhctWiSJRBwfH09XRBREfNaitiBe1RLz9OlTnSxLDocjOZJBk9AAGTLgcrkIDAxEUFBQpTd/iyusIkpQ7Cfs7+9foVkOLpeLOXPmIDIyEgMGDFBaVgD4888/ASh3sKI0vL29weFw8PPPP2PixIkAgIkTJ8LU1BSOjo4qeUdVkZCQAIFAgODgYACAo6OjwoMwoNCYjo6OVlmHKA5Esm3bNsyfP79SaYlXJlRR7mw2G5GRkQgICMCBAwcQHBwMDoeDPn36gM1my43mpm28evUKKSkpePr0Kc6ePQsA8PLyQkBAgMJ5FRoaCj6fL7NNBwQEKHSosdiw27VrF6ZOnVrBLynJtm3bAFQusAdQWNZ79uxBv3798Ouvv2LgwIEAgJkzZ+pcWQOFEecyMjJw8OBBAICbmxuWLVumUqOay+UqrAPEfdH+/fsrXebiNq7KbxGfK7Vjx44S+t3Gxkbnyl7c1pXV75qkInVKEZKSkhAaGgoXFxd06dJF7nM2NjYASq5q6enpoaCgAGvWrNG4AagM1tbWWmG8VhXib+3fvz+AL6taenp6EIlEktWtR48eaVhS3YQaWzLw9vbGn3/+CXd3dyxYsACNGzdWKp24uDisW7cOgwYNUmuj9fPzw6lTpzBw4ECJIaMM4gGlr6+vSjtkDoeDsLAwxMbGIiIiAgkJCUhKSpJ0arqCo6MjrK2t4eXlBVdX10q7jVQWDoeDOXPmYMGCBbhw4QJatWqlVDriwaWbm5tKBxYBAQHw8/NDREQEeDwe3r9/jzt37mDFihUqe4e6sbW1Ra9evWBkZITNmzfD1dW1wgZpQEAAkpOTK+0m4urqCjc3N/j4+ODSpUtKt3Nxec+ZM0dl7dzb2xuurq7g8XiIiIjQybIGgOHDh8PY2Bj+/v5wdXXV+Moll8tVaZm7ublV2sCWJiOXy8X//vc/hIaGIjU1FRcuXNC5she3dWX0u9gjxdXVtVq4FbPZbERERMDFxUXmM56enjh27BgEAgEEAgHmzp0LfX19DB48GI8fP0ZqairOnj0LPp+vcTeuimJtba11bn3qJDY2FiwWC/379wefz8fZs2cxZMgQtG3bFgDw6NEjnD17Fjwer8YYoKqEGlsysLa2xpo1azBv3jzJTK2yDBo0COvWrVORZLL5+++/ERQUhISEBGRmZiqVhpGREcLDw1XeGYvhcDgaH7xoktjYWADSDz0OCAhQSrlv2rQJdnZ2OHbsmNLlnp+fj82bN6vFx57NZuv8gc2VJTk5Gfb29uU+J3YzlUdYWBgCAgIq1c7z8/PVMmPPZrPh6uqqNv1RU1FFmYtEogp7TFQUDodTqX2ruow49Lp475auY2pqiuTkZLmrWvv27YOTkxMAICIiAgsXLoSfnx+CgoLQtWtXSZ8WFBRUY+uFrsDn8+Hv7y/5/6SkpBIG55kzZ8Dn8yVjGErFoMaWHMSDhtjYWAgEAqXSqOgZDeJBuDIVms1m16iZGF1EXI9UbXDWdGNGmxGXubzZbrGrmKJ6hrZz7UW88ilvcCnemys+6kMRaJlrN+L9LJpawVH1uVBRUVESQ0ra4eVidzMxsvofWm8VIygoSOlxZmXJyMgoYViX1kl8Pl9Sv9lstsb3blUkn3g8nlJbc1QNNbYUoCpXYjgcjsR9hVL9ELvVUWoO4okTeXpEHDGpOrgf1XSOHj1a7ipmbGws3Nzc4OXlVS1WQSiQBLXSlLGl7H5vWYjP/VM2UJi2BXwAIFm5UYSqPtRYkx4/YsO6+P674mjbcQRsNlvhvlJb5KbGlhZCZ4JUSS4SeP6Y4/ELLry2xvcb92GTX3fU0aBEdEBds+ByuVJnhosjjphE0W3EZVjewElsYNEyrx7w+XwkJydLVoKURRWHvCqzOsJgMMBiscBisZCSkoKRI0fC1NQUR48ehbe3d5lVLDF79uwBn8/HsmXL8PPPP5e45+3trdNjmdDQUMyZM0dt7vWawsnJCRcvXoSlpSVSUlJgaWkJX19fybEz0owtXS5LsbGl6UktGvqdovPs3r27zOxbWFgYnj9/DpHwPg5vsUDwgw9IuuiM60sCcexetoYkLZ+IiAhYW1vr9Dkr2gARJiI80AlmTAbMLL7Bn3HpGpVH1ZHCKGXJfnECq306wojpiJ2XlNvXVFkiIiIAKNaxu7i4IDk5me6BqATa0s7ZbDZCQkI0OiAVG/jKGvBhYWHIzMwEi8XCli1bsHfvXsTExEgdfIv57rvvkJycXMbQqg4oOnGia8TFxZU4GzIkJARz585FZGSkTKNalxHrZE0HaKHGFkXnMTU1BZfLlRhcYWFhCAwMhKmpKfSYDlga7ouWLAM07fktRnS8h8TkDxqRU5EZR2trayQnJ9PNxOVw9+5dzJ49u8y1jRs3AgAyH4XhkvEGJAv/w+4fnmK57wG8FGpCUooqmDVrVom/MzIysHTpUsnfWS/2Y+bX3ohmzMDF51Hw6cuqahEBQDJJoogbuPgZ2tZlk5GRUabsnz9/Lmn72tLOxUGANDmhwmazYW9vj7i4uAq7Tl24cAFz5sxBZmYmli1bJlmJl2doVWfEeypZLFaVlmlERITat5CEhYUhNDQU9+7dw9KlSyVGpbxAKLqMuF1QY4siFYFAgICAAIlVTpHN6NGj4evrCy6Xi7t37yIoKAg8Hk96iORcLrp2Ui50cmXg8XgKrVhxOBw4OTkhLi6OuhjJoUuXLhAIBJJB1927d+Hm5iaZmWN3mI9N87rDCI3R72sXGMc9xZsPBZoUWWF4PJ7GNkprK9bW1vD09ARQOAAXh0Mv5CWOrP8Zj203Y3/wNHSzqq0xOfl8PsLDwxVyFXZ1dYWXlxcNbCMHU1NTsNnsEmVfPBiQLrdzdeDn5wcvL68Ku6pHRETg3r17mDVrFthsNvbu3asmCXWDiIgIZGZmVvne+YiICBw9elStni2xsbE4fvw4+vXrBy6XW+3LmsfjaYf3AKFoJUlJSQQAYbFYJCMjQ9Pi6ARLliwhAMidO3ek3C0gKZfnEvf/RZGcKpeMECsrKwKAREVFlftsVFQUAUDs7e2rQDLdZuTIkWTDhg2kb9++MsqdkIz7gcRp1F6SWlC1soWHhxMWi6VQmYsJCQkhAIivr68aJdNNPDw8iIeHB7GzsyO7d++WXM9O2UYG1zMnlm0akoZ6IA5fbyNPM6u4sClqRVbZF0dT7VzXuXPnDgFAAJB+/foRAGTWrFmVStPf35/4+/urSMKqJykpiXh5eZGkpCSlfu/k5FQhvS9G3PdbWVmpbdwnLms7OzvCYrFIv3795D6v62WpLVBjS4vx9fUlAIiLi4umRdF6EhMTiaWlJRk5ciTx8PAoc/9jyiEy1TuCvNNAR+zv708AECcnJ4V/4+TkRAfcCpCYmFjO4OAtiVg4lOy4+K5K5crIyCAsFkthA1va72JiYtQooW5iaWlZpn2/vTybNKvrRc4k5ZKPKfuIRwdzsvLYaw1JSFEXLBaLuLu7y7irmXbu7+9P7O3taVstRU0foCtrbBFCiJeXFwFAvLy8VCyVctT0slQV1I1QiwkICICVlZXal5V1nYyMDLi5uSE8PBzHjh0DACxbtkxyP//DJWwKIFj+uwsaIBGnQ2KRW0WyxcbGIjAwECwWq0JlyOPx6F6OchCX+4YNGxAdHY3IyMhST+Qi/tgGPHfchil9G1apbK6ursjMzKxwaO/iZ+W5urpSd8JieHp6wsvLC3w+H3v27JFcN2Q1QNNaVrCxqI26zUfg67GNkZiUClEVycXj8VTi8luZ8xyrO56enli6dCnu3btXouwL0Uw7Fx9izOfzVRZhVnwIsKpcyKkruu4RFBQEKysrTYuh02jluaOatvYo8omJiSEASEhIiKZF0Vrc3d3LuJa4u7uTxMREkpVyhMwfbSFZOteDOfluSywRVqF8vr6+JDw8vArfWDMoXu7p6enEzs6umCthAXkdu56sCn1MhISQrOSz5Fzs+yqRa/PmzRI3UGVdQVxcXAgAWm+KELuREfKlrI8cOUIIISQv8xSZ3qo7WXUsiXzKPEWmt+pTZSscMTExkpVIZV2OCCl0W2KxWJWqM9UVaWV/4cKForuaaefFy12VfbO4n1LFSoLYJdnLy6vK65Qurob4+vqqbIWyMitbhJBK6RJVo0tlmZGRQZycnCrd/6oDamzpANpUYSiaISQkpFLKu7px584dsnTpUhnXcsjDqPlkSLPaksFLXf3h5M+4rCqRLSMjg7i4uFSqw8zIyKCGVjFmzpxZ4u/09HSyZMmSor8KyJu4FWRIs9pEX68t8dl8s0r2ZRYfcG/evLnS6RUfJGjTYEuTpKenyyl7zbVz8R5cVQ9CVWlsxcTEEHt7e8keoKrsP3RpgB4TEyNpe1ZWVipJs7LGljQ05aqqK2Up3iOtjYYWIdTY0kkyMjK0riJRvqBqJSsOlqKOzp1CoVQc8UZ2qDCYidhIR1FgJGpwaS8xMTFq0cWq1vPF61RlV18rgq4M0MVGlqonOVRtbIn1jZOTEwkJCalS3aArZVk8uJQ2jo/11eukSFEH4pDwAQEB2ueXWoPh8Xjw9vZGcnIyoqKiVHY+h7W1NUJCQuDn54fAwEBEREQgKCiIHpKrBQgEAgQFBYHD4ag9TLCfnx/YbLbkvxTNweVyYW9vDz8/P5XpYDabjYiICPj5+SEiIoKWsRYhEAhKlAeHw9GJw27FdUr8r/RZQ35+fmXCYpfe5yXtGbHOExMaGlpiTzKfz4ezs3OJ38TGxsLPz6/EtdJ7a6Q9w+FwyuxfLt33SXtGkW9js9mwsrLSibGUlZUVoqOjER0dDQDw9/cvcYi2IvkLKJZ3xZ8Rn9lW+sBuRfK3dL0Ayq870uQu/W0CgQCurq4lZPL29tbudqlpa49ScYrPVFlZWanEhYWiPFFRURJ3DRTNPqlj5ikpKUkyE6cLM03VmZiYGOLr61vCbUGdiPf0oGjVQ5X7Cyjlow0unbS8q56QkBDi5ORUZUewoIo9GMQ6pfi/0hRf/RH/K71qI464W/xf6Wh6xVeDZX2ntGekRfFV5BlpcpdGXStE6nAjJORLv+Pk5FRGJymSv4Qolneln1G0XpRGWr1QpO4oUi+0JVqjojAIIaSyBhul6uHxeAgICEB0dDSsrKzKnBhfOrIVm80uY/FLi35VetaDz+eXSZvD4ZSY5ZP2jLW1dYlZNIFAUGYWpPQz4u8qjjS5pUVYKi23qr5NEblDQ0MxadIkODk5ISAgQO0rTqGhoXB1dS0hZ2hoqCQqlji/alI5Kfttishd+hk+nw8bGxvJ315eXggICFD7CfUCgUCy6pGZmSm13StSLorkubRnFMlzZdqPqspF0W9TRG5xhEHxgZiZmZkICQnR2Ox3REQE3NzcwGKxwOVyweFwwOVyS3xbVeejLtQRReUu/Yyfnx+2bNki+dvKykpyML06YTAYAMquWugaYtl1+RsqA5fLrZKxQFVQ08tSZWja2qNUjqSkJKmzrlDRzI86ZyZ0YdZFUbk1PessPpujppaTst+m7Kypl5cX2bx5s0Z8wzMyMsjmzZulrmirqt0rO5utTPup6tnsitYnFotFvLy8NNrGo6KiiIuLS4mVCE3noy7UEWV1jouLC7GysiJeXl5VGljCyclJsi9Hl9GVfT7qQl0rW5qgppelqqB7tnQcaasOQOHMWOnnSuPt7V3uzIu0+6XTkvZM6WvW1tZlZJL2O0XkLv2MNFT1bYrKrWk/YbHPefFZ25pUTsp+m7JtR5Pn3on3bUlDVe1e2jOK5Lky7UeV5aLK+sTlcqWunmiC4qtYss7jqup81IU6oqjcpYmIiCg3HXVAz8WiUKon1I2QQqFQKBQKhaISxK6j6na71FaoGyGlNHRli0KhUCgUCoWiEmqqkUWhyEJP0wJQKBQKhUKhUCgUSnWErmxRKBQKhUKhUCgqonT0TF2Fz+fTlUoVQI0tCoVCoVAoFApFBXA4HMlB0tWB6rD3TNPQABkUCoVCoVAoFAqFogboni0KhUKhUCgUCoVCUQPU2KJQKBQKhUKhUCgUNUCNLQqFQqFQKBQKhUJRA9TYolAoFAqFQqFQKBQ1QI0tCoWiAKk4uqQfVh1/I/eprORtGNo6APGZQjlP5eLuAReY1xqBv+5lKyFLBo4G2GF04GWUfUvxe6k46u+IefsSlXgHAAjx8soc9Bm1D+k0jBCFQpFLob4Y4XMcH/P/xYym3bHzUmaZp4jwITYN64qdl9LK3Mt5sR2DTQzAYDDK/GtmG4An+aqUNw03wmfCuXkdMBgMGDOdMDeIhzR5qlvjyNP9ylDZPKi4PFVbxmXJerEfkxzrw4BhU4m+UfWI8s9jZpu6JfLDmOmExXvjkAugcmWfh9gDI8Cq5YF/U/JULbpCUGOLQqGUgxAvr6zGkuNj4DnMXO6Tda288dNMHgI3XS5SkGURCe8jPDgGjdtfxzneM4hUKqspXALuIcy/D/SQjqR4+cahfIRIS3qK/NoMlUlHoVCqJ/kfzmHNpAR4TB8AY8jWGQxme3y3zgU73IPLTEoZNZ+Ocx/yQQjB28uzYc5ehsd5BIQQvEwMQGsDVUkrROKpOXBfo4dpJ18Vvo//PTL++Bo/bYtTsU5WJV/0O7PSaakiDyouT9WVsTTy8Cz6L/ybOhvxeUnY4GmrzpdVGNFHA/y49xkIISCkAI8vdsGpGYtxTKlJWe2CGlsUCkUuRPgYf28+jW9XjEMzJkCEiTi5ZQw4RkwwGAw0tBiLHbyUos7JGJwBA8DfehgPMgqkpvch4QzC3/lifcAQXD8cjdeS8UYGjgV2hsPIoeAYMdGBuxXJeSkID3SCGZMBA2Y7TAu6JTHiUh4cgJdjfTAYDDiMXYebKZ8gnv1yCzyJsIBxmHMkGVu8vsK8fYnI/3AL+5b0laTl5X9eMoNJhIll3sO/Mg8jvE7i5j+eGDp+D87sH15i5jH1ii+amvrjcf6HMnK/EGaUmDH9Ih+FQql+5OL+sZ14MngmRtoZS66+eXIBq306lpqhB0zaOWOU+R4cvZiqYPqFunHy1kIjQPDgZ3Qzblr0txCJpzzQod9WvBQK8fb+HswdbSHRzevD70uZ+PqABzfjUN+qO/p2qg8AqNt8PHxn9cT1sGi8Ej7F5nFNi60ilFxVkKYvc+Vcl617hfjv/laJHv/Sl8i6/kWOHMFfmGg2TOIdIRLexNKellh1/I1cXa9oHiR/OocZTcXpZyN6a1/UMxB7Y7xE6Iw2+G7rRYQVyVOAR9g8rim6j50Pv6L8r7jel94HSu9v5b0vDZf3fSv5jfh66pX5GOF1Eq+eB6J7XQ+cS0kt1U8tx5m4dKly3IieBQtjV0yZ3A4MBgNtei/HzeRoBI5pBiajKUbMjCjK4zSZfV/qFV/YdnfBiJ7sYnkpCyaaOgxHL5NEJCZ/KHVPXj3PRQJvgeT9PcZux7PMkqZzVvI2DGs0Hn/GpcvMK1VDjS0KhSKX3Nc8nPu3O7rbNwAgxPOzAfBcVA9rH2ZDVPAEG8c8wsrJe/CsyAgxaeeMIW2O4t/L76Sklo3YyEj08P0KfZ1GwT5hF/ad+rL6RIgQmem9cPBNHuJ5M1BwfjEmrzPHL3ffIemiM64vCcTRe58BAMlXBRix8xnyMk+h54v12BXxWDIbyQALLgF/Y/MYK/juPY8NnvVwepMPVkT1RFhSLjL4i0COuWPtoacQFX1T6ffcqLccJ/YOh8PYfTj9lweaMGTPVpeWm3H9Z/i434fT9gQUFDzBDPP98Fv4D95ptYsOhUJRBoJkXIyIg51DOxgVXWPUS8CZM/9h7NqYMjP0eswO+GqCFaLO3kGOQm8wQYfuHYsmp/LBj72JOzlvkPLkBXLxEfG3HqDn104wyz6HFV6L8b7TXrwr+ATer/VwyN0Pe8u4LJqg66CB+HxiFWYt3oVNW3lIExqC434C8bzZaMaUp6ik68tj9z5KvX703guZulcovINtPmvRaPoNCEkOzq3NQ/CyCLzIuy31+ivhl/WjWuzeGDQuUeId8SHhDM4+dsFXffTl6HrF88Cmdnt0dxOn/wJ3LyciT5SCxOQPEOU/wq1wWwzmti6zosW/+gI9/e9L7ZcUQVofKK2/fZpnIPN96Q+2Y87sWkW/iccE/R3YFfEYDXuvx4m9w2HRwh+3skLR/sVqTPX+Dy77Hxf1U3/Dd/o2PMgsLcds2OjrQS/vMVjcYygouIHxhlswvFcoem58hvf3ffA2dB0OX32Pl1dWyu378u9lYcT6Z/iYfwLji01MSKtnr2+eRGzn6Rjn1KjEnfwPsut5nuAYln8dDpsfL0KQeQo9Xvhj9d54SRlkCSLx06C96Lt7LcbZ14dARl6penWXGlsUCkUuWSmPcU+vBazMDQEwYTtsP95nh2KIdW0wmFawd7Aq8bwesylaOtTC7buJZXyr8wQn8NtyIwzmtkRtdm8M+TavzIDDsnNn2LCYEM88tho+HIPtGqJZ782IyTqBb+xqAQA4bu4YZV8fBiY9MdDZHBkZHyFra5VIyMftyNcYNdUHfS1ro27z8Zj7YzdcPH4dGSRb6nvG29WpUD59kfsTEu/chuHw7zF1hDWYzFYYO38aTE6eQ+wrzfiLUygU9UHyX+LpVTO0tGn45drHdpg0eyJasgxg0XsqPJ3jirlN10azltZIOHoLLxXao8NE814jwHl0Cw9ffUBK4itYtmmI1/eeIy3/MW6dfg9bm0bIvH8GR599jZl+XDRk1kKH4QvgOTwB5yIfldLFTDTrvQFnri+FU4Mz2LdwIMz0i69syEO6Xh5vVyD1+rgOb2Tq3nQADMPPiD52ELuPPEE796OIvzgbzZkMGdeLf4U5+g53wPXD0XglzEVc5L9gTRyCdiZJMt8nKNFBlJcHhenHX7qHtPwXeHaZhXZ2r5GYlArB46u4lWuLFs1rlcmdL/1SJ3R1YMvtl2TxpS8pv7+V9j4RAOTfwL5fD+DfB+bw+yMJu2fblxjwE2Tjzr8XYObhDS+upaSfsr5/GpfuZZWSoxBGna8wboQNmMxW6OrUFBy3MehrXRsmbXrBwSQfBHnl93212qNrR7bU79arl4+NXi2L9mzpo3mfILwTpOCNoGQjyZBTz9/HX8XVnJ4YPdoeLJOh2Hr9HXbP7gQ9AJ8K4rBq8gTc5szC1BHWX/KjnLxSBdTYolAocsjD66RE6NUvvqqThuv/bMSGjQFY6dMZnT1OlvqNMdj1pRkqQry4egLn0k/jG/u6YDCaw/uXZ7gXfg7xxVwO65mxUQsAwVs8f5gGiw42YElZVBI/pxCiD0h/+7GYIq+Fzh4n8epOItLy38l9j6J8kScPgvRM3PzHEw30ijb6Ws7AxaxnSEyWtZONQqHoKp/+e4JnWaU22zDawNaqUA8y0BgtOpoWG3gzUY9VH6Isxd9hwLZHt97Xcf3uDdw6/R7fzF8GzqNbiDr5T9GKTn28TkqEyKwBWHX1v7y3fUMZKTLRxG4CpvwYjtgcIbJSjsOtwV/40fcAXgpl70CSpZdl6ms5ujdD1BXTt2yGS4N/MOVrDkyKXP7SIf16Wgm5igzQhDO4dD8W5w8lo/+QrjCWp+vLeLbLzwPzTo5gR97EjStRuJXTH7NmcfHg0nWcjzwL1sQh6GBatsP40g/I6gfLp2TfJr+/lfY+047T8cshN+hHLcAQTv1Srv5FkMJ+r/i7ajdpjZZ186WkXUgBs76kbkm7DxSU2/eVTqM4JfdsEXxM2Yfeot3YHHJbMllAkI9XMuq5+F6BuW3R5HBJCkRpYDTpgc/nLuBWcqGrIFuRvFIB1NiiUChyMERTG1uIJOH4cnH3wGR4bHiOz8bmsP3mGO7uH17qN9kQpEszKt7g8vF7mBPxWqJMP2f8iYGfT+PvE0lllJtYgb6KT0KmCqIBko/NsfLYl3eLNyS3MayvwHsMSuWDNCO0JF/NOI7sYu/KEV6DT19W5T+EQqFoFaUHqQAA8lgywCR4i+cPMmBqWq8odIYQHzPToVdX8Xcw0Bxd+jdB+N4QXH/iBO4AR9i2PY9Ny/aCNXEIOprWQlMbW+i9e4/MrIIv731YNuqhSHgTy5waS/aAAYBx8xGY7DEQ2TdvIeFV/RJGWvF0ZOllefpalu5tbcBEEzsPLN4ZD0Le4fLhgfjvl8U4fDVL6vV/rpaM7qhfzwa27e8gaOnPOPHADrZWJuW8ryJ5kIfaTbuhe9swbFwRBr1BjnBy6ISCs7uwePmjQsOuwmtWFUWR/lYaDdHTZRX2XktHXuZNbJr0H1Z67Maz/GL9FcMMLdo3xMd3AnwuuiR10kAJVNX31W0+Aq5DmuHjOwE+FbUcBgxgIaOei+/pv0lE8puyXiR1DQdi+bZf4TfxGnaH3Cja4yUrryqRAVKgxhaFQpFLXcs2sBM9L1Jen/DiWRLMbHtiyg9TMcL2KrZuu1rieZHwNZ7d/IxuXWxL+LMLHuzBtj/7YVAfM8k1Q/YITF3WBKd2ny7hj1+ICTo62OPpyZM4dy+9cFNr/faYRMrtAAAgAElEQVRYefytwrITCJEhyAIM7DBkihEi9u3HzZRPIMKn2Du7EwbNPIFsGe9Zdfw/AEBWagZyRIAhqwEs8i8j8noa8j/cwNHwWBlvLdwL8G5/KPbyUiBCLh6c/A6d2bNwS0bQEAqForswDJqhVa93eJb0xbBh1EvAvh3H8E74GfEn12HfGXsM5rYsGnR9wstnfLRz6Y5mCo9tjWE/YBCYZ8OQYGqLFs1ao+sAMyTcrwv7or1ipp2c4dLyMIKDeEgTv/dkOwwe0LaELtZjdoLrDz0R/tNy7Cqaxc//cB1/HbiApq6D0dnCCOz6LMSfi8KjzHy8vXcEZ69lFP1alr7Mlnp99ZkmMnXvR+FNLO1tURRIwxRWtuYAGqBevYdSr5uySmaWHrMDBo5pjVsnziCv22D07mAMPTm6PqcCecCxMCzcWze+BaIvPEbTjjawatMbjuZPkPphWNEeZnVTfn8rjYwHP6M7+1v8GZcOAxMbNDerDZZNAxgVG/EzYFyinxIKn+Kf9TvA7zQUfe0qMAtQDAaMVNr3Zb04gSNHU8Hp0QZ1ihm28up5gw690MvoOsLC4pAtjEfQBEsMmnkSH4t+q4fGcJ02URLES6BAXqkCamxRKBS51GnKxeBBt3Ar7j0AUwycPB9tknzRSJ+BzuNvoMMYJ5i9vY2YhMLN3+KNysWNKnFgjE6B36OraXEXgsIBhPHtc7gSX3qrOBMthgRg94I3mNWlAUxbBMNs1lZMHdZUIbkZsIKTaxccm8PB14FPMHjuTsxscxzDbepAX98Jf+RPx+r5X8FYxnumDLNEy75DYZ34E3q2DsCblpOwaH4BlnLNYN5uK7JbWgF50mY2mWjWezF2hTbBUY82YDKM4LbSCHOOzyv17RQKpTrAgBX6udrj3s0EyYCefGyHrwYaYv04W3CnfMSUE9sxtigggEgYL3F7M5KdbBmMmrVBG7NaaDe0G5oZGKOjgz0aGnZAd04TAICByWAs3vs/4Nw4mOnXBnfKR0w4EASvvqVdCeugi/tunD4k1lEM1GaNxknMwNbVY2HGrINubnPg0mQXOrINMXK5AG271y/6rSx92UyGvu6IoTJ0bz1mV8zY+RNy/hoCI4Y+bDufQ7fNqzGa4yD1uotdacfxwv6jq5E5eo52QlMmADSS+T6jCuUBIN5b10i/E7p1sYWBQVt0H2KOZo7d0c6irJua6pHT3z6SHVrFtON0bN4KrHE0A4Nhhql/t8eqYHc0Yxbvrwr7qeBfDLBrmA309Vtj25tx2LJ9Bjoq7YChX6m+r+SeLQZMrVeBMeoAfprQqoSxIq+eG7JHYelhNyRt7Ie6+h1xKH8mVi74CvWK/Z7V7mtMcD6BnfvjYSIzr5TNA+kwCCH0uE4KhSIHIV5emYeh061x+q5vOUooG7ytw7EfW/CbGjaZUigUijaS/+E05nTbgr6Hj5QTZa0wdHsfFxOceeKn8kEdhULRPuhYiEKhlAMTzXr/DytGHikRpl0aWcmhWBvMxVyvjlS5UCiUGoOByWAsDGmH/dsj5YZzJ8KH2LPgKGaGqn72nEKhaCd0ZYtCoVAoFAqFQqFQ1ACdfKZQKBQKhUKhUCgUNUCNLQqFQqFQKBQKhUJRA9TYolAoFAqFQqFQKBQ1QI0tCoVCoVAoFAqFQlED1NiiUCgUCoVCoVAoFDVAjS0KhUKhUCgUCoVCUQPU2KJQKBQKhUKhUCgUNUCNLQqFQqFQKBQKhUJRA9TYolAoFAqFQqFQKBQ1QI0tCoVCoVAoFAqFQlED1NjSKgrw7ulZXE34oGlBSkLScS/sPF5kizQtSQ0hBy8e/QehpsWgqAmC7FdPkZFPNC1IlZD/4T6OnX6MPE0LQlEhNasO11hIBp4+zqxkGul4wAvBwbPPQUcQlKrtD7RnTC3H2MrD82s7scKnI0wYDdHDbTbGjRuHcePG4ceZQzCgowlGB15G+uM16FuvOzae/a/qpJYDIe9weZ8n+rQwAoPBht1XS3EpOUeJlArw+m4wfgw4A4EMDUHIS4QHTME/t9/LlwmPsHlcU5i16IXu/QdgWB9zmDDYsO0+FH37dkDvDiZoYu2JRUuc0LW9D8JuvVNCXvXwOe0kFo7qhL7f7sWj9wVSnsjBlZ0D0KzVfNzNqN7mQV5mNFaOG4zpvk7g1PsKOy6qopwIPqYcwjQnS3AGDMewPuZoZtcfrlP+xJsKZicR3sWKYU0wfO5ZKFPjFamnzWwD8CRficQrTAFe3V2LMdzvMOvb1mjbezkeZOpK/SqpO0T5j3FgYQ+0sBuEoc6t0aZOR9h3m49zCRUtpcq1NUXK18J2EQ6fXoqlO24hR+lxdOH3zw04jH8jpmFo155YGXITWaXSU1R/UhRBvXpYW+owkIfYAyNgwLAFZ8BwDHVujbb1mSXqNJvpiJ2XKmkgKCqNWvoE9ZH7XyT2bpsM51bGYJsNxMQfF8Bvtgtc7MzB/XYtribnAgBEefE49PMQdG7QCD/9eV/pib+C7KvYtnACfhg3BUeuv4ZqTPPyx2bqp+aMe1RHFmKPTZfZHyiDvDEPIa9wbOVA7RlTk3J4e3k2sdC3Jj/ufVbieubj1cR90UXyKfsG2Tk7mNx9/bm8pKoAIXl5aTGZ/8ttki0SkY+vw4jfIDPy1YzjJLtC6eSTV3dWE6+Zx0mGUP6TIlEKOTjdjRy8nSb7GZJANvYbS44/LZSidJ7mZ50hM9suJTeebSWD69mUyWvN8pnE7B9OTAzdyblkaWUsJKn3fiXLNvCIoCivPmeeI3NH7yfvRcq/VSR6S04s8CLnkvOUT0SlvCIH57YjbgGXSL4olVw9tIPc4udUOlVRwR2y3LkJ8Vp/i+QTQgjJJvePTSadGywljyv86enkyt7/kf3RL4kyWa9oPa24XBXnc8YR4tWkK9lxUUA+C26SA5sjSernSlSoKqO07sgml3f0J+36rSfPP4sIISKSmbyPeLe0IzsuCiqYdtm2VhEUL9988vSML5m94TrJrnCWl/x+EUkgm8aaE4ex+6TqA0X0pzjdl9eXEv/QpxUVqIZQubohH+2pw4R8JjH7RhO/3x+SAkKIMO9fMqO1cbH6lUoilvRXQi5lUE+foG7EbdKihb9El3/OPEVm96pP2jutJ4m5hQ1VnLduAZdIQSXep6p0ClF8bKYIio9VSusfdbY37UfZ8Vl5/UHFKT3mKVlO2SnbtGZMrbQboUmrqVjmaYdaRg6YumUGOpsbqtIGVJICCI3cETCjK4wYDNQ154LbyxyGhgYVSuVTWgSWjE3GD0uHgF1ODjEYzeG2ZBj+nvAL7mdIW/kBGKgPe69ZcLI1knpf37gXvP7XEw2YjArJqR3owazTDwj80QksvcIZ0D8C5uOyXmWmnHIQf2IRlm0XAiqaC6ssooKnuB35CgDAYJjB8VsfdLOqU+l0c19fx6UrxcvdCB1GLIZPrzd4J6M+ycYUvTxXwb2fBZSpSYrW0/LahCr48PQargoKdYohqzsm+vWHmaH2t4/SuoMgBTcjHwGSEmHAxPIbLFzXBampHyuYesm2VlEUL1992A6egVZXZ2HfpdQKvaMiuhNQTH8CBB9S/sCyGbuQxdD+OqAZKlc35KFNdRhgwsx2HCaNagmm1PsN4TRxFjpWwXhEXX2CJjA06YkBgyzw8locElOrxHVBKSqqX+Sh+FhFmv5RX3vTfrRpfFZ8zKPd/YRS1ST7xTZMWvwALVoX4PbRAEwf0Rrz9iUW3RXh3YMtcOvqhlmzBqJbsyH4dtpcuI9fjN2Hf4Z7FxP0GLcfaaKXiDw4F+M7F/79KvMG9q91xwibjpjy8yIMa1kXA37Yj6ijP2K0+zTM+6ELrNpOwl9yXU4MYdmlLYyK8vmz4DIu/DsMC337QvrwQhofcP1QMJIGDIZdo0IjjZB3uLB9HEZPW49dQd+gd7uFJVwTazdxwiCHA9jxV4IMn+RGGPhdX9STWf710M1zGMyZegDy8ehWCLx6NQCDwYbj2F1IyhEByMGD4/MqkBeFLg6rx/WD79odWDvTEeN+OoHUvPe49s8izB7fFoOmr8aycZawaDkDl15/wuu7m+HR/xvMnDscfc0HY/2xRBQUdbBC0Vsc2eWGzvUNUIvZCbO330UegPwPMfgryAODLdxxLiUbjyJ34s8Lz/HmyXHM9VsNXmKGHLkLpL7zw4sTCNlzHg9zHmL7Gn8ERdzE1QPfoG2dFpi3LxG5/0UiZM3wor+f4M39UKya2x+dGk/G6rVfwdKAg8CwR7hf4fy6jE2T+8Lth7mY7WGPPq6rcDU5F/mZUdi6eBWuvcrBo+hQeH8/F39dS5OaRnl1pTR1mvZEvz4ihK2ci/nBl5CeR8BgWGPijgVoz85H3F/jYWXQFC5zj+FF6lXsmtsFLCYHU9dE4l1eAd7cWwnnhqPxZ1w6Uh/9gfVz+6DPmP1IE73AqV9+gJdzM/T77mcsc28FkxL1SRrl1dM6sOicit/nl87r53h1dy3cHKZh+faF8OL0K6w7JKUcGUR4d38rvu7vh9XB8zHd2Rrz9j3BqxubsHrbKbzLe4PDv63Ed5N2ISFTKKd8bpbRHa0dvTFr1gD0bDIKgb+vwLc964PJaI7RC4/iysk5GGHHApPRHGMW/ouPBJDVvgh5J6O9SBuQlNUdDFjCYUBbvLwchClTd+Lu61wABmg1YiU8ehpVoHwzy7S1xItrMW9yV7RieyJwtTPa1WfCvKUH/rkny4VKMT3UiAkwGFbgftMcO1eF47UQEAkfIOhbG/Qevw9vZXrNlP1+yZ20ywh0bwkTBgPmLSfi0J0vbbE8/UlIIk7/vhuX7wtxKXwLZv50ECcPjlM43wr1zCZM6D4CHrMmYUwXG0wKPI13ebIGCtLr5dtH22T2X+kEkKXPhCjUC1G/eWPE+JmY93032DstLtILsvS6NBkSZV4vWTc+4OHZGXBsYICe43fgmaAAovwn2DeXg36ev+FZZlaF+hJ11eF/U/KQ+99pbFgwDH2atMGkpYsx2o5don8pCxMWvcbDzkzWBCoDrDZ9wIxZXqbNXnz1toxuvpicWW47Ksi5iaDxzpi/eQfWz3OE49f78VpGn0DIO0T97o5+zt/jx9kD0a3ZGPxyOglCCMv0U80NGDA1G4mv+1jC/effsGZye5gwGGjbZxlO3QjBT2NaFP3tj7vvCuTUlQIZfWCyzDItjTDvEe5efwvr/t3Rpon0vJX9bYXkZV7GpilD8O20GfAcaI1xPx0v08YISQNv62DYDZiD7WFXkJKZjishXpgwazN2BrljgNlE/JsiazdPaf2Sp4AOlN72U/M+SxmrZMnox0rqn1k/HUVy+p0S9Vjy/VL6J1JuP1gaEd4/OohVC4ahT5P+8PxxGHq1MEItZge4LzklZwz3oYK6RFafJ1/enFLjs61H7+GeHH2SlxmNlaO7Y9ysBZg5wQN/PJS3fyqnEmOeZ2XK6Y1QBNlj6iqmvKWvQlcTFmnRzZm0b9+e9OnTnvRqX4+4BVwiOYJ4EnXYh/Qw/rJMJyq4Q5YPsij6O4vwtvQhlu0WkXsfhGWWEEv+LSKvonxIU31L4rGcRx7fDib+874ivZx/I2+FhIhE98haV3Ni77ydvCpnLVqYl0T+DZlORvcwJVb235E/b5XnolLstwU3yNJ+jch3W2KJeHU4434g6WbsSHZcFBS64nxtQdzX3SZfVo8/kHPre5L2TlvICwXWyWW5ZhYueTYkztOPkNTPQvL25nzSoU5XsuHMW/Lh2SbSq/OvFciLwrwXuwpkp2wjg00Gk/13PpD8nJPkB1tj0mnQGnLzeSTZ6ruf3Ly1hgxpuYjEpucTQtLJyZXdin6bR2L2Dyd19HqSnw8/I/lF95o0/5HczcwjqU/PkdClDhI3w9JlLFtuEUlP2Cj3ncVdF0svB5f8O5X887/2xIQ9nPx29RGJ2rWIhB6aU6H8Eomekl+/b0+mb79HCgghItFr8s8ie9Ku7yry6KNQYVeI8utKmTeTzOR9ZLJjfQKwSAenWWRfdIrkHQWfL5GFfRuQUQsvkFxCSM7r38hIdnsScCSFEELIh8TNZOy0UyRLlE7ir+4gvgMaSvJeXM5dRgWRR4I8knZ3MelqVFifFEF6PS2b1+F3LpCl3AZFeVPodtrKYT3h55cnQxL57fvWZPbvjwkhhGQ+2kj8Q55K3t3MsKfEHai88imtO9bvjSWJUVNJU/32xG97DMkR5ZOE8G+ImV57Mn/vY1JACv82r+NBzvI/yW1fZdvLAZKUXbZEpekOQggR5j0ioXPsST2AmNkMJvOCL5L3RS6RipZvNiko09bEZcFuOJrsu5VWmFa/BmTo3DMkV+ny/cL7mEXEzmg4+TMui4hEqeTCtolkXrBs10Jp3y/WB9acWeTEw/fkw+vjZOnY5sSitR+59lbsglK+/izd/hXPN0JyXoeQseZfk7CHWYQQQj4LjpGpnPpkworL5JPUt0mvl+X1X7L02aO8LHLl95Hk65/Ok2wRIQWfIsncHmziFnCJpMuody8LXshoG2VlWxbyqKweFvFJyMzWpF2/DUWuf+nkhP9Isv9OphJ9iTrrsLjfb0Emr7tGskWZ5N/1jkX9S/n+WWXdCAuR1mZvX1siQzfLa0cFJCF8HOk6ajdJFREiEt0lK4veVbZP+Eziw78l3YbtJC8/iwgh+SQpagbpYDSE/H4tnUjTnf9cDSU/2BqT3p6/k+eCfJKbupeMbV6H9PHaT97miUhu6l7ydQNL8uPepyRTbrmVTftEnHRXSnG9ZTUcQCbMnU98pzmTod0akNa9fyIX+V82XJT8PvnfJvx8m6xx5pAtF/4jhIjI25vzScc6hXn9JZ0oknxnHfH8YS95Jih0ms99t5eMqT+OnEj8RAjJJlc2+8jYriBLv8rXgfLafm6p9iwsuCGzHyupf/KltDf5/VPF+mIRyXpzhYQudSDG+gPIptPJJJ9kk9g/xxErQ3sScIRP8nNOlKnfd2PWVkiXKNLnSZe35NYSeemIRAlk28S2ErdfcfnIcyOszJhH+jhR+pi6qlFwZcsUbrOCER8fj0uXbuH3dWNhKAQMWe3h4NCpxDIqEaXj9YPsor+M0MquI0hSCv4r1yWKAX0DQ+jpNUUvJw5ad/VG/+afkPH5On6c8j2mz/gZsYJ8pNy4jSflLHPrGVhjwMSFmL9oBhxrh+PneQfxUsE9jAUfk/As3hCm7LqSZT+TNp5Y88sajOlhiOfXTyDuZQ6yc3KLLaDWglmTBkh7+gxvPlTU9as09dChhz3MDPVQt4k1LPTT8frtW9w9GYYM9o0K5IURun79M4J/mwRr8HH13EWkFnxEVrYIevqGMGQCLXv3Rheb/pgVNBzvzh2GwdhBaG+qD8AUg2buw7HTfmhlUPiVBvot0bN7c+jDGE0tGyPn7VukCQjMWjrBvrWZDBlyZcv9NgPXwv6Q+07F0YeBIRP16ndDv25twJ2yCNbvblUov3JenkXY3ybo1NESTAAMRhP0GcZF/o0jOHFF+iqWNMqvK6VhwMTSAzvOnMefGwbAJOV3fN9/GGYG3UAOAZiGXeHm3Q13Dp/GwwwhGPqGqF0vCeePXkUG+YR7p65i4AQHGDNM0c6RC6sGX2YlxeVs1aUrWrIMUKdhUzRgpuPN24q6/hSndF6vhGuXnvBaHoxF3l2Q++YieFf5yEnLwmdSngzGMLMwxl+rf0JAyDXk2/wAH+dmUt9aXvmU1B0zMM/THnUNakFPzwRtOtqgDkMf9c0aoZa+CVrYNAYThX8zhU+RmJIut32VbS8TYW1UVnVK0x0AoGfQBl4bLyDq6CIMs4rFhpkjMWzidjzJLFC4fI3AlNLWCsvC2KQTetg3gJ5hQzRqbIj3L1IrEdziC7UbWKAJ8wUSkz+AwTDDgOkHsH5GD4nngKLfDwCNWnWHY9v6qGc+DFOmj0At/gVE3hC3q4rrT8XzLQ+PLhzB1dod0KGlMQDAkNULQ10sEbkrHA8/SJvhVLxeiiH4KFOftRTdxOHVT9F3EAdGDIBZqy8W7j2NLX72uCej3j19ayhDhrKyTXO2KlM3GAxLDPN0AfPWCZy9kY78rCs4cWEUBnEMlOhL1FmHxf1+I3Tr2Q5GjNpo2KR+Uf+ifF8qrc127jpZhm6W1470UM/MHJ/ObcTMBftw700rTAsaCpaUNkBIIs79EY3mDh3QxJABQB/Ne7qgv+1VHPnnJnKl6M7R3SxgyAQatWgDS5Y+DNlN0aiOHsxsrNHAgAFDdlM0bvAeiUnPcfvkETnlVjbt4XYsuXlkbNIZY791gfMoT3h5DkKDpK1YuuiQ1Fl/+d92Ay9i/8KBG84Y6NgIAAONui3En6f3wqvPFxme3giG54K6WBXsAVuWPgBAv05jmNv8i2W+gfjnajo6T/JHDxkra9L1i7yyyy+n7euXrDPMjjL7sZLol6nH5fVPFeuLGTBu0g32rc3A1GuKju2bQB9G6OjqgzGdk3E58j5yy9RvV3y4eFxhXTLVmaVQn1eevETeGC81Hxlx+7Erwg5f9W8BJiApH3lUZswjnbJj6sqNgZRDv/xHSmOENoPmwsOAJd0HUc8EDVvrIy4hGZ/QAgBQq207WDeq2L4p4B2ePHiJtk6rEerfR4Z/tmz0DJqj56hANG/wEc5DbiHhVR6aWZbvx13w8T3e5xmgaYm0GsGq5R+YO+QAHHwHw7ZZbcRK+e2ntAwIPooA0woKWw4E6UrkBQNGZtYwDF+KCQfs4TnWBmbMFBnpv8Xj2FdAyy/XDEzaoYsJgEoE6CRIlSk3wSMEqeGdhVS87mSnPMGDT4CL5AoDJpat0aLWsQo1TEXrSmkMTDpj/I9HMHTsAcz9xg+HAgPRq+8f8OjKQoevRqLj3O04HvUDcv8Lg3CIAwR/hCNqQUNcPdgdM6bUV1g+9VAHjW1ZOLzEDQfaTEXfNo2Bs4r8zgxD52zDotQpWPLdUIQdnIVtu/+HJlKeLLd86lZGfvntS6TgFgZpuuOLuA3QddRK7Bnqif4/jcesLWuwskd3/D7PQU3lm4/YA27o7HESAKAPa/juPY8NnrYVTOcj0jMUizgn9/sl6KG+bUe0rHUe2TmfS9ypmP6so2C+CZDyLBlgdC3223qwamnxZUBvUrpfkF4vG8uV57VMHZrzIgHxqfVgLbmjD7M2PQHwcUZOvcuT2jZktZnSvTEDZl2+wXjuPhwPv4E+OafA+mEOGum9xTFl+9Uqr8OqRTndzEDTXouxc2cqZs2ZjMFH/sK8oK2YO6phmSdJwSs8i80E2hd7Z+3maNG2Lm6+SEUOqegopljaJA2PH7xCW6c1So2HpMFAXbS3743WBr0B59FobToWA7024vdRA7FyvE3J98v9ttdIeByPdJZ9scTro4NTYZmLTbeMl0/w6dlHHL8+Bj79GgEA9I0HYlFIABZODcSE3v/AbcEmbFs+Qqq8iumXYjIjV27bf1fGmP9/e+cZENXR9fH/LgsKSFfAhqKIDRU7IBZiAREbUtTYS+wmYn3svUaNCmqCHY0t9t6DBTtVmkoVQWnSFth63g+7ILCFpUWT9/6+7d27d86cc+bMzN0zM5Xtx6pv/KAMdq36aGSmiee5XPBRq8y3ysc8ZWOJ98Fx1dLnEb4oeY4A4Y8j8FFQBxqciqyhUjW2/7uo1JottkZbDBrQSO4ifLZaJ0zfMRe8g6uwYNsubFyfh/W+09CidkUXrHGgUZuDhKBwfCqR98tLC8DTyDxVJYWBmSUa1TZGXX3V5pXqBvVhWruwxBUxUp6vxijnl3Ddtwuzh1kpXPOgZWKicjkVQ60SukjHzW2jsPSKLfYcmI9+Vo0VbprAQh0Ymmoj5slrJBU/n5AVdQfhaVXZ1lRdodwBkewaKhOojO9om1mibe1EhLxJKv0vFKsFrK2MVSxXdV+RwEfw0YnY/6gov5kFXbMfsXLNMGjlRCIkXPLmX6uxM0Z4FODS8U3Y4ueALduXo7/lfWz+eRNosguafuONI4Tce1jlMQHxXXZg5yIXNDdSdZF4FiJfG2La3hcIClgBG/hizvSjSJZj/uqxjyKqI9bIix1AftJ+TFrkj6JpBVu9JUavXQXXJpmIehGNXKop+6rDesxVEBGICAKKq8RECwAMUd9ER7US5dRfHmIhDwJYon3r0v+IVzR+qqY3bZhZNEFBUijCYwpK/d7EugMsG8h7AafIL5V1l7oK41lkviaMNCIRGBSHr8O7XIQ88EeeOltBfExWIEOuguuyPsJSs8KwiT3wcM9WjF/OxmCnpmBVwte/nQ9XJxWNzUUQMiOi0cTND4/Cr2Pp4E/YM3IRLkcWyNzJ4jSEhbUeYp6+QWqJP4eI2LDs2gYGrKr0a9UToxRTCw3NzaGFKERGfZTZ6l153azQzMgQouQgBEV+nViI+RG44/+pOF53Gb4ca39Jw5aftyAgWfJCVZj/FknsCTjs/xrXfW2Q9IcnVh16I3ftpqrxpVhmaJbT9kvHmsr3YzXdP0mhAnBzxDC3soCezGhOsX/IiyWzpx9GAptVDf6keGwaEJmP2tp1wBEn40OKbHtRxvcfTypOte+jQvQFEX9HYvDJv+C98Bd43/WDZxcjAF8H9dnJCUjOESI38SkC3+eBm5mCVJn0ERPYOtoh44Y3lm2+ivhsPlKjjmPpJH/UMa2toPR8xDw+i4B3WdLPfMQ+9YfRPFe00WWDKA6nlgzF2pORUJSgwNFuBWsHNpI+pkkDjgAfIkIQXSgGny8ENyUUbz8WAhAi7WO69J4CJCemoGGn1mhYp/q3pmGjXoV1QfQJb14kQEwCCIQF+BD5BqkigCgXGZll37RIdJ0f4I2Fy07hTUoWYp5tx8xVGTA1qujkkYNammoozOGCJyIY1m+MtGuycuuamikpUx3qtdTBARd5+YVIDIwCr44RjDTS8CEmCflUgPevniGBJ8DnD5/kpIbupO4AACAASURBVExV3He0Grlg5Lg6CLh0Dx/4BECAxNePwXX0QB8rVf82UcVXSqKBBha62LNkX4md2ETI5+aDNLqjj53kHR6L1QQDRzsh69oTtJw5CM11bTF0QkvEhDSEY79mldp5sDopTA1DYLAGhHwBBIIPiIpIBgAU5GQiR6B4ISrhE+5t9kZQKgfNbb2wevlwCHL5cjva6rGPfFgwqkSskUU2dgC1TSygeWIdDj/8uqufqCAX3Jy6sHHsAn3W92vf/E9xiBdZoKWFLoAsvDy7FBsPvVKYoiiv/rLwEfcqAGqeEzDASlt6rfz4yVbXQC02H1xuIfJTQpGQLVRRbxpo7TgaA03v4/qtKAghOX/l5YN4uEx1QkM54U2xX+oq6b8MFcazJhZ9MWBUA1zcsgIbj79Eal4sbv/+My5/ssEgZ3sFfpcrVwZRBdoMoAHL/j/CrXkgGvVzRWdjdVQmNv6bffgrimPzl7TPCscDgBAfXvvg+P0U1KnfH7M2r4OTXgH4cuIai2UB53H9kPPwFh6+kfSxvLQXeBrgADeXllUabLFZxrCrhhilCKJPeHonABnoih42sjs9Kq9bG5h1dUZ/88fYsngLLr5KxpeUO/j1x/1QMzcotj2b3QBDF63HkDrHsGTxaXziE/gZ/ti05W9wOU3Rf8oOeM2wAI8v35tViy8lUVfa9htzUDxWKRSlIvTBdQQGye/HcolTJv6UlrGm+icCH3whASDkxPrjcbALJnhYyfElZe1aNpaIcg3Rw6lHJf2JVTw+y8/XRuNGdfDmiuxzdEy10bCrM/o1e4HjvhcQny0ECbKRlS2EkC9QasPKxhOZfuJLxSZ5NYri5Vw8ignYR+umtSUd6FE31xV08EoElVy6yM8OpUveQ6mlhhE5Tj9MYcn5JBKG0c6RTSTeARCgR827eNC6E2+IR2JKDd1Gw9vpEQcW5LboKHkvsqaenvNo56lrdHS5Hemzm9HIZWfoTXI+icWpdNfHhVoZsImN+mTrupGeKD3HIpFOeLUlTbXONHT6Qvppqhst2nKn+HweQd4d8rKvS87zbio5d4tP0VfHUcd+eylZREQkpswoHxrV3YA4sKChc/fQbws7kqZaF/L6I4h4JFkUuHlQE1pw7F055xvJ6nTX4QDKEhGJ+Al0/4B7sS4D46Lp1t5h0s/HKfbLpwrqIoee/zmSrA04ZGw+kBb67KRp9obUqJ0T/TjPnfoYa5D1oDV0+eVH6YLOVLp/YCTZmmsSBxY0aPohis4SUF7KPdo5sxVpsm1ose8ziou7TlsmWZIm24aWHQ2kuOjztEn6ebHvM8rg8Sjy1k9kbcAhyx6L6e+4JIVyKyqTiCg/5RRNsTUkHf0+tPlSDAkokx76DqVWBmwyNnem9Wf/oCmNu9OIn7bTn9d207xBJqRfdyhtPv2KMvjiSvgOES/rEe2Y1om6D5pJ82b1p4Geeyk6S0AifgI9PDOjWGdnH7yjfLmGLt9XypIbu4N6m7ShRiYDaOT0eTR/zg/UufEo2n8nrtRGHMLC++TVaRWF50qWBufE7KThEy9TTpEc4gwKvbuGPK11qKn1bDrzMoYiHi4iB2MN6uaxnR5Gx9JTP89if4qT6lmBJuT66ReRkD5FHpHRtZAXRD5T2pAO9Khd3/nk4zOaOmmZUq/Ru+nK1XkKZYjNiqK9EyzJbtj/aP2eDTSvnyedeJVGuSn+dKg4FpyiZ2+zlNqHnx1IfmViBz87lE6tsycDdiuavOkWRcU+p1Pr7Emf3YzGrrlW/Lno+3hF7UucTq8uz5JpL/IpGzuIxOIw2jzInEzqtSaniV40a7YruVqb008b75Q6N6xc+5KAUt+Vbmvx8Rdo0RATqtvAk/bdjqCYCG/6saOOdDOKzArbt/R5Mfn0/KAj2Y48Rmki6eJxh7qkzZFssqNq/SXnxs2iniZtaej0hfTL1F40dPKB4nYu0VH58VMsjqUTXtakw25EQ3+5WKy78vUm0d3H19tpdKdmNHT6fJrmZkPz9rxQuNGHmN7J8ct0kpytI7//OnDng9J4xst6RDunW1NDtmSDicV/vCKumBTGKUUyyL/+mT6X8Y0MflHlUunC/wbQwWdfN0uoaGysSR9OzXtPl9b3LG6Hb+Mekre0v1l2NExBnJWQn3KPDm0bRtYGHDJt7kHLvM9QSDJPQZtVFJs708hF62n2YPnt6EpEKoWddiOLLp60aPt++m35YJq7/Snl8OLl9glFPtC54RAaM3sCDes8XrpBl0AmdqbzMinkRsn4GEfB0s+dBm+iv0t8lnz/XoHdZJ/91f6yOjviPYkcLbSKN8iYMWMEjXNsSI3bDaGlUr8s2ed1GryRbgankED8WUHdvrax8X2MpRs9zaW/XqWTiJ9Aj87/TI6NalM3j1/pVtA7enxgIOmzG1Hf8Tvo8q1VNNzEhkYt3kX7vKeRo8OuUrGhNLJjs9zkS+XEQGVtv/RY5W70C7n9WO/RvvQ+N744/gz55S8KfnNWpr0p6p+IuPS2wn2xZBMKDppRx35jaeycUTSw3Rg69TKdxAr6pArHEoVxoHx5S47PNl56QTd9BimIJ5Jz0Ya305P4RV8P6mdpQs6T19GZJ0lKNxur6Jjn7MuPJCjRTzj+tIv8vF0VjqmVj4GqHxYRVetG+fzsv7F5yms4bxuErMA3+CIiGGjG4a/V8Rh7fTd6GNdEml31IhaEYqfzPDTafhGe7ctLoSFkhG2A23wT+F2dgkb/wr83GRgYqoeKxY7vFxH/Kdb02o3Oh30xtHXRm9ls3Fk3G7zRvnBpLv/tZ8Xrz8RPBgYG1fivxNfy4SP4uCt6TzbAX+8Oor8K+w0wfN9Uc85bLvx9/4fbWvowMrBAP1c3uLsPQvP6WqjV0wVt637/Ey0AYKu3x6yTs/H3Al9EZyvfEYmf/Td2LszGWt8fmYECA8P/cyoSO75XiNJwb8cOaC/dCJfiiRYf0Tc34HGjJXBSMNECKl5/Jn4yMDCoyn8hvjL8/6SaJ1t10N1jDrqkrUYHfXWwWPpo0X06TkX1xKYdzlU+8fufpHbdYdh2tA3O73oiPfRUFqL3uLglAeNOb0LPJqofm8zAwPDfRZXY8f3CQ+T1Q+D234/FQ8xLrN3QQEunrVgzsW25W9iqWn8mfjIwMFSUf3d8VQ2ibCR/yASJc5GZxSv/BwzfPdWeRsjAwMDAwMDAwMDAUFEI3JQXuPskEXwC2Cx9tO1hj1b1Vd8dkeH7g5lsMTAwMDAwMDAwMDAw1AD/osQ+BgYGBgYGBgYGBgaGfw/MZIuBgYGBgYGBgYGBgaEGYCZb3xFiQTLik7+nQ9gyEXr+Lj5wFR9MW5LvTv5SELgf3+GL4P9P1qwgOw4pVdmxqYL2rwyCnDBcvhENfrU9UYj0d/Eo+P9j5m+IEGnvbiEgMkfl+79X21S/H1YT9AXvorO/tRSlqIyuvql+/4E4pgrfrY8xMHxDqjxO+ZegZLLFR+zT/Vg/3Qq6rLroPnwuPDw84OHhgfmzHfGDlS5c1zxW8STv8hAiOdAb81ffRJYYEGQ/xbuFNgixNEKIZRvErrgKsUByKnfsg9VYse8l8os7bHnXyiktPwRnt7uio6E66jZ0x85rkUiKPIkN062gy2LB2mUpDl6NBL/o3s0uaK3VBwt9nqD0weFiZESdxe7lvdBYnYUOTruRyJcVgpvoA2fTWtA1cMDcbWcQmsIHkI83V2egu0kHdHWwh11rfTTv7ISNf72FvC4hL3Yn7Dr6IvUf6S8IWTHHMGdwO/QcdRRRGfIagmL5BdWm3ywEXtuE+a6NocZqgqm7giArCQ9Bx4dAn8WCZY/Z2O73FNliQCyIxvEl3dGsfX8MdLJES00rdOiyELcj82We8M/qtqYhZMecwNLRlqhnOBqXQrly78qJ3oyeOl2x/dYnud/z0q9hyRBl9q8qeQi+PBMDO9tgw+EXyKvyADwPIVfmY4SNMaydjuCDVGSiNNzzHg3XyZMwvEs9eK70x/f2OoBEgVjvbIpBXrcg653fJ2J+OPyW9ELnNtNx/mVaOXfLt80/hXL9ChD3eHE1+mH1IOaH48+1juhoZIzFp8KqqZ+tKpVps+XrV14sqp52q0o/pjrlxUzFVHesqw6ZviX5CL+5CO7j1sL7tzHoU68j5vsGf/NJ6L8xDn8rqu53qo1T/lOUd+rx58dzqSGnKc0/+r7U9ezoTTRm6UOlJ0CrhuSE6fGzr9AXERFRKsWvHEc5YRlExKX0+/MouKU1pV5Plt7Pp3c3f6a5vz6TngKu6JpyxOJY+mOqORnVnUIPkviSp+ReoZ/a1qHOQw/QZ9HXe7+ErSGn8ecoW8GzuYk+1F+HQ5psG9p1N63Mt1l0Z5stAaCGzVZRtKQoyo7aRPY6TuT3OpuIiET8KDoyrwMNX/VIjk4z6dqGLqTF7kP7HqbLfFszSE4w19UYQ7cTeDLflid/9elXIgcAMmu9lEJzRKW+FfIe0ZJeRgSAhq8u0h2XHu9zoNa9tlEsT0xEYspOOEYTLNrTvodZZZ7/LXRb83x+PJcaadgU15eXfZu8XP0oQ6pjAfcF7Z/rTYHJsraVoNz+1YGYImmHe33q5n6sWK6qkUkXV7Ur0c6EFHt7MjUxWEnRfCGlhJykM/fjVY5ZZXUmFn+mq4vG0+0EfhXlFFDSsxW06si7YrmfHP0f+fknUbWo4R+Cm+hDA3TMZfoG+ZS1zT9JWf2W1n/1+2H1IOLfoVmW2iXi2renMroq7zeysUi23Z6+/57iSrUZVam+OFZ+zFRMTflYVWT6NogpPWwt9TTyosBsEREJKhyXq00SmXj+74zD/wQVHz+oRtlxyn+ZSqcR6raYhpXj2pc4h6VyFKZfxHL3BExd4Qh9NkAkQD23ndCxMgSgBQN7Z7DUOWCrF4mqjuYDZqFFwBwce5Sq5JpyWKwmGDjaCbo5/rh2PwEEQL1ODwwd3QpR1/7C7eCi1Bgugu8FoOcIW+gqOXNTrNkQZoavcNL3BtJL/EMiyHuEMwc1MbiXYYm7+Yh9+RhBJV7VsdVbwvN/XhA9+STzVqUw7SaOn8xBt2YvcPH00+/gbIny5a9O/RLYMDbTRU70GRy7GIuv1RcjJeAU7mt3Rlctdon7E/HifhSAogeyoGs2Eku2dkJqam6pZ39/uq1+xIJonFy9EI/ZXx2To9UV03bNQsf6/+WT6fMQ+TIIQgMWADWYth8Jd4cmKsUsWZ3lI/zqUqzcKwJQFSch5CSexMpZvyOPVeSfBrAbtxFjejUEc6xvTVBSv/L0z/AtkY1FZdutJ5yaB2DdN7bZ9xgzv0eZlFOA6McPEKunA21NNgAOTNt7wqW1OuQkBdUg8uI5E4fl8f93/FC9VGqyJci7gIn2l2FkqQdA8pf/gwNj0MtpCn6ZNxjdu7nCtdUE3Eks74/hHDz70xtxPwxAe2N1AACL1QBa7YomJkJ8eXIDdVxWwqC3cfGvWKwm6DOyMfZvvIBkkeJrymHDpIsz+rdIwYNz/kgTAwAXaZ+yUCB8iUuXgsEDIOK9wOWDnTC4j4nSp3EbTsPMyZaIvHUe994UDej5iL7uB/H0aehhUqvE3Rpo1tUe1np3sWb2Yhx7mAQRgNr13OC9xx6lj/fkIfLmeTRceAqr5nTF0wPH4R9bqEQSIT4GbsHwbjOwbu8SjLfuhW2XYyCkRFzfMxXjnRqh16S1WDmmBXRZ+rB1/x1x+ZJGRJSG+z7D4TB8LrxmuWDJzhcKylBF/urTLwtqGL5gEzxaf8LtE9fxQRqViWJwcWswRk/pAX01don7zdDth1ZIevwbfpq2H4HJBQDU0cJlA8bZGlVBt4r1W5D9An5bxsDF3Ao/rV0KZ4s6+GGqHx5cmg/XMTOwYGonNGk1EadfZcg8kSgR170nwN3eDGPW+mLz5DbQZbHQyn4lrj8/jMUjmkk/r0JgmhCCnJfwmdUaerXG4nYiF7FP92HVpJbQqzVWps0R+Ii6vx+n7sUi5e0VeP2yCQ/epeDVpdWY6WKJBcdilNZWJP6Mc78PR0dDddRSa4e5ewOl6R75eHNlgdy68bP9scmjF37esg9bZtvCY/FVpEltxs/2xwbXrvCYswizR4/FyQhF633ESAvbDTeHX7DJeyFmOjWVyqq43NL1zsCdfQtw/E4i8nIeYc2SRVjp80wmFYkoDff2esB1xjb8/ttI9Gi9BA8TsmV0dub6ERw+dBcR+RHYu3kVdl8KRagcOQh8xDzcggWTO6OF/jis2eSE1oZqqG8xFmdDs0EUgxsHDuJxmAiPLuzCnMV/IfDNCWzzsof9CD9kSvt9fvZj7JjcE8OnemHu2A6wH7YRAQkFKPh0A78ucoa9aUtMXLEMru31y9il8n6lrFwJQiQHbsag9iMweY4rpszYiTgeARDhc5QPxnTSRXcPP6SLk3D/hBc8O0o+Z8odRCmyoyK7l/5tyGlPNFFvgKFel/EhNQC/e3WCnpo1pm2+jzS+ECmhG+BU1xWnQjKRGnWyWL/p4vdl9H8JqSKJgDnpL/HrTEmqc5G9SiNEStgRbPRyQDuTydi0pR/M1K2x5nwUwhT65Bc8OToaDi6zMHdsB3T6YTLGz5iJOYv/QtAb7wrpTJ6vPkrIh0BO7Ok79TyyqLTsle0Xqt5moVi/lFEmFqXKtNtle47hjO+BUjb7LCpUGAdU78dU96OTIQml5FSlHSrTW8kx0/y5fdGl0QjsuREHYQ3LJMx/gd9G28Fjziy4dzfHwEnz4eExAbsvvZdZvsDPfowdPzli1IxZGNe3KTwWX5HGcSGSA3dgdFcXjJ0zESM6mWPimhtI45NSGXgoQPCVlfA+HVZs2xkz3THawRgtevxRnF6sSMb1B09jt4J+73ZigYK2GSvX73M+XC0Tz6OQUiJOSNpf5erJL6qDpxMW7tyHbQtsYeumKA5+bZ8VjS1ly7BxO4aIyOPYuMgZ9qYOGDffGXbNtFBLrS3GLL8utZ3i/pMoDQ98J8DFczYWTOmCDr2Xye0LS48fwhBxaxZsjdRh47kP77OEEAve4piXNXqN88X77DzV+mvKxONDI9CqlhpsPHchOLkAYkEcLm3ojd5jfPH+v7Cmq7y/viRphHrUrIsTtWnThrp1a0t9uxiW+DucR+EXRpHdiEOUzBMTUSE9PzRApb/tRcLntKKXMU3aFUylk8PEVJB8h+LWOVOwpRlFTf6dBNmCUndkBC2l9lqD6FRIntJrypGkkGlzJOlw+cm+5NLmR5ow0FiasiagpMfzaPTyv6lQyVO4iT5k3/kwRYWuJrs66jRkyT0qICKx8DWt6TyR7iVJUghKp9BwKezyZLI24BAHFuQ8/Xd6/TFf5tlC3iNa3Gk+vc4UUl6CNznqaZDbSn+F8oiEz2lFHyNp6okkhaJFt20ULyAS5F+jqc21qdOQ3ygqi0/pgcuos1Zn+vXmZyIqpOAzbmRbbEdJ+qNiO6oif3Xol0dBfsPI62gwPdjVm/RKpGpmR22i/m4n6UOCN/XX4ZRKtylKa9QBqJ75AFrg/ZAyeKWTAyqqW+X6FdPHB9OpAceMxq77m6JfedOqBf3IzsmXPouIxOJQ2jKsPnVw2ksf5eRLFNmmx7gDFJsloILUo+TeWJPsx/vRZ76YClKPkpuRGc0/+o7EMqkxsqkyJf+eL5vCws8Opwd/Tafu2spSwCTP1GTb0Nq/3pNAakvTxvMpMFtEOe93kF3HP+TULZ/+3mVf7OvcRB8aoDuA/F7nkFgcST4/tqJfDkSQkL6mgMpPrYkj3ymWNPdAtNTW22nV4XdKypX4W+lUtfJT176EraEu2rbFetru1pDGbH1FQpm0n9I6Vi5HKp39XxvSr+tKx16mF9dzoNdNKqAy6XfiDAoP2Ec//1C3uCyx+B39MaUNzdwbKk3JTaazSztQ654bKSpXJPWzZjR561PiirPpzjbbYrtUya/KKTcv8XcaavojXXnHJSKxNH5I6lHWx2TTpkrbQpH+koQf5Nq9LELeI1rS06g41uYn+9Jg/Ta0+lwiERHlxOwk9xnXKU+cKaPfsumPRbI2tf6FHsTnk7DwPnl11y+2V2kkttXVH0S+AVH04PeldOTPeQp9ITtqE/XUlfiMSPicVvSu+7V/KEdnZdMIFfmqiGRjz7ajIVQyale2X6iONqtMv9lZb+TEItl2W9Zmitsfr0L9mKp+lCkjp1hpO1SuNz6FXxhFXZz3UxJPTEQCinswi9pqOdKBp5k1JlNRen03t6OUIf7qT7JLH4hEvFe02cmadt37RERi+vxiIVlpSnwvP/kwudd3o/MRknEWL+syTbM2pNHrH1NhuTKUF6OVyVhevyfbNi+8vifX7+MEgtK/lROHK19PPkVe8KDOQw5SqphILA6kDSqlj1YktgjllHGUYpIf05EV3Uib8wPtuJFAAuJS8CkPaqLRgVafi6dshe0mj54cGExui+8SV0zFbXT46kckKGf8IBbH0+HZltS616/SZRuZdHXVYPJ7nV1OP1lmnCKOoB2eDcnG8xiliSS+cW2N439meYeK/2wZYPgcb4SHh+P582AcP+gFLWmunFgUjJM776F9324w1WABYEFDXV2lpwpz4/A+XAMG+nXK/MXGQu36fWE6ZRkMf+6CwkcbkHI8otQdtY0awlTtA2IScpReU44+uvR3QFPOS1y89BzBd66jmdcieE20R270ZZy7E4Yn50PQ18Uatcp9FgtGbd3hNsgYjw8chX98AZKf+SHshzGwayjvfi1YDd6PWwFHsXqaNkL+mIZBvabgz9clZ/2SNLlUz5Fob6AGbbPhGDe5OZ6euoCgVIFcKdhqVhi/zhtLJ3RCQcpD/B0Qj/z0PPAIYHM0oKEGNOnUGRZ66tCs2wBGaplI+ZwLseg1/tzqj64De6C+BguAJuqaGsotQ3X5q0+/LNRB12HusKsXKE3VzMSD47fhMr0fDOWklrDVW2L89nt4cGkpnJsE49fZg+H84168LX5DUnHdKtcvCxx1DbDZDWDX2xqWnSfAoXEhvvCeYf5PUzBz1loEZwmQ+PwV3sp5fpFtjJu1hJkeBxr6DWCsyUY986YwUmdBQ78BTIwyEBv3Se4GKhVBXbcNunVrBz0VWr86xwI2XRuDA200MDNB/ufPSMvKReC18/ii/1xO3Tjo7LYW3r4T0RTxCLj9EKnCXORxxfgS4offL7ZHP4dmUAPA1qgLYxNFaQjaqNdQG6c3Lcbqw08hMJ+KaU56SspVbDNl6LYch817NmNEdw3EPruKkKR8cPMLlCYKEgrKkYMDdQ01aOu2Q/cORsX1zPiQKruJD8sQrW37oInR15iZn3QL58/oop2VGdQAsFimsHfuA8Hzc7j6JF3qZ8boYtMaWqzaqGtqiPzPn5GeJfv2ryJ+lauk3CtP4hFw+jA+dP8B3ZtrAWBJ40dltK5Yf+8+a8jYfbpTI5knqGl0xvAJXfD6rxuI+CICi6OB2jpxuHspAF+oEKHXA9B3dDdoswxk9KsI4xad0N5ME+xa9dHITFO+vaS21THsgl5dWqLPT0vRNO2lQl8oTE9BotQ12WrmaG9njE8xH1XezKkkin21bOyZhQXj2qNky6psv1DVNlvSdvL0K9Rtq3Is+gpXof9EfKxYP6aqHxnolZWTpbQdKtObGO9x+6Q/GndrKx0zcdDYZigcmgfg3NkXEGh0qRGZAB7SP6UD0v6yTvMu6FgnFokfy/6DS0gPOY3jz53Q19YYAAvGXZbg1I2jGG+vhah75xBQuy3aWmgDADT07DBwqBnu/34BETlUofgki6oyyqNs29yAYZ1s5Po9n8o0QJk4LKh0PdOyxNCpVx+Ft7dj9qJjCE1pgRm/DYReubmJFYktIjllOMOsfjd0sKwHNXYDWLUxBQdasBo2HSM6JuDx/efwv3ZO7vPCEl7ir03v0LO/NbRYgFqtnlhy9AZ2/WIjk3ZfdvzAYpnBedxQqL28ilvPMyHIe4Kr94agv7V6hfprFssSwyY74dOFI7j8MhsiXjDuXe6Jvl2VjUP/PVQijZADk3Y/Yp5HK2iyAH5aKEJCtKCtXbvCea7C3Axk8BV1gizUNrVD45n7ofNjPXCfhcq5JxeZX8qucJJ3TREsGHUYgsHdgMcnt2He2joY1LclWvQZin4NY/DXHyuw+5wDenbQBQDkf9iLAbrqYLFYYLFYMukebFZruE8fAr2cv3Hm4h1c+yMMbmO6KplIcGDcajSW7Q/AzYuTYZp5BhvmH0Zs4dc0ucsH7uPN/ZXo0LYt2rbtD7+gfCD2Iv68/F7BgFATJs31cG/tcCz3y0HjlsrTH4vgp0Ug8p021NUrMnpSLn/F9MtH8HGXYt2qs8xl0oe0zdwxaZIkVfPsnYs4e3MYhvU0kpGqGJYROg/ZgEO3H+LIvKaIOL8ZG3wDIUBldQuort80vH2ThFa9J+DIgQPYt/cs/nyQhszMg+hTX7WXEf8UhCjs9GhQrHtJWobijpHwRWndtOo1hUbkCoyedg75DcxRTw0ABEh5F4GPAg1ocFSJFPUwcJ4Plg54jx2TBsLBeSve8bKqXadsdWM0sXgCL8efcf1TUzRvVLvc35RX/6rCTXyLN6WyWVnQNbNEs1qSAXBNoazc5M+xeBeWBI6GepXX6RJlKtZfA2M5dpf3ekETbfsNhlXadVx5EIPXZ89D5NgNWecu4EHEE1w40RUDuv0TnbTydq6hZ4R67BhEvit6AchGc2sL6FRiUUhlfPUrlekXhNXQZmtii1fFOrfXCK9gP1b9fkTl6E0sTML74NKTB3btxmjWqo50gl+7hnxbA/qGevj0Jgof86R2YbVBm5Z1y9wnQHJ0BDJLzg5YhmjbuwU0WXlIfJ+A0oM9HTSxaFiBCVV1yKgqlRsPEQoqXU8WWGhgtwz793fA24OTMcDeEwdeVeb4BmWxRUPlMopebnBzYhESJv95PdUjEJ6qnz0LCAAAD6lJREFUU+JXHNRraYPGehwV5GShXqeR8OwTiSsXniP6yXXoTe0NY/bnCvaTajDrPQEju4fg3OkAJIbcQo67I8xr/zdW0FVqzRaL1RRDpndFXuhp+L/PgzrrE5KTUlHRd8vqBvVhWru8NTJ6qNW8AdQbGsv5zhD1TXRUuKYYNY2OcBrRGp/f3YF6j0Ho1qQWatdzgseY5oi89QxmP/VFU6mxtRrPxO0cAYgIRITnZ8bCsJQfsFDfbizGOhTi4s5fcLRwHPpaycpCiMLOQasRURRMoAWrweuwcFJzJD0NQYx01p/79hwu8lbi9o3rCA8PR3h4OK7ePI6xdrm4/vsZRObJdmRC7j2s8piA+C47sHORC5obaaqkB3ZtHWjXSVXJjqrKXzH9asB6zNVi3QooDr+Oa16m5HpwGO2BtsJrWDZ2O+rPdUZjDdmGmJ+0H5MW+YNXVDf1lhi9dhVcm2Qi6kU0cqlyugUqol8ONGpzkBAUjk8lVv7y0gLwNDKvHA3/s7DQCvPOJBfrPpvnhwFmyoKsmsK6BUQm4ua2UVh6xRZ7DsxHP6vG0v6KhdradcARJ+NDiiqbOGch8rUhpu19gaCAFbCBL2ZPP4wENqsadSpGyvPVGOX8Eq77dmH2MCsVB8GK618dttU2s0Tb2okIeZNUetLPagFrK3lxsHpQXq45tPVqIzM+CRm8qq5kV9w2AiKTZew+Z/pRuetwtRo7Y4RHAS4d34Qtfg7Ysn05+lvex+afN4Emu6CpnNhQ/Shv53ptZ2DzRh34LFmJLXv+h0NB07F6VldUfEpOlfRVCZXrF6reZiW2q+7jPBXr/EVMvsr9WBHV70dspXpjcxrBwloPMU/flDpuhIgNy65toM+qKd/Whu34dZjc5iQWLtiB3av2os6yzRjZTa/MfWrQMTSAKDkIQZFfX+6I+RG47Z8LM4smKEgKRXhM6bqZWHeAZYOqbpigqoyqUdnxEAuala4ngZAZEY0mbn54FH4dSwd/wp6Ri3A5sqKHFyiLLTlyy7girwwqADdHDHOrNmigqS73ea8ShTDSiERgUFyJ43VyEXzlhUqbhrHUrDBsYg883LMV45ezMdipKViVGAOpaXSFx092eOSzBzN+DkO/ga2hynTv30CloyA/5x42j38ArRZOsHc0gv8RPzyML4BY8AFREcnF9xHF4dSSoVh7MlLmjCSOditYO7CR9DGt+BwRsSAemefuQpgjlP4+AdzrWag7vGup3+Z/ikO8yAItLXTlXlNWbmm00dnFFQ46bdFvqB30WQBQF7aD+qK1Zgf069um3I5RLORBIOBDBEBNoxOGjekOJNeF66QBqCtHwyyYoFnXy1i79VFxOglRIbg5fFgOdED7hhoA0vDgxBV0desulUmCmkYnDB7VHh8Dr+DSg2SZZxemhiEwWANCvgCCErYoyMlEjkDxW0Z1PRs4Dm8E/yNHcCPiCwg8ZGfmgsAHX1i6takmf3Xpl8DnCyAQiACwYNjWDW6DjKFt4IxRLuZy/02tbWIBzRPrcPjh150pRQW54ObUhY1jF+izKqdbQLl+s/klR4QmsHW0Q8YNbyzbfBXx2XykRh3H0kn+qGNakTfS8pB0hpr4jJiEbIgEMXj9LAYicQY+pMhLoeWglqYaCnO4KBSlIjg4E1SFHfVYMFJYN22THLx5kQAxCSAQFuBD5BukigCiAtRu1gv9mr3Acd8LiM8WggTZyMoWQsgXyJwjRPiEe5u9EZTKQXNbL6xePhyiXEP0cOpRjToV4ENECKILxeDzheCmhOLtx0IAQmRnZIBV+6vOgoK+gFNLHRxwkZ+vjcaN6uDNlcrJwVbXQC02H1xuIfJTQpGQxSv1vVYjF4wcVwcBl+5JN4MRIPH1Y3AdPdDHqk4l6qkaysr9wcoMto52EIScw4EToSggQmF2BnLFImnbrANDU21kJycgOUeI3MSnCHyfB25mClJzSkdgFkux/9QxzZWxuyCXLzd1tmjH06xrT9By5iA017XF0AktERPSEI79minMtChP/xVDeTsX5ITj0U07nLm9G4vnHMD1G7NgKX1bzKqAzgC+Ql9N+5gOYTntuXL9ghoadnWuUpuV2K7qk95SNvuUCtPOneTqXL/1MJX7sSIq60eKYIGtVG9itIDzuH7IeXgLD6WbafHSXuBpgAPcXFqCXQMySRAiPeYJEix8cX7/AnhtvYods7tBS+ZhErv3N3+MLYu34OKrZHxJuYNff9wPjrkJWjuOxkDT+7h+KwpCAEQf8fJBPFymOqFhlUfGymRU3u/Js64yv+dCDRxwkZdfiMTAqDKHratXoZ4ifHjtg+P3U1Cnfn/M2rwOTnoF4AvEEOYH4dDPC3DhtewmEbIoiy0aCsqQZkUV+zshJ9Yfj4NdMMmzH+wVPE+/9TAMGNUAF7eswMbjL5GaF4vbv/+Mq3lG0GGpMn7QgGX/H+HWPBCN+rmis7F6OfIr6idrod3wWZjQIQDpJq5wsJKkcKo+nv+OUbyci0cxAfto3bS2pAMj6jZsDrm7u5O7uzt5zRpADm11qL3jPkoWiSkn4QTN7GtCgB616T2DFv5kVbzwUJB3h7zs65LzvJvElSmDT9FXx1HHfnspWbq2uzDtDIXamVKovTvFLvSi2Ok/U8b9+DK/y6fnBx3JdmTRQjrZa8rLLY1YHEqbey+g15lfdy4QFt4nr87r6W2BslWNPIoJ2E9b5nYkHY0BtOC365SYJ5KcJ2W9lWJ5YhJwg+ncvsnkaKFFOvp9aM7W0xSSnEvPDzlR03btqKPDJBo3fTrNGdOeenv+Ss8S8kksTqBbPm5krdWM3OYfpZDiswxElB55hnYu7EZ6ALWwm00nAj6WOhNCyAsinyltSAd61K7vfPLxGU2dtEyp1+jddOXqPHIw1qBuHtvpYXQsPfXzpJYaRuQ4/TjFZQmIl/U3bRpjId1Uoj+5DmpO1v1n0PqDAWU2lyhUKn916VcsTqB7fotpav96ZNXPi36/Gkk8EtOHB7No4paXJCAxpUeeoV3LelIjDqiF3Sz69VgAZQrDaPMgczKp15qcJnrRrNmu5GptTj9tvEOfChMrrVtl+rXqNYUWzOpM+uxmNHLZGXqTnE9icSrd9XGhVgZsYqM+2bpupCfxsvohcQaF3ChpmzgKln7uNHgT/V3iczeP7fT4bRYJuE9p6xgLqRzL6eShH8migwd5bbtL8R//pkPL7Uif3YzGrrlAEcnZFHnrJ7I24JBlj8V0PSiILnkPldr+MIUll5VJTHkp92jnzFakybahxb7PKC7uOm2ZZEmabBtadjSMuKLPCuqWQ8//HEnWBhwyNh9IC3120jR7Q2rSYQqdC0mnj6830fB2egToUdu+HtTP0oScJ6+jM0+SSp2zIqZ3tHeCJdkN+x+t37OB5vXzpBOv0pXolEuxr/bTvEEmpF93OO24EEDPn/hIPw+lTaceUWKWQKaemVE+NKq7AXFgQUPn7qHfFnYkTbUuNO+P5xR886vOHsZzKT/lFE2xNSQd/T608dILuukzSI4cYspNvkSLhphQ3QaetO92BMVEeNOPHXWoqfUcuhqRSWJxLJ3wsiYddiMa/MthunF1JXla61BT69l09uVHEhIRL+sR7ZjWiboPmknzZvWngZ57KTpLQCJ+LF1a35MM2K1o8qZb9DbuIXlL7bTsaBjll3TYSvgVL+uh3HIl7fGr7jmwIPsRP1Cruk40dcUxCv7IpdTQbTS8nR5xYEFui46S9yJr6uk5j3zvvC1tm4vBlM6Tb0dFdleEsPA+eXVaReG5ko4gJ2YnDZ94mXKK9CDOoNC7a0rpV1BC/0N++ZOePNkqtc9sOvMylqKebpTeL7HXVwT0KfJIsU9tPv2KMvhipe08J2Y3DbLQkox6AOKgGdkOXUY3IrKISKRQZ/uuPiX/MzOoj7EGdRq8kW4GJ1OaAl+dsvEo/bHctlTskdFTpfuFwiq12eMvkyj21XaF+j31+CldLBWLvpTwla/ttmSbGfrLRfrMS1Ooc9X7MdX9iJ8dWipmBsZFldMOhUr1JhB/pvsHRlLnhkNozOwJNKzzeDr1Mr2GZSqgl35DqBEHxf5Yz9yORnqdogRu2c11BPTx9XYa38dYIn/vufRXcTuUfDe6UzMaOn0+TXOzoXl7XhBXTOXEp0CKe3uGlrs3JP26w2n39QiKLfU5ulwZFfV787beovDwwzJtU5Hf9x7tSyFv/UrE80AKvLu6TBwWVrqez065kUUXT1q0fT/9tnwwzd3+lLhiosywNdTNkFO8OU3lYwufwk7LK4NPQX6DiINm1LHfWBo7ZxQNbDem2LeUxSpe1iPaOd2aGrIlm4ot/uOV9Nxanorjh1S68L8BdPDZ1zOzFJcnprwU/zLjlKLtiLLo2gYbmuMbUTz+qsh4/nuFRVR2pWBV4SP4uCt6TzbAX+8Oor+Z8r+VxYJQ7HSeh0bbL8KzvWrpfyL+U6zptRudD/tiaOs6Cq8xMDAwMDB8G4RIDvwVW2/YYq67CK9DMqClRRB9uY0/bg3ESb8RUD3hnYGhahCl4d72xUiyW4Yu/DeITONDX78A728dQqrdcaxyld2IhpGx+hHxH2OVZyx+OTdObuZT1ajY+Pt7hOgdfJzWw+rQAfRp+H2tb68K1W7qCgug3h6zTs7G3wt8Ea3CXvpEabi3Ywe0l26Ei3RSJe8aAwMDAwPDt0IseoFdE3eBZaiH+i1+gLu7OwYOsIEuXwcDR3cD01Mx/JN8CfkNXutE0NU3glWfoXB3d4Ndu8YQ5jnAyabm1oJWhH+DjFWBKA5n5v6JXtvcamCi9W+GkJf8BFduR+Ld80PwtxyFbv+hiRZQA5OtojVbitePyFK77jBsO9oG53c9KWcxHg+R1w+B238/Fg8xl+6KJe8aAwMDAwPDt4OtZo2x60fgjU8vaLFZUGc1h8O4w8jrvAKzBjauhpVMDAyqo992HBbPicFSeyOwWCwYN+uDmbtT4bxlGbpXeWOL6uHfIGNVYLHMMWr/Xgyw0KqR5xNlI/lDJkici8wqrUX9p8nBwyNzMcSxDQYvYGH+0h9QMxr6dlRzGmE+4gP98TJGstOIbj1r9OrdAppMr8LAwMDAwMDAwMBQAxC4KS9w90ki+ASwWfpo28MereqrtgPjt0aQE4yLhyJh6TEcHRpUdROx748aWLPFwMDAwMDAwMDAwMDAwGSNMjAwMDAwMDAwMDAw1ADMZIuBgYGBgYGBgYGBgaEGYCZbDAwMDAwMDAwMDAwMNQAz2WJgYGBgYGBgYGBgYKgBmMkWAwMDAwMDAwMDAwNDDcBMthgYGBgYGBgYGBgYGGoAZrLFwMDAwMDAwMDAwMBQA/wfJFT4Rib6KdoAAAAASUVORK5CYII=;" vertex="1" parent="WIyWlLk6GJQsqaUBKTNV-1">
          <mxGeometry x="40" y="270" width="1984.49" height="700" as="geometry" />
        </mxCell>
      </root>
    </mxGraphModel>
  </diagram>
</mxfile>
